  0
SECTION
  2
HEADER
  9
$ACADVER
  1
AC1024
  9
$ACADMAINTVER
 70
6
  9
$DWGCODEPAGE
  3
ANSI_1252
  9
$LASTSAVEDBY
  1
ezdxf
  9
$INSBASE
 10
0.0
 20
0.0
 30
0.0
  9
$EXTMIN
 10
1e+20
 20
1e+20
 30
1e+20
  9
$EXTMAX
 10
-1e+20
 20
-1e+20
 30
-1e+20
  9
$LIMMIN
 10
0.0
 20
0.0
  9
$LIMMAX
 10
420.0
 20
297.0
  9
$ORTHOMODE
 70
0
  9
$REGENMODE
 70
1
  9
$FILLMODE
 70
1
  9
$QTEXTMODE
 70
0
  9
$MIRRTEXT
 70
1
  9
$LTSCALE
 40
1.0
  9
$ATTMODE
 70
1
  9
$TEXTSIZE
 40
2.5
  9
$TRACEWID
 40
1.0
  9
$TEXTSTYLE
  7
Standard
  9
$CLAYER
  8
0
  9
$CELTYPE
  6
ByLayer
  9
$CECOLOR
 62
256
  9
$CELTSCALE
 40
1.0
  9
$DISPSILH
 70
0
  9
$DIMSCALE
 40
1.0
  9
$DIMASZ
 40
2.5
  9
$DIMEXO
 40
0.625
  9
$DIMDLI
 40
3.75
  9
$DIMRND
 40
0.0
  9
$DIMDLE
 40
0.0
  9
$DIMEXE
 40
1.25
  9
$DIMTP
 40
0.0
  9
$DIMTM
 40
0.0
  9
$DIMTXT
 40
2.5
  9
$DIMCEN
 40
2.5
  9
$DIMTSZ
 40
0.0
  9
$DIMTOL
 70
0
  9
$DIMLIM
 70
0
  9
$DIMTIH
 70
0
  9
$DIMTOH
 70
0
  9
$DIMSE1
 70
0
  9
$DIMSE2
 70
0
  9
$DIMTAD
 70
1
  9
$DIMZIN
 70
8
  9
$DIMBLK
  1

  9
$DIMASO
 70
1
  9
$DIMSHO
 70
1
  9
$DIMPOST
  1

  9
$DIMAPOST
  1

  9
$DIMALT
 70
0
  9
$DIMALTD
 70
3
  9
$DIMALTF
 40
0.03937007874
  9
$DIMLFAC
 40
1.0
  9
$DIMTOFL
 70
1
  9
$DIMTVP
 40
0.0
  9
$DIMTIX
 70
0
  9
$DIMSOXD
 70
0
  9
$DIMSAH
 70
0
  9
$DIMBLK1
  1

  9
$DIMBLK2
  1

  9
$DIMSTYLE
  2
ISO-25
  9
$DIMCLRD
 70
0
  9
$DIMCLRE
 70
0
  9
$DIMCLRT
 70
0
  9
$DIMTFAC
 40
1.0
  9
$DIMGAP
 40
0.625
  9
$DIMJUST
 70
0
  9
$DIMSD1
 70
0
  9
$DIMSD2
 70
0
  9
$DIMTOLJ
 70
0
  9
$DIMTZIN
 70
8
  9
$DIMALTZ
 70
0
  9
$DIMALTTZ
 70
0
  9
$DIMUPT
 70
0
  9
$DIMDEC
 70
2
  9
$DIMTDEC
 70
2
  9
$DIMALTU
 70
2
  9
$DIMALTTD
 70
3
  9
$DIMTXSTY
  7
Standard
  9
$DIMAUNIT
 70
0
  9
$DIMADEC
 70
0
  9
$DIMALTRND
 40
0.0
  9
$DIMAZIN
 70
0
  9
$DIMDSEP
 70
44
  9
$DIMATFIT
 70
3
  9
$DIMFRAC
 70
0
  9
$DIMLDRBLK
  1

  9
$DIMLUNIT
 70
2
  9
$DIMLWD
 70
-2
  9
$DIMLWE
 70
-2
  9
$DIMTMOVE
 70
0
  9
$DIMFXL
 40
1.0
  9
$DIMFXLON
 70
0
  9
$DIMJOGANG
 40
0.785398163397
  9
$DIMTFILL
 70
0
  9
$DIMTFILLCLR
 70
0
  9
$DIMARCSYM
 70
0
  9
$DIMLTYPE
  6

  9
$DIMLTEX1
  6

  9
$DIMLTEX2
  6

  9
$DIMTXTDIRECTION
 70
0
  9
$LUNITS
 70
2
  9
$LUPREC
 70
4
  9
$SKETCHINC
 40
1.0
  9
$FILLETRAD
 40
10.0
  9
$AUNITS
 70
0
  9
$AUPREC
 70
2
  9
$MENU
  1
.
  9
$ELEVATION
 40
0.0
  9
$PELEVATION
 40
0.0
  9
$THICKNESS
 40
0.0
  9
$LIMCHECK
 70
0
  9
$CHAMFERA
 40
0.0
  9
$CHAMFERB
 40
0.0
  9
$CHAMFERC
 40
0.0
  9
$CHAMFERD
 40
0.0
  9
$SKPOLY
 70
0
  9
$TDCREATE
 40
2461151.4058217593
  9
$TDUCREATE
 40
2458532.153996898
  9
$TDUPDATE
 40
2461151.4058217593
  9
$TDUUPDATE
 40
2458532.1544311
  9
$TDINDWG
 40
0.0
  9
$TDUSRTIMER
 40
0.0
  9
$USRTIMER
 70
1
  9
$ANGBASE
 50
0.0
  9
$ANGDIR
 70
0
  9
$PDMODE
 70
0
  9
$PDSIZE
 40
0.0
  9
$PLINEWID
 40
0.0
  9
$SPLFRAME
 70
0
  9
$SPLINETYPE
 70
6
  9
$SPLINESEGS
 70
8
  9
$HANDSEED
  5
33
  9
$SURFTAB1
 70
6
  9
$SURFTAB2
 70
6
  9
$SURFTYPE
 70
6
  9
$SURFU
 70
6
  9
$SURFV
 70
6
  9
$UCSBASE
  2

  9
$UCSNAME
  2

  9
$UCSORG
 10
0.0
 20
0.0
 30
0.0
  9
$UCSXDIR
 10
1.0
 20
0.0
 30
0.0
  9
$UCSYDIR
 10
0.0
 20
1.0
 30
0.0
  9
$UCSORTHOREF
  2

  9
$UCSORTHOVIEW
 70
0
  9
$UCSORGTOP
 10
0.0
 20
0.0
 30
0.0
  9
$UCSORGBOTTOM
 10
0.0
 20
0.0
 30
0.0
  9
$UCSORGLEFT
 10
0.0
 20
0.0
 30
0.0
  9
$UCSORGRIGHT
 10
0.0
 20
0.0
 30
0.0
  9
$UCSORGFRONT
 10
0.0
 20
0.0
 30
0.0
  9
$UCSORGBACK
 10
0.0
 20
0.0
 30
0.0
  9
$PUCSBASE
  2

  9
$PUCSNAME
  2

  9
$PUCSORG
 10
0.0
 20
0.0
 30
0.0
  9
$PUCSXDIR
 10
1.0
 20
0.0
 30
0.0
  9
$PUCSYDIR
 10
0.0
 20
1.0
 30
0.0
  9
$PUCSORTHOREF
  2

  9
$PUCSORTHOVIEW
 70
0
  9
$PUCSORGTOP
 10
0.0
 20
0.0
 30
0.0
  9
$PUCSORGBOTTOM
 10
0.0
 20
0.0
 30
0.0
  9
$PUCSORGLEFT
 10
0.0
 20
0.0
 30
0.0
  9
$PUCSORGRIGHT
 10
0.0
 20
0.0
 30
0.0
  9
$PUCSORGFRONT
 10
0.0
 20
0.0
 30
0.0
  9
$PUCSORGBACK
 10
0.0
 20
0.0
 30
0.0
  9
$USERI1
 70
0
  9
$USERI2
 70
0
  9
$USERI3
 70
0
  9
$USERI4
 70
0
  9
$USERI5
 70
0
  9
$USERR1
 40
0.0
  9
$USERR2
 40
0.0
  9
$USERR3
 40
0.0
  9
$USERR4
 40
0.0
  9
$USERR5
 40
0.0
  9
$WORLDVIEW
 70
1
  9
$SHADEDGE
 70
3
  9
$SHADEDIF
 70
70
  9
$TILEMODE
 70
1
  9
$MAXACTVP
 70
64
  9
$PINSBASE
 10
0.0
 20
0.0
 30
0.0
  9
$PLIMCHECK
 70
0
  9
$PEXTMIN
 10
1e+20
 20
1e+20
 30
1e+20
  9
$PEXTMAX
 10
-1e+20
 20
-1e+20
 30
-1e+20
  9
$PLIMMIN
 10
0.0
 20
0.0
  9
$PLIMMAX
 10
420.0
 20
297.0
  9
$UNITMODE
 70
0
  9
$VISRETAIN
 70
1
  9
$PLINEGEN
 70
0
  9
$PSLTSCALE
 70
1
  9
$TREEDEPTH
 70
3020
  9
$CMLSTYLE
  2
Standard
  9
$CMLJUST
 70
0
  9
$CMLSCALE
 40
20.0
  9
$PROXYGRAPHICS
 70
1
  9
$MEASUREMENT
 70
1
  9
$CELWEIGHT
370
-1
  9
$ENDCAPS
280
0
  9
$JOINSTYLE
280
0
  9
$LWDISPLAY
290
0
  9
$INSUNITS
 70
6
  9
$HYPERLINKBASE
  1

  9
$STYLESHEET
  1

  9
$XEDIT
290
1
  9
$CEPSNTYPE
380
0
  9
$PSTYLEMODE
290
1
  9
$FINGERPRINTGUID
  2
{98A44F3F-1D04-49C0-B87C-68318BAB8C01}
  9
$VERSIONGUID
  2
{44832ADD-1B8A-46E6-A3A5-D584467D02D1}
  9
$EXTNAMES
290
1
  9
$PSVPSCALE
 40
0.0
  9
$OLESTARTUP
290
0
  9
$SORTENTS
280
127
  9
$INDEXCTL
280
0
  9
$HIDETEXT
280
1
  9
$XCLIPFRAME
280
1
  9
$HALOGAP
280
0
  9
$OBSCOLOR
 70
257
  9
$OBSLTYPE
280
0
  9
$INTERSECTIONDISPLAY
280
0
  9
$INTERSECTIONCOLOR
 70
257
  9
$DIMASSOC
280
2
  9
$PROJECTNAME
  1

  9
$CAMERADISPLAY
290
0
  9
$LENSLENGTH
 40
50.0
  9
$CAMERAHEIGHT
 40
0.0
  9
$STEPSPERSEC
 40
24.0
  9
$STEPSIZE
 40
100.0
  9
$3DDWFPREC
 40
2.0
  9
$PSOLWIDTH
 40
0.005
  9
$PSOLHEIGHT
 40
0.08
  9
$LOFTANG1
 40
1.570796326795
  9
$LOFTANG2
 40
1.570796326795
  9
$LOFTMAG1
 40
0.0
  9
$LOFTMAG2
 40
0.0
  9
$LOFTPARAM
 70
7
  9
$LOFTNORMALS
280
1
  9
$LATITUDE
 40
37.795
  9
$LONGITUDE
 40
-122.394
  9
$NORTHDIRECTION
 40
0.0
  9
$TIMEZONE
 70
-8000
  9
$LIGHTGLYPHDISPLAY
280
1
  9
$TILEMODELIGHTSYNCH
280
1
  9
$CMATERIAL
347
20
  9
$SOLIDHIST
280
0
  9
$SHOWHIST
280
1
  9
$DWFFRAME
280
2
  9
$DGNFRAME
280
2
  9
$REALWORLDSCALE
290
1
  9
$INTERFERECOLOR
 62
256
  9
$CSHADOW
280
0
  9
$SHADOWPLANELOCATION
 40
0.0
  0
ENDSEC
  0
SECTION
  2
CLASSES
  0
CLASS
  1
ACDBDICTIONARYWDFLT
  2
AcDbDictionaryWithDefault
  3
ObjectDBX Classes
 90
0
 91
0
280
0
281
0
  0
CLASS
  1
SUN
  2
AcDbSun
  3
SCENEOE
 90
1153
 91
0
280
0
281
0
  0
CLASS
  1
VISUALSTYLE
  2
AcDbVisualStyle
  3
ObjectDBX Classes
 90
4095
 91
0
280
0
281
0
  0
CLASS
  1
MATERIAL
  2
AcDbMaterial
  3
ObjectDBX Classes
 90
1153
 91
0
280
0
281
0
  0
CLASS
  1
SCALE
  2
AcDbScale
  3
ObjectDBX Classes
 90
1153
 91
0
280
0
281
0
  0
CLASS
  1
TABLESTYLE
  2
AcDbTableStyle
  3
ObjectDBX Classes
 90
4095
 91
0
280
0
281
0
  0
CLASS
  1
MLEADERSTYLE
  2
AcDbMLeaderStyle
  3
ACDB_MLEADERSTYLE_CLASS
 90
4095
 91
0
280
0
281
0
  0
CLASS
  1
DICTIONARYVAR
  2
AcDbDictionaryVar
  3
ObjectDBX Classes
 90
0
 91
0
280
0
281
0
  0
CLASS
  1
CELLSTYLEMAP
  2
AcDbCellStyleMap
  3
ObjectDBX Classes
 90
1152
 91
0
280
0
281
0
  0
CLASS
  1
MENTALRAYRENDERSETTINGS
  2
AcDbMentalRayRenderSettings
  3
SCENEOE
 90
1024
 91
0
280
0
281
0
  0
CLASS
  1
ACDBDETAILVIEWSTYLE
  2
AcDbDetailViewStyle
  3
ObjectDBX Classes
 90
1025
 91
0
280
0
281
0
  0
CLASS
  1
ACDBSECTIONVIEWSTYLE
  2
AcDbSectionViewStyle
  3
ObjectDBX Classes
 90
1025
 91
0
280
0
281
0
  0
CLASS
  1
RASTERVARIABLES
  2
AcDbRasterVariables
  3
ISM
 90
0
 91
0
280
0
281
0
  0
CLASS
  1
ACDBPLACEHOLDER
  2
AcDbPlaceHolder
  3
ObjectDBX Classes
 90
0
 91
0
280
0
281
0
  0
CLASS
  1
LAYOUT
  2
AcDbLayout
  3
ObjectDBX Classes
 90
0
 91
0
280
0
281
0
  0
ENDSEC
  0
SECTION
  2
TABLES
  0
TABLE
  2
VPORT
  5
8
330
0
100
AcDbSymbolTable
 70
1
  0
VPORT
  5
23
330
8
100
AcDbSymbolTableRecord
100
AcDbViewportTableRecord
  2
*Active
 70
0
 10
0.0
 20
0.0
 11
1.0
 21
1.0
 12
0.0
 22
0.0
 13
0.0
 23
0.0
 14
0.5
 24
0.5
 15
0.5
 25
0.5
 16
0.0
 26
0.0
 36
1.0
 17
0.0
 27
0.0
 37
0.0
 40
1000.0
 41
1.34
 42
50.0
 43
0.0
 44
0.0
 50
0.0
 51
0.0
 71
0
 72
1000
 73
1
 74
3
 75
0
 76
0
 77
0
 78
0
281
0
 65
0
146
0.0
  0
ENDTAB
  0
TABLE
  2
LTYPE
  5
2
330
0
100
AcDbSymbolTable
 70
3
  0
LTYPE
  5
24
330
2
100
AcDbSymbolTableRecord
100
AcDbLinetypeTableRecord
  2
ByBlock
 70
0
  3

 72
65
 73
0
 40
0.0
  0
LTYPE
  5
25
330
2
100
AcDbSymbolTableRecord
100
AcDbLinetypeTableRecord
  2
ByLayer
 70
0
  3

 72
65
 73
0
 40
0.0
  0
LTYPE
  5
26
330
2
100
AcDbSymbolTableRecord
100
AcDbLinetypeTableRecord
  2
Continuous
 70
0
  3

 72
65
 73
0
 40
0.0
  0
ENDTAB
  0
TABLE
  2
LAYER
  5
1
330
0
100
AcDbSymbolTable
 70
2
  0
LAYER
  5
27
330
1
100
AcDbSymbolTableRecord
100
AcDbLayerTableRecord
  2
0
 70
0
 62
7
  6
Continuous
370
-3
390
13
347
21
  0
LAYER
  5
28
330
1
100
AcDbSymbolTableRecord
100
AcDbLayerTableRecord
  2
Defpoints
 70
0
 62
7
  6
Continuous
290
0
370
-3
390
13
347
21
  0
ENDTAB
  0
TABLE
  2
STYLE
  5
5
330
0
100
AcDbSymbolTable
 70
1
  0
STYLE
  5
29
330
5
100
AcDbSymbolTableRecord
100
AcDbTextStyleTableRecord
  2
Standard
 70
0
 40
0.0
 41
1.0
 50
0.0
 71
0
 42
2.5
  3
txt
  4

  0
ENDTAB
  0
TABLE
  2
VIEW
  5
7
330
0
100
AcDbSymbolTable
 70
0
  0
ENDTAB
  0
TABLE
  2
UCS
  5
6
330
0
100
AcDbSymbolTable
 70
0
  0
ENDTAB
  0
TABLE
  2
APPID
  5
3
330
0
100
AcDbSymbolTable
 70
3
  0
APPID
  5
2A
330
3
100
AcDbSymbolTableRecord
100
AcDbRegAppTableRecord
  2
ACAD
 70
0
  0
APPID
  5
30
330
3
100
AcDbSymbolTableRecord
100
AcDbRegAppTableRecord
  2
HATCHBACKGROUNDCOLOR
 70
0
  0
APPID
  5
31
330
3
100
AcDbSymbolTableRecord
100
AcDbRegAppTableRecord
  2
EZDXF
 70
0
  0
ENDTAB
  0
TABLE
  2
DIMSTYLE
  5
4
330
0
100
AcDbSymbolTable
 70
1
100
AcDbDimStyleTable
  0
DIMSTYLE
105
2B
330
4
100
AcDbSymbolTableRecord
100
AcDbDimStyleTableRecord
  2
Standard
 70
0
 40
1.0
 41
2.5
 42
0.625
 43
3.75
 44
1.25
 45
0.0
 46
0.0
 47
0.0
 48
0.0
 49
2.5
140
2.5
141
2.5
142
0.0
143
0.03937007874
144
1.0
145
0.0
146
1.0
147
0.625
148
0.0
 69
0
 70
0
 71
0
 72
0
 73
0
 74
0
 75
0
 76
0
 77
1
 78
8
 79
3
170
0
171
3
172
1
173
0
174
0
175
0
176
0
177
0
178
0
179
2
271
2
272
2
273
2
274
3
275
0
276
0
277
2
278
44
279
0
280
0
281
0
282
0
283
0
284
8
285
0
286
0
288
0
289
3
290
0
371
-2
372
-2
  0
ENDTAB
  0
TABLE
  2
BLOCK_RECORD
  5
9
330
0
100
AcDbSymbolTable
 70
2
  0
BLOCK_RECORD
  5
17
330
9
100
AcDbSymbolTableRecord
100
AcDbBlockTableRecord
  2
*Model_Space
340
1A
 70
0
280
1
281
0
  0
BLOCK_RECORD
  5
1B
330
9
100
AcDbSymbolTableRecord
100
AcDbBlockTableRecord
  2
*Paper_Space
340
1E
 70
0
280
1
281
0
  0
ENDTAB
  0
ENDSEC
  0
SECTION
  2
BLOCKS
  0
BLOCK
  5
18
330
17
100
AcDbEntity
  8
0
100
AcDbBlockBegin
  2
*Model_Space
 70
0
 10
0.0
 20
0.0
 30
0.0
  3
*Model_Space
  1

  0
ENDBLK
  5
19
330
17
100
AcDbEntity
  8
0
100
AcDbBlockEnd
  0
BLOCK
  5
1C
330
1B
100
AcDbEntity
  8
0
100
AcDbBlockBegin
  2
*Paper_Space
 70
0
 10
0.0
 20
0.0
 30
0.0
  3
*Paper_Space
  1

  0
ENDBLK
  5
1D
330
1B
100
AcDbEntity
  8
0
100
AcDbBlockEnd
  0
ENDSEC
  0
SECTION
  2
ENTITIES
  0
LWPOLYLINE
  5
2F
330
17
100
AcDbEntity
  8
PERFIL
 62
1
100
AcDbPolyline
 90
361
 70
0
 10
90.0
 20
0.0
 10
89.98629256407521
 20
1.570716579355516
 10
89.94517443171861
 20
3.1409547032250873
 10
89.87665812791164
 20
4.710236061864945
 10
89.78076452338418
 20
6.278082636971277
 10
89.6575228282571
 20
7.844016847289235
 10
89.5069705831446
 20
9.407561694088812
 10
89.32915364771898
 20
10.968240906463272
 10
89.12412618674134
 20
12.52557908640589
 10
88.8919506535624
 20
14.079101853620779
 10
88.63269777109872
 20
15.62833599002373
 10
88.34644651028975
 20
17.172809583889034
 10
88.03328406604251
 20
18.71205217359834
 10
87.69330583067118
 20
20.24559489094785
 10
87.32661536483968
 20
21.772970603970094
 10
86.93332436601615
 20
23.293714059226865
 10
86.5135526344487
 20
24.807362023529926
 10
86.06742803667319
 20
26.31345342504631
 10
85.59508646656381
 20
27.811529493745265
 10
85.09667180393852
 20
29.3011339011441
 10
84.57233587073176
 20
30.781812899310186
 10
84.02223838474816
 20
32.25311545907702
 10
83.44654691101087
 20
33.71459340743208
 10
82.84543681071963
 20
35.16580156403464
 10
82.21909118783408
 20
36.60629787682202
 10
81.56770083329849
 20
38.03564355666295
 10
80.89146416692503
 20
39.45340321101697
 10
80.19058717695312
 20
40.85914497655921
 10
79.46528335730343
 20
42.25244065073017
 10
78.71577364254561
 20
43.63286582217034
 10
77.94228634059948
 20
44.99999999999999
 10
77.14505706319011
 20
46.353426741904876
 10
76.32432865407834
 20
47.69273378098844
 10
75.48035111508817
 20
49.01751315135244
 10
74.61338152995374
 20
50.32736131236722
 10
73.72368398600926
 20
51.621879271594146
 10
72.81152949374527
 20
52.90067270632258
 10
71.87719590425635
 20
54.163352083684345
 10
70.92096782460497
 20
55.409532779309245
 10
69.94313653112738
 20
56.63883519448537
 10
68.94399988070802
 20
57.85088487178853
 10
67.92386222004949
 20
59.045312609145654
 10
66.88303429296548
 20
60.22175457229724
 10
65.82183314572534
 20
61.37985240562486
 10
64.7405820304786
 20
62.51925334130975
 10
63.63961030678928
 20
63.63961030678927
 10
62.51925334130975
 20
64.74058203047859
 10
61.37985240562486
 20
65.82183314572534
 10
60.22175457229724
 20
66.88303429296548
 10
59.045312609145654
 20
67.92386222004949
 10
57.850884871788544
 20
68.94399988070802
 10
56.638835194485374
 20
69.94313653112738
 10
55.409532779309245
 20
70.92096782460499
 10
54.16335208368435
 20
71.87719590425635
 10
52.90067270632258
 20
72.81152949374527
 10
51.62187927159415
 20
73.72368398600926
 10
50.32736131236721
 20
74.61338152995376
 10
49.01751315135244
 20
75.48035111508817
 10
47.69273378098844
 20
76.32432865407834
 10
46.353426741904876
 20
77.14505706319011
 10
45.00000000000001
 20
77.94228634059948
 10
43.63286582217034
 20
78.71577364254561
 10
42.25244065073018
 20
79.46528335730342
 10
40.859144976559215
 20
80.1905871769531
 10
39.45340321101697
 20
80.89146416692503
 10
38.03564355666295
 20
81.56770083329849
 10
36.60629787682202
 20
82.21909118783408
 10
35.16580156403464
 20
82.84543681071963
 10
33.714593407432076
 20
83.44654691101087
 10
32.25311545907704
 20
84.02223838474816
 10
30.781812899310193
 20
84.57233587073175
 10
29.30113390114411
 20
85.0966718039385
 10
27.81152949374527
 20
85.59508646656381
 10
26.31345342504631
 20
86.06742803667319
 10
24.807362023529926
 20
86.5135526344487
 10
23.293714059226865
 20
86.93332436601615
 10
21.77297060397009
 20
87.32661536483968
 10
20.245594890947842
 20
87.69330583067118
 10
18.71205217359835
 20
88.0332840660425
 10
17.17280958388904
 20
88.34644651028975
 10
15.628335990023738
 20
88.63269777109872
 10
14.079101853620783
 20
88.8919506535624
 10
12.525579086405893
 20
89.12412618674134
 10
10.968240906463274
 20
89.32915364771898
 10
9.40756169408881
 20
89.5069705831446
 10
7.844016847289232
 20
89.6575228282571
 10
6.278082636971271
 20
89.78076452338418
 10
4.710236061864957
 20
89.87665812791164
 10
3.140954703225097
 20
89.94517443171861
 10
1.5707165793555238
 20
89.98629256407521
 10
5.5109105961630896e-15
 20
90.0
 10
-1.570716579355513
 20
89.98629256407521
 10
-3.140954703225086
 20
89.94517443171861
 10
-4.710236061864946
 20
89.87665812791164
 10
-6.27808263697128
 20
89.78076452338418
 10
-7.844016847289241
 20
89.6575228282571
 10
-9.40756169408882
 20
89.5069705831446
 10
-10.968240906463263
 20
89.32915364771898
 10
-12.525579086405882
 20
89.12412618674134
 10
-14.079101853620774
 20
88.8919506535624
 10
-15.628335990023727
 20
88.63269777109872
 10
-17.172809583889034
 20
88.34644651028975
 10
-18.71205217359834
 20
88.03328406604251
 10
-20.245594890947853
 20
87.69330583067118
 10
-21.7729706039701
 20
87.32661536483968
 10
-23.293714059226875
 20
86.93332436601615
 10
-24.807362023529915
 20
86.5135526344487
 10
-26.313453425046298
 20
86.06742803667319
 10
-27.81152949374526
 20
85.59508646656383
 10
-29.301133901144098
 20
85.09667180393852
 10
-30.781812899310186
 20
84.57233587073176
 10
-32.25311545907702
 20
84.02223838474816
 10
-33.71459340743208
 20
83.44654691101087
 10
-35.16580156403464
 20
82.84543681071962
 10
-36.606297876822026
 20
82.21909118783408
 10
-38.03564355666294
 20
81.5677008332985
 10
-39.453403211016976
 20
80.89146416692502
 10
-40.8591449765592
 20
80.19058717695312
 10
-42.25244065073018
 20
79.46528335730342
 10
-43.63286582217033
 20
78.71577364254563
 10
-44.99999999999998
 20
77.94228634059948
 10
-46.35342674190488
 20
77.14505706319011
 10
-47.69273378098843
 20
76.32432865407834
 10
-49.01751315135244
 20
75.48035111508815
 10
-50.3273613123672
 20
74.61338152995376
 10
-51.62187927159415
 20
73.72368398600925
 10
-52.900672706322574
 20
72.81152949374527
 10
-54.16335208368435
 20
71.87719590425634
 10
-55.409532779309245
 20
70.92096782460499
 10
-56.63883519448535
 20
69.9431365311274
 10
-57.850884871788544
 20
68.94399988070802
 10
-59.04531260914565
 20
67.92386222004949
 10
-60.22175457229724
 20
66.88303429296548
 10
-61.37985240562485
 20
65.82183314572535
 10
-62.51925334130976
 20
64.74058203047859
 10
-63.63961030678927
 20
63.63961030678928
 10
-64.7405820304786
 20
62.51925334130974
 10
-65.82183314572534
 20
61.379852405624874
 10
-66.88303429296546
 20
60.22175457229725
 10
-67.92386222004949
 20
59.045312609145654
 10
-68.943999880708
 20
57.85088487178855
 10
-69.94313653112738
 20
56.63883519448537
 10
-70.92096782460497
 20
55.40953277930926
 10
-71.87719590425637
 20
54.16335208368434
 10
-72.81152949374525
 20
52.900672706322595
 10
-73.72368398600928
 20
51.62187927159413
 10
-74.61338152995374
 20
50.32736131236722
 10
-75.48035111508815
 20
49.01751315135246
 10
-76.32432865407834
 20
47.69273378098844
 10
-77.1450570631901
 20
46.3534267419049
 10
-77.94228634059948
 20
44.99999999999999
 10
-78.71577364254561
 20
43.632865822170345
 10
-79.46528335730343
 20
42.252440650730165
 10
-80.1905871769531
 20
40.859144976559215
 10
-80.89146416692503
 20
39.453403211016955
 10
-81.56770083329849
 20
38.035643556662954
 10
-82.21909118783407
 20
36.60629787682204
 10
-82.84543681071963
 20
35.16580156403464
 10
-83.44654691101086
 20
33.714593407432105
 10
-84.02223838474816
 20
32.253115459077016
 10
-84.57233587073175
 20
30.7818128993102
 10
-85.09667180393852
 20
29.301133901144095
 10
-85.59508646656381
 20
27.811529493745276
 10
-86.06742803667319
 20
26.313453425046294
 10
-86.5135526344487
 20
24.80736202352993
 10
-86.93332436601614
 20
23.293714059226893
 10
-87.32661536483968
 20
21.772970603970094
 10
-87.69330583067116
 20
20.245594890947867
 10
-88.03328406604251
 20
18.712052173598337
 10
-88.34644651028975
 20
17.172809583889048
 10
-88.63269777109872
 20
15.628335990023725
 10
-88.89195065356239
 20
14.079101853620788
 10
-89.12412618674134
 20
12.52557908640588
 10
-89.32915364771898
 20
10.96824090646328
 10
-89.5069705831446
 20
9.407561694088836
 10
-89.6575228282571
 20
7.844016847289238
 10
-89.78076452338418
 20
6.278082636971297
 10
-89.87665812791164
 20
4.710236061864943
 10
-89.94517443171861
 20
3.140954703225103
 10
-89.98629256407521
 20
1.5707165793555096
 10
-90.0
 20
1.1021821192326179e-14
 10
-89.98629256407521
 20
-1.5707165793555273
 10
-89.94517443171861
 20
-3.140954703225081
 10
-89.87665812791164
 20
-4.71023606186492
 10
-89.78076452338418
 20
-6.278082636971274
 10
-89.6575228282571
 20
-7.844016847289215
 10
-89.5069705831446
 20
-9.407561694088814
 10
-89.32915364771898
 20
-10.968240906463258
 10
-89.12412618674132
 20
-12.525579086405896
 10
-88.8919506535624
 20
-14.079101853620767
 10
-88.63269777109872
 20
-15.628335990023743
 10
-88.34644651028975
 20
-17.172809583889023
 10
-88.0332840660425
 20
-18.712052173598355
 10
-87.69330583067118
 20
-20.24559489094785
 10
-87.32661536483968
 20
-21.772970603970077
 10
-86.93332436601615
 20
-23.293714059226872
 10
-86.5135526344487
 20
-24.807362023529908
 10
-86.06742803667319
 20
-26.31345342504631
 10
-85.59508646656383
 20
-27.811529493745255
 10
-85.0966718039385
 20
-29.30113390114411
 10
-84.57233587073176
 20
-30.78181289931018
 10
-84.02223838474816
 20
-32.25311545907704
 10
-83.44654691101087
 20
-33.71459340743208
 10
-82.84543681071963
 20
-35.165801564034616
 10
-82.21909118783408
 20
-36.60629787682202
 10
-81.5677008332985
 20
-38.03564355666293
 10
-80.89146416692502
 20
-39.45340321101697
 10
-80.19058717695312
 20
-40.8591449765592
 10
-79.46528335730342
 20
-42.25244065073018
 10
-78.71577364254563
 20
-43.632865822170324
 10
-77.94228634059948
 20
-45.00000000000001
 10
-77.14505706319011
 20
-46.353426741904876
 10
-76.32432865407834
 20
-47.69273378098843
 10
-75.48035111508817
 20
-49.01751315135244
 10
-74.61338152995377
 20
-50.3273613123672
 10
-73.72368398600926
 20
-51.62187927159415
 10
-72.81152949374528
 20
-52.900672706322574
 10
-71.87719590425635
 20
-54.16335208368435
 10
-70.92096782460499
 20
-55.40953277930924
 10
-69.94313653112737
 20
-56.63883519448539
 10
-68.94399988070802
 20
-57.85088487178853
 10
-67.92386222004949
 20
-59.04531260914563
 10
-66.88303429296548
 20
-60.22175457229724
 10
-65.82183314572535
 20
-61.37985240562485
 10
-64.74058203047859
 20
-62.51925334130976
 10
-63.639610306789294
 20
-63.63961030678927
 10
-62.51925334130975
 20
-64.7405820304786
 10
-61.379852405624874
 20
-65.82183314572534
 10
-60.22175457229723
 20
-66.88303429296549
 10
-59.045312609145654
 20
-67.92386222004949
 10
-57.85088487178855
 20
-68.943999880708
 10
-56.6388351944854
 20
-69.94313653112735
 10
-55.409532779309224
 20
-70.92096782460499
 10
-54.163352083684345
 20
-71.87719590425635
 10
-52.900672706322595
 20
-72.81152949374525
 10
-51.621879271594175
 20
-73.72368398600925
 10
-50.32736131236719
 20
-74.61338152995377
 10
-49.017513151352425
 20
-75.48035111508817
 10
-47.69273378098845
 20
-76.32432865407834
 10
-46.353426741904904
 20
-77.1450570631901
 10
-45.00000000000004
 20
-77.94228634059945
 10
-43.63286582217032
 20
-78.71577364254564
 10
-42.252440650730165
 20
-79.46528335730343
 10
-40.85914497655922
 20
-80.1905871769531
 10
-39.453403211017
 20
-80.89146416692502
 10
-38.035643556662926
 20
-81.5677008332985
 10
-36.60629787682201
 20
-82.21909118783408
 10
-35.165801564034645
 20
-82.84543681071962
 10
-33.714593407432105
 20
-83.44654691101086
 10
-32.253115459077065
 20
-84.02223838474815
 10
-30.781812899310168
 20
-84.57233587073176
 10
-29.301133901144098
 20
-85.09667180393852
 10
-27.81152949374528
 20
-85.59508646656381
 10
-26.31345342504634
 20
-86.06742803667318
 10
-24.8073620235299
 20
-86.51355263444871
 10
-23.293714059226858
 20
-86.93332436601615
 10
-21.7729706039701
 20
-87.32661536483968
 10
-20.245594890947874
 20
-87.69330583067116
 10
-18.71205217359838
 20
-88.0332840660425
 10
-17.172809583889016
 20
-88.34644651028975
 10
-15.62833599002373
 20
-88.63269777109872
 10
-14.079101853620793
 20
-88.89195065356239
 10
-12.525579086405925
 20
-89.12412618674132
 10
-10.968240906463246
 20
-89.32915364771898
 10
-9.407561694088802
 20
-89.50697058314461
 10
-7.844016847289242
 20
-89.6575228282571
 10
-6.278082636971302
 20
-89.78076452338418
 10
-4.710236061864988
 20
-89.87665812791164
 10
-3.1409547032250686
 20
-89.94517443171861
 10
-1.570716579355515
 20
-89.98629256407521
 10
-1.6532731788489267e-14
 20
-90.0
 10
1.5707165793554818
 20
-89.98629256407521
 10
3.1409547032251153
 20
-89.94517443171861
 10
4.710236061864955
 20
-89.87665812791164
 10
6.27808263697127
 20
-89.78076452338419
 10
7.84401684728921
 20
-89.6575228282571
 10
9.407561694088768
 20
-89.50697058314461
 10
10.968240906463292
 20
-89.32915364771898
 10
12.525579086405893
 20
-89.12412618674134
 10
14.079101853620761
 20
-88.8919506535624
 10
15.628335990023697
 20
-88.63269777109873
 10
17.17280958388906
 20
-88.34644651028975
 10
18.712052173598348
 20
-88.0332840660425
 10
20.245594890947842
 20
-87.69330583067118
 10
21.77297060397007
 20
-87.3266153648397
 10
23.293714059226826
 20
-86.93332436601615
 10
24.807362023529944
 20
-86.51355263444869
 10
26.313453425046305
 20
-86.06742803667319
 10
27.81152949374525
 20
-85.59508646656383
 10
29.30113390114407
 20
-85.09667180393852
 10
30.78181289931021
 20
-84.57233587073175
 10
32.25311545907704
 20
-84.02223838474816
 10
33.714593407432076
 20
-83.44654691101087
 10
35.165801564034616
 20
-82.84543681071965
 10
36.606297876821976
 20
-82.2190911878341
 10
38.03564355666296
 20
-81.56770083329849
 10
39.45340321101697
 20
-80.89146416692503
 10
40.8591449765592
 20
-80.19058717695312
 10
42.252440650730136
 20
-79.46528335730343
 10
43.63286582217035
 20
-78.71577364254561
 10
45.00000000000001
 20
-77.94228634059948
 10
46.353426741904876
 20
-77.14505706319011
 10
47.69273378098842
 20
-76.32432865407836
 10
49.0175131513524
 20
-75.48035111508818
 10
50.32736131236723
 20
-74.61338152995374
 10
51.621879271594146
 20
-73.72368398600926
 10
52.90067270632256
 20
-72.81152949374528
 10
54.163352083684316
 20
-71.87719590425637
 10
55.40953277930927
 20
-70.92096782460496
 10
56.638835194485374
 20
-69.94313653112737
 10
57.85088487178853
 20
-68.94399988070803
 10
59.04531260914563
 20
-67.9238622200495
 10
60.2217545722972
 20
-66.88303429296552
 10
61.379852405624874
 20
-65.82183314572534
 10
62.51925334130975
 20
-64.7405820304786
 10
63.63961030678926
 20
-63.639610306789294
 10
64.74058203047858
 20
-62.519253341309785
 10
65.82183314572536
 20
-61.379852405624845
 10
66.88303429296548
 20
-60.22175457229723
 10
67.92386222004947
 20
-59.04531260914567
 10
68.943999880708
 20
-57.850884871788566
 10
69.94313653112735
 20
-56.6388351944854
 10
70.92096782460499
 20
-55.40953277930924
 10
71.87719590425635
 20
-54.163352083684345
 10
72.81152949374525
 20
-52.9006727063226
 10
73.72368398600925
 20
-51.62187927159418
 10
74.61338152995377
 20
-50.32736131236719
 10
75.48035111508817
 20
-49.017513151352425
 10
76.32432865407834
 20
-47.69273378098845
 10
77.1450570631901
 20
-46.353426741904904
 10
77.94228634059945
 20
-45.00000000000004
 10
78.71577364254563
 20
-43.632865822170324
 10
79.46528335730342
 20
-42.25244065073017
 10
80.1905871769531
 20
-40.85914497655923
 10
80.89146416692502
 20
-39.453403211017005
 10
81.5677008332985
 20
-38.03564355666293
 10
82.21909118783408
 20
-36.60629787682201
 10
82.84543681071962
 20
-35.16580156403465
 10
83.44654691101086
 20
-33.71459340743211
 10
84.02223838474814
 20
-32.25311545907707
 10
84.57233587073176
 20
-30.781812899310175
 10
85.09667180393852
 20
-29.3011339011441
 10
85.59508646656381
 20
-27.811529493745287
 10
86.06742803667318
 20
-26.313453425046344
 10
86.5135526344487
 20
-24.807362023529905
 10
86.93332436601615
 20
-23.29371405922686
 10
87.32661536483968
 20
-21.77297060397011
 10
87.69330583067116
 20
-20.24559489094788
 10
88.0332840660425
 20
-18.712052173598387
 10
88.34644651028975
 20
-17.17280958388902
 10
88.63269777109872
 20
-15.628335990023734
 10
88.89195065356239
 20
-14.0791018536208
 10
89.12412618674132
 20
-12.52557908640593
 10
89.32915364771898
 20
-10.968240906463251
 10
89.5069705831446
 20
-9.407561694088807
 10
89.6575228282571
 20
-7.844016847289248
 10
89.78076452338418
 20
-6.278082636971307
 10
89.87665812791164
 20
-4.710236061864993
 10
89.94517443171861
 20
-3.140954703225074
 10
89.98629256407521
 20
-1.5707165793555204
 10
90.0
 20
0.0
  0
ENDSEC
  0
SECTION
  2
OBJECTS
  0
DICTIONARY
  5
A
330
0
100
AcDbDictionary
281
1
  3
ACAD_COLOR
350
B
  3
ACAD_GROUP
350
C
  3
ACAD_LAYOUT
350
D
  3
ACAD_MATERIAL
350
E
  3
ACAD_MLEADERSTYLE
350
F
  3
ACAD_MLINESTYLE
350
10
  3
ACAD_PLOTSETTINGS
350
11
  3
ACAD_PLOTSTYLENAME
350
12
  3
ACAD_SCALELIST
350
14
  3
ACAD_TABLESTYLE
350
15
  3
ACAD_VISUALSTYLE
350
16
  3
EZDXF_META
350
2D
  0
DICTIONARY
  5
B
330
A
100
AcDbDictionary
281
1
  0
DICTIONARY
  5
C
330
A
100
AcDbDictionary
281
1
  0
DICTIONARY
  5
D
330
A
100
AcDbDictionary
281
1
  3
Model
350
1A
  3
Layout1
350
1E
  0
DICTIONARY
  5
E
330
A
100
AcDbDictionary
281
1
  3
ByBlock
350
1F
  3
ByLayer
350
20
  3
Global
350
21
  0
DICTIONARY
  5
F
330
A
100
AcDbDictionary
281
1
  3
Standard
350
2C
  0
DICTIONARY
  5
10
330
A
100
AcDbDictionary
281
1
  3
Standard
350
22
  0
DICTIONARY
  5
11
330
A
100
AcDbDictionary
281
1
  0
ACDBDICTIONARYWDFLT
  5
12
330
A
100
AcDbDictionary
281
1
  3
Normal
350
13
100
AcDbDictionaryWithDefault
340
13
  0
ACDBPLACEHOLDER
  5
13
330
12
  0
DICTIONARY
  5
14
330
A
100
AcDbDictionary
281
1
  0
DICTIONARY
  5
15
330
A
100
AcDbDictionary
281
1
  0
DICTIONARY
  5
16
330
A
100
AcDbDictionary
281
1
  0
LAYOUT
  5
1A
330
D
100
AcDbPlotSettings
  1

  4
A3
  6

 40
7.5
 41
20.0
 42
7.5
 43
20.0
 44
420.0
 45
297.0
 46
0.0
 47
0.0
 48
0.0
 49
0.0
140
0.0
141
0.0
142
1.0
143
1.0
 70
1024
 72
1
 73
0
 74
5
  7

 75
16
 76
0
 77
2
 78
300
147
1.0
148
0.0
149
0.0
100
AcDbLayout
  1
Model
 70
1
 71
0
 10
0.0
 20
0.0
 11
420.0
 21
297.0
 12
0.0
 22
0.0
 32
0.0
 14
1e+20
 24
1e+20
 34
1e+20
 15
-1e+20
 25
-1e+20
 35
-1e+20
146
0.0
 13
0.0
 23
0.0
 33
0.0
 16
1.0
 26
0.0
 36
0.0
 17
0.0
 27
1.0
 37
0.0
 76
1
330
17
  0
LAYOUT
  5
1E
330
D
100
AcDbPlotSettings
  1

  4
A3
  6

 40
7.5
 41
20.0
 42
7.5
 43
20.0
 44
420.0
 45
297.0
 46
0.0
 47
0.0
 48
0.0
 49
0.0
140
0.0
141
0.0
142
1.0
143
1.0
 70
0
 72
1
 73
0
 74
5
  7

 75
16
 76
0
 77
2
 78
300
147
1.0
148
0.0
149
0.0
100
AcDbLayout
  1
Layout1
 70
1
 71
1
 10
0.0
 20
0.0
 11
420.0
 21
297.0
 12
0.0
 22
0.0
 32
0.0
 14
1e+20
 24
1e+20
 34
1e+20
 15
-1e+20
 25
-1e+20
 35
-1e+20
146
0.0
 13
0.0
 23
0.0
 33
0.0
 16
1.0
 26
0.0
 36
0.0
 17
0.0
 27
1.0
 37
0.0
 76
1
330
1B
  0
MATERIAL
  5
1F
102
{ACAD_REACTORS
330
E
102
}
330
E
100
AcDbMaterial
  1
ByBlock
  2

 70
0
 40
1.0
 71
1
 41
1.0
 91
-1023410177
 42
1.0
 72
1
  3

 73
1
 74
1
 75
1
 44
0.5
 73
0
 45
1.0
 46
1.0
 77
1
  4

 78
1
 79
1
170
1
 48
1.0
171
1
  6

172
1
173
1
174
1
140
1.0
141
1.0
175
1
  7

176
1
177
1
178
1
143
1.0
179
1
  8

270
1
271
1
272
1
145
1.0
146
1.0
273
1
  9

274
1
275
1
276
1
 42
1.0
 72
1
  3

 73
1
 74
1
 75
1
 94
63
  0
MATERIAL
  5
20
102
{ACAD_REACTORS
330
E
102
}
330
E
100
AcDbMaterial
  1
ByLayer
  2

 70
0
 40
1.0
 71
1
 41
1.0
 91
-1023410177
 42
1.0
 72
1
  3

 73
1
 74
1
 75
1
 44
0.5
 73
0
 45
1.0
 46
1.0
 77
1
  4

 78
1
 79
1
170
1
 48
1.0
171
1
  6

172
1
173
1
174
1
140
1.0
141
1.0
175
1
  7

176
1
177
1
178
1
143
1.0
179
1
  8

270
1
271
1
272
1
145
1.0
146
1.0
273
1
  9

274
1
275
1
276
1
 42
1.0
 72
1
  3

 73
1
 74
1
 75
1
 94
63
  0
MATERIAL
  5
21
102
{ACAD_REACTORS
330
E
102
}
330
E
100
AcDbMaterial
  1
Global
  2

 70
0
 40
1.0
 71
1
 41
1.0
 91
-1023410177
 42
1.0
 72
1
  3

 73
1
 74
1
 75
1
 44
0.5
 73
0
 45
1.0
 46
1.0
 77
1
  4

 78
1
 79
1
170
1
 48
1.0
171
1
  6

172
1
173
1
174
1
140
1.0
141
1.0
175
1
  7

176
1
177
1
178
1
143
1.0
179
1
  8

270
1
271
1
272
1
145
1.0
146
1.0
273
1
  9

274
1
275
1
276
1
 42
1.0
 72
1
  3

 73
1
 74
1
 75
1
 94
63
  0
MLINESTYLE
  5
22
102
{ACAD_REACTORS
330
10
102
}
330
10
100
AcDbMlineStyle
  2
Standard
 70
0
  3

 62
256
 51
90.0
 52
90.0
 71
2
 49
0.5
 62
256
  6
BYLAYER
 49
-0.5
 62
256
  6
BYLAYER
  0
MLEADERSTYLE
  5
2C
102
{ACAD_REACTORS
330
F
102
}
330
F
100
AcDbMLeaderStyle
179
2
170
2
171
1
172
0
 90
2
 40
0.0
 41
0.0
173
1
 91
-1056964608
 92
-2
290
1
 42
2.0
291
1
 43
8.0
  3
Standard
 44
4.0
300

342
29
174
1
175
1
176
0
178
1
 93
-1056964608
 45
4.0
292
0
297
0
 46
4.0
 94
-1056964608
 47
1.0
 49
1.0
140
1.0
294
1
141
0.0
177
0
142
1.0
295
0
296
0
143
3.75
271
0
272
9
273
9
  0
DICTIONARY
  5
2D
330
A
100
AcDbDictionary
280
1
281
1
  3
CREATED_BY_EZDXF
350
2E
  3
WRITTEN_BY_EZDXF
350
32
  0
DICTIONARYVAR
  5
2E
330
2D
100
DictionaryVariables
280
0
  1
1.4.3 @ 2026-04-20T09:44:23.823408+00:00
  0
DICTIONARYVAR
  5
32
330
2D
100
DictionaryVariables
280
0
  1
1.4.3 @ 2026-04-20T09:44:23.851299+00:00
  0
ENDSEC
  0
EOF
