  0
SECTION
  2
HEADER
  9
$ACADVER
  1
AC1024
  9
$ACADMAINTVER
 70
6
  9
$DWGCODEPAGE
  3
ANSI_1252
  9
$LASTSAVEDBY
  1
ezdxf
  9
$INSBASE
 10
0.0
 20
0.0
 30
0.0
  9
$EXTMIN
 10
1e+20
 20
1e+20
 30
1e+20
  9
$EXTMAX
 10
-1e+20
 20
-1e+20
 30
-1e+20
  9
$LIMMIN
 10
0.0
 20
0.0
  9
$LIMMAX
 10
420.0
 20
297.0
  9
$ORTHOMODE
 70
0
  9
$REGENMODE
 70
1
  9
$FILLMODE
 70
1
  9
$QTEXTMODE
 70
0
  9
$MIRRTEXT
 70
1
  9
$LTSCALE
 40
1.0
  9
$ATTMODE
 70
1
  9
$TEXTSIZE
 40
2.5
  9
$TRACEWID
 40
1.0
  9
$TEXTSTYLE
  7
Standard
  9
$CLAYER
  8
0
  9
$CELTYPE
  6
ByLayer
  9
$CECOLOR
 62
256
  9
$CELTSCALE
 40
1.0
  9
$DISPSILH
 70
0
  9
$DIMSCALE
 40
1.0
  9
$DIMASZ
 40
2.5
  9
$DIMEXO
 40
0.625
  9
$DIMDLI
 40
3.75
  9
$DIMRND
 40
0.0
  9
$DIMDLE
 40
0.0
  9
$DIMEXE
 40
1.25
  9
$DIMTP
 40
0.0
  9
$DIMTM
 40
0.0
  9
$DIMTXT
 40
2.5
  9
$DIMCEN
 40
2.5
  9
$DIMTSZ
 40
0.0
  9
$DIMTOL
 70
0
  9
$DIMLIM
 70
0
  9
$DIMTIH
 70
0
  9
$DIMTOH
 70
0
  9
$DIMSE1
 70
0
  9
$DIMSE2
 70
0
  9
$DIMTAD
 70
1
  9
$DIMZIN
 70
8
  9
$DIMBLK
  1

  9
$DIMASO
 70
1
  9
$DIMSHO
 70
1
  9
$DIMPOST
  1

  9
$DIMAPOST
  1

  9
$DIMALT
 70
0
  9
$DIMALTD
 70
3
  9
$DIMALTF
 40
0.03937007874
  9
$DIMLFAC
 40
1.0
  9
$DIMTOFL
 70
1
  9
$DIMTVP
 40
0.0
  9
$DIMTIX
 70
0
  9
$DIMSOXD
 70
0
  9
$DIMSAH
 70
0
  9
$DIMBLK1
  1

  9
$DIMBLK2
  1

  9
$DIMSTYLE
  2
ISO-25
  9
$DIMCLRD
 70
0
  9
$DIMCLRE
 70
0
  9
$DIMCLRT
 70
0
  9
$DIMTFAC
 40
1.0
  9
$DIMGAP
 40
0.625
  9
$DIMJUST
 70
0
  9
$DIMSD1
 70
0
  9
$DIMSD2
 70
0
  9
$DIMTOLJ
 70
0
  9
$DIMTZIN
 70
8
  9
$DIMALTZ
 70
0
  9
$DIMALTTZ
 70
0
  9
$DIMUPT
 70
0
  9
$DIMDEC
 70
2
  9
$DIMTDEC
 70
2
  9
$DIMALTU
 70
2
  9
$DIMALTTD
 70
3
  9
$DIMTXSTY
  7
Standard
  9
$DIMAUNIT
 70
0
  9
$DIMADEC
 70
0
  9
$DIMALTRND
 40
0.0
  9
$DIMAZIN
 70
0
  9
$DIMDSEP
 70
44
  9
$DIMATFIT
 70
3
  9
$DIMFRAC
 70
0
  9
$DIMLDRBLK
  1

  9
$DIMLUNIT
 70
2
  9
$DIMLWD
 70
-2
  9
$DIMLWE
 70
-2
  9
$DIMTMOVE
 70
0
  9
$DIMFXL
 40
1.0
  9
$DIMFXLON
 70
0
  9
$DIMJOGANG
 40
0.785398163397
  9
$DIMTFILL
 70
0
  9
$DIMTFILLCLR
 70
0
  9
$DIMARCSYM
 70
0
  9
$DIMLTYPE
  6

  9
$DIMLTEX1
  6

  9
$DIMLTEX2
  6

  9
$DIMTXTDIRECTION
 70
0
  9
$LUNITS
 70
2
  9
$LUPREC
 70
4
  9
$SKETCHINC
 40
1.0
  9
$FILLETRAD
 40
10.0
  9
$AUNITS
 70
0
  9
$AUPREC
 70
2
  9
$MENU
  1
.
  9
$ELEVATION
 40
0.0
  9
$PELEVATION
 40
0.0
  9
$THICKNESS
 40
0.0
  9
$LIMCHECK
 70
0
  9
$CHAMFERA
 40
0.0
  9
$CHAMFERB
 40
0.0
  9
$CHAMFERC
 40
0.0
  9
$CHAMFERD
 40
0.0
  9
$SKPOLY
 70
0
  9
$TDCREATE
 40
2461151.4056018516
  9
$TDUCREATE
 40
2458532.153996898
  9
$TDUPDATE
 40
2461151.4056018516
  9
$TDUUPDATE
 40
2458532.1544311
  9
$TDINDWG
 40
0.0
  9
$TDUSRTIMER
 40
0.0
  9
$USRTIMER
 70
1
  9
$ANGBASE
 50
0.0
  9
$ANGDIR
 70
0
  9
$PDMODE
 70
0
  9
$PDSIZE
 40
0.0
  9
$PLINEWID
 40
0.0
  9
$SPLFRAME
 70
0
  9
$SPLINETYPE
 70
6
  9
$SPLINESEGS
 70
8
  9
$HANDSEED
  5
33
  9
$SURFTAB1
 70
6
  9
$SURFTAB2
 70
6
  9
$SURFTYPE
 70
6
  9
$SURFU
 70
6
  9
$SURFV
 70
6
  9
$UCSBASE
  2

  9
$UCSNAME
  2

  9
$UCSORG
 10
0.0
 20
0.0
 30
0.0
  9
$UCSXDIR
 10
1.0
 20
0.0
 30
0.0
  9
$UCSYDIR
 10
0.0
 20
1.0
 30
0.0
  9
$UCSORTHOREF
  2

  9
$UCSORTHOVIEW
 70
0
  9
$UCSORGTOP
 10
0.0
 20
0.0
 30
0.0
  9
$UCSORGBOTTOM
 10
0.0
 20
0.0
 30
0.0
  9
$UCSORGLEFT
 10
0.0
 20
0.0
 30
0.0
  9
$UCSORGRIGHT
 10
0.0
 20
0.0
 30
0.0
  9
$UCSORGFRONT
 10
0.0
 20
0.0
 30
0.0
  9
$UCSORGBACK
 10
0.0
 20
0.0
 30
0.0
  9
$PUCSBASE
  2

  9
$PUCSNAME
  2

  9
$PUCSORG
 10
0.0
 20
0.0
 30
0.0
  9
$PUCSXDIR
 10
1.0
 20
0.0
 30
0.0
  9
$PUCSYDIR
 10
0.0
 20
1.0
 30
0.0
  9
$PUCSORTHOREF
  2

  9
$PUCSORTHOVIEW
 70
0
  9
$PUCSORGTOP
 10
0.0
 20
0.0
 30
0.0
  9
$PUCSORGBOTTOM
 10
0.0
 20
0.0
 30
0.0
  9
$PUCSORGLEFT
 10
0.0
 20
0.0
 30
0.0
  9
$PUCSORGRIGHT
 10
0.0
 20
0.0
 30
0.0
  9
$PUCSORGFRONT
 10
0.0
 20
0.0
 30
0.0
  9
$PUCSORGBACK
 10
0.0
 20
0.0
 30
0.0
  9
$USERI1
 70
0
  9
$USERI2
 70
0
  9
$USERI3
 70
0
  9
$USERI4
 70
0
  9
$USERI5
 70
0
  9
$USERR1
 40
0.0
  9
$USERR2
 40
0.0
  9
$USERR3
 40
0.0
  9
$USERR4
 40
0.0
  9
$USERR5
 40
0.0
  9
$WORLDVIEW
 70
1
  9
$SHADEDGE
 70
3
  9
$SHADEDIF
 70
70
  9
$TILEMODE
 70
1
  9
$MAXACTVP
 70
64
  9
$PINSBASE
 10
0.0
 20
0.0
 30
0.0
  9
$PLIMCHECK
 70
0
  9
$PEXTMIN
 10
1e+20
 20
1e+20
 30
1e+20
  9
$PEXTMAX
 10
-1e+20
 20
-1e+20
 30
-1e+20
  9
$PLIMMIN
 10
0.0
 20
0.0
  9
$PLIMMAX
 10
420.0
 20
297.0
  9
$UNITMODE
 70
0
  9
$VISRETAIN
 70
1
  9
$PLINEGEN
 70
0
  9
$PSLTSCALE
 70
1
  9
$TREEDEPTH
 70
3020
  9
$CMLSTYLE
  2
Standard
  9
$CMLJUST
 70
0
  9
$CMLSCALE
 40
20.0
  9
$PROXYGRAPHICS
 70
1
  9
$MEASUREMENT
 70
1
  9
$CELWEIGHT
370
-1
  9
$ENDCAPS
280
0
  9
$JOINSTYLE
280
0
  9
$LWDISPLAY
290
0
  9
$INSUNITS
 70
6
  9
$HYPERLINKBASE
  1

  9
$STYLESHEET
  1

  9
$XEDIT
290
1
  9
$CEPSNTYPE
380
0
  9
$PSTYLEMODE
290
1
  9
$FINGERPRINTGUID
  2
{55A568FD-8B0B-42B7-8C5B-A79844AB237B}
  9
$VERSIONGUID
  2
{0F6479EA-830B-48C3-8BFB-2BA291C816F9}
  9
$EXTNAMES
290
1
  9
$PSVPSCALE
 40
0.0
  9
$OLESTARTUP
290
0
  9
$SORTENTS
280
127
  9
$INDEXCTL
280
0
  9
$HIDETEXT
280
1
  9
$XCLIPFRAME
280
1
  9
$HALOGAP
280
0
  9
$OBSCOLOR
 70
257
  9
$OBSLTYPE
280
0
  9
$INTERSECTIONDISPLAY
280
0
  9
$INTERSECTIONCOLOR
 70
257
  9
$DIMASSOC
280
2
  9
$PROJECTNAME
  1

  9
$CAMERADISPLAY
290
0
  9
$LENSLENGTH
 40
50.0
  9
$CAMERAHEIGHT
 40
0.0
  9
$STEPSPERSEC
 40
24.0
  9
$STEPSIZE
 40
100.0
  9
$3DDWFPREC
 40
2.0
  9
$PSOLWIDTH
 40
0.005
  9
$PSOLHEIGHT
 40
0.08
  9
$LOFTANG1
 40
1.570796326795
  9
$LOFTANG2
 40
1.570796326795
  9
$LOFTMAG1
 40
0.0
  9
$LOFTMAG2
 40
0.0
  9
$LOFTPARAM
 70
7
  9
$LOFTNORMALS
280
1
  9
$LATITUDE
 40
37.795
  9
$LONGITUDE
 40
-122.394
  9
$NORTHDIRECTION
 40
0.0
  9
$TIMEZONE
 70
-8000
  9
$LIGHTGLYPHDISPLAY
280
1
  9
$TILEMODELIGHTSYNCH
280
1
  9
$CMATERIAL
347
20
  9
$SOLIDHIST
280
0
  9
$SHOWHIST
280
1
  9
$DWFFRAME
280
2
  9
$DGNFRAME
280
2
  9
$REALWORLDSCALE
290
1
  9
$INTERFERECOLOR
 62
256
  9
$CSHADOW
280
0
  9
$SHADOWPLANELOCATION
 40
0.0
  0
ENDSEC
  0
SECTION
  2
CLASSES
  0
CLASS
  1
ACDBDICTIONARYWDFLT
  2
AcDbDictionaryWithDefault
  3
ObjectDBX Classes
 90
0
 91
0
280
0
281
0
  0
CLASS
  1
SUN
  2
AcDbSun
  3
SCENEOE
 90
1153
 91
0
280
0
281
0
  0
CLASS
  1
VISUALSTYLE
  2
AcDbVisualStyle
  3
ObjectDBX Classes
 90
4095
 91
0
280
0
281
0
  0
CLASS
  1
MATERIAL
  2
AcDbMaterial
  3
ObjectDBX Classes
 90
1153
 91
0
280
0
281
0
  0
CLASS
  1
SCALE
  2
AcDbScale
  3
ObjectDBX Classes
 90
1153
 91
0
280
0
281
0
  0
CLASS
  1
TABLESTYLE
  2
AcDbTableStyle
  3
ObjectDBX Classes
 90
4095
 91
0
280
0
281
0
  0
CLASS
  1
MLEADERSTYLE
  2
AcDbMLeaderStyle
  3
ACDB_MLEADERSTYLE_CLASS
 90
4095
 91
0
280
0
281
0
  0
CLASS
  1
DICTIONARYVAR
  2
AcDbDictionaryVar
  3
ObjectDBX Classes
 90
0
 91
0
280
0
281
0
  0
CLASS
  1
CELLSTYLEMAP
  2
AcDbCellStyleMap
  3
ObjectDBX Classes
 90
1152
 91
0
280
0
281
0
  0
CLASS
  1
MENTALRAYRENDERSETTINGS
  2
AcDbMentalRayRenderSettings
  3
SCENEOE
 90
1024
 91
0
280
0
281
0
  0
CLASS
  1
ACDBDETAILVIEWSTYLE
  2
AcDbDetailViewStyle
  3
ObjectDBX Classes
 90
1025
 91
0
280
0
281
0
  0
CLASS
  1
ACDBSECTIONVIEWSTYLE
  2
AcDbSectionViewStyle
  3
ObjectDBX Classes
 90
1025
 91
0
280
0
281
0
  0
CLASS
  1
RASTERVARIABLES
  2
AcDbRasterVariables
  3
ISM
 90
0
 91
0
280
0
281
0
  0
CLASS
  1
ACDBPLACEHOLDER
  2
AcDbPlaceHolder
  3
ObjectDBX Classes
 90
0
 91
0
280
0
281
0
  0
CLASS
  1
LAYOUT
  2
AcDbLayout
  3
ObjectDBX Classes
 90
0
 91
0
280
0
281
0
  0
ENDSEC
  0
SECTION
  2
TABLES
  0
TABLE
  2
VPORT
  5
8
330
0
100
AcDbSymbolTable
 70
1
  0
VPORT
  5
23
330
8
100
AcDbSymbolTableRecord
100
AcDbViewportTableRecord
  2
*Active
 70
0
 10
0.0
 20
0.0
 11
1.0
 21
1.0
 12
0.0
 22
0.0
 13
0.0
 23
0.0
 14
0.5
 24
0.5
 15
0.5
 25
0.5
 16
0.0
 26
0.0
 36
1.0
 17
0.0
 27
0.0
 37
0.0
 40
1000.0
 41
1.34
 42
50.0
 43
0.0
 44
0.0
 50
0.0
 51
0.0
 71
0
 72
1000
 73
1
 74
3
 75
0
 76
0
 77
0
 78
0
281
0
 65
0
146
0.0
  0
ENDTAB
  0
TABLE
  2
LTYPE
  5
2
330
0
100
AcDbSymbolTable
 70
3
  0
LTYPE
  5
24
330
2
100
AcDbSymbolTableRecord
100
AcDbLinetypeTableRecord
  2
ByBlock
 70
0
  3

 72
65
 73
0
 40
0.0
  0
LTYPE
  5
25
330
2
100
AcDbSymbolTableRecord
100
AcDbLinetypeTableRecord
  2
ByLayer
 70
0
  3

 72
65
 73
0
 40
0.0
  0
LTYPE
  5
26
330
2
100
AcDbSymbolTableRecord
100
AcDbLinetypeTableRecord
  2
Continuous
 70
0
  3

 72
65
 73
0
 40
0.0
  0
ENDTAB
  0
TABLE
  2
LAYER
  5
1
330
0
100
AcDbSymbolTable
 70
2
  0
LAYER
  5
27
330
1
100
AcDbSymbolTableRecord
100
AcDbLayerTableRecord
  2
0
 70
0
 62
7
  6
Continuous
370
-3
390
13
347
21
  0
LAYER
  5
28
330
1
100
AcDbSymbolTableRecord
100
AcDbLayerTableRecord
  2
Defpoints
 70
0
 62
7
  6
Continuous
290
0
370
-3
390
13
347
21
  0
ENDTAB
  0
TABLE
  2
STYLE
  5
5
330
0
100
AcDbSymbolTable
 70
1
  0
STYLE
  5
29
330
5
100
AcDbSymbolTableRecord
100
AcDbTextStyleTableRecord
  2
Standard
 70
0
 40
0.0
 41
1.0
 50
0.0
 71
0
 42
2.5
  3
txt
  4

  0
ENDTAB
  0
TABLE
  2
VIEW
  5
7
330
0
100
AcDbSymbolTable
 70
0
  0
ENDTAB
  0
TABLE
  2
UCS
  5
6
330
0
100
AcDbSymbolTable
 70
0
  0
ENDTAB
  0
TABLE
  2
APPID
  5
3
330
0
100
AcDbSymbolTable
 70
3
  0
APPID
  5
2A
330
3
100
AcDbSymbolTableRecord
100
AcDbRegAppTableRecord
  2
ACAD
 70
0
  0
APPID
  5
30
330
3
100
AcDbSymbolTableRecord
100
AcDbRegAppTableRecord
  2
HATCHBACKGROUNDCOLOR
 70
0
  0
APPID
  5
31
330
3
100
AcDbSymbolTableRecord
100
AcDbRegAppTableRecord
  2
EZDXF
 70
0
  0
ENDTAB
  0
TABLE
  2
DIMSTYLE
  5
4
330
0
100
AcDbSymbolTable
 70
1
100
AcDbDimStyleTable
  0
DIMSTYLE
105
2B
330
4
100
AcDbSymbolTableRecord
100
AcDbDimStyleTableRecord
  2
Standard
 70
0
 40
1.0
 41
2.5
 42
0.625
 43
3.75
 44
1.25
 45
0.0
 46
0.0
 47
0.0
 48
0.0
 49
2.5
140
2.5
141
2.5
142
0.0
143
0.03937007874
144
1.0
145
0.0
146
1.0
147
0.625
148
0.0
 69
0
 70
0
 71
0
 72
0
 73
0
 74
0
 75
0
 76
0
 77
1
 78
8
 79
3
170
0
171
3
172
1
173
0
174
0
175
0
176
0
177
0
178
0
179
2
271
2
272
2
273
2
274
3
275
0
276
0
277
2
278
44
279
0
280
0
281
0
282
0
283
0
284
8
285
0
286
0
288
0
289
3
290
0
371
-2
372
-2
  0
ENDTAB
  0
TABLE
  2
BLOCK_RECORD
  5
9
330
0
100
AcDbSymbolTable
 70
2
  0
BLOCK_RECORD
  5
17
330
9
100
AcDbSymbolTableRecord
100
AcDbBlockTableRecord
  2
*Model_Space
340
1A
 70
0
280
1
281
0
  0
BLOCK_RECORD
  5
1B
330
9
100
AcDbSymbolTableRecord
100
AcDbBlockTableRecord
  2
*Paper_Space
340
1E
 70
0
280
1
281
0
  0
ENDTAB
  0
ENDSEC
  0
SECTION
  2
BLOCKS
  0
BLOCK
  5
18
330
17
100
AcDbEntity
  8
0
100
AcDbBlockBegin
  2
*Model_Space
 70
0
 10
0.0
 20
0.0
 30
0.0
  3
*Model_Space
  1

  0
ENDBLK
  5
19
330
17
100
AcDbEntity
  8
0
100
AcDbBlockEnd
  0
BLOCK
  5
1C
330
1B
100
AcDbEntity
  8
0
100
AcDbBlockBegin
  2
*Paper_Space
 70
0
 10
0.0
 20
0.0
 30
0.0
  3
*Paper_Space
  1

  0
ENDBLK
  5
1D
330
1B
100
AcDbEntity
  8
0
100
AcDbBlockEnd
  0
ENDSEC
  0
SECTION
  2
ENTITIES
  0
LWPOLYLINE
  5
2F
330
17
100
AcDbEntity
  8
PERFIL
 62
1
100
AcDbPolyline
 90
361
 70
0
 10
95.0
 20
0.0
 10
94.98553103985716
 20
1.6579786115419337
 10
94.94212856681409
 20
3.315452186737592
 10
94.86980580168452
 20
4.971915843079664
 10
94.7685847746833
 20
6.626865005691903
 10
94.63849631871582
 20
8.279795561027525
 10
94.47958005998596
 20
9.93020401042708
 10
94.29188440592559
 20
11.577587623489011
 10
94.07546653044919
 20
13.221444591206216
 10
93.83039235653808
 20
14.861274178821933
 10
93.55673653615976
 20
16.496576878358383
 10
93.25458242752808
 20
18.126854560771758
 10
92.92402206971154
 20
19.75161062768714
 10
92.56515615459735
 20
21.370350162667176
 10
92.17809399621966
 20
22.982580081968436
 10
91.7629534974615
 20
24.58780928473947
 10
91.3198611141403
 20
26.18554880261492
 10
90.84895181648837
 20
27.775311948659994
 10
90.35036904803958
 20
29.35661446562
 10
89.8242646819351
 20
30.928974673429888
 10
89.2707989746613
 20
32.49191361593853
 10
88.69014051723417
 20
34.04495520680353
 10
88.0824661838448
 20
35.58762637451164
 10
87.44796107798183
 20
37.11945720648101
 10
86.78681847604709
 20
38.63998109220102
 10
86.09923976848174
 20
40.14873486536645
 10
85.38543439842087
 20
41.64525894496235
 10
84.64561979789495
 20
43.12909747525694
 10
83.88002132159806
 20
44.59979846465963
 10
83.0888721782426
 20
46.05691392340202
 10
82.27241335952168
 20
47.49999999999999
 10
81.43089356670068
 20
48.92861711645514
 10
80.56456913486046
 20
50.34233010215446
 10
79.67370395481528
 20
51.74070832642757
 10
78.75856939272896
 20
53.123325829720955
 10
77.81944420745423
 20
54.489761453349374
 10
76.85661446562001
 20
55.83959896778495
 10
75.87037345449282
 20
57.172427199444584
 10
74.86102159263858
 20
58.48784015593754
 10
73.82886633841224
 20
59.785437149734555
 10
72.7742220963029
 20
61.06482292022123
 10
71.69741012116334
 20
62.32560775409819
 10
70.59875842035245
 20
63.567407604091535
 10
69.47860165382119
 20
64.78984420593736
 10
68.33728103217186
 20
65.99254519360474
 10
67.17514421272202
 20
67.175144212722
 10
65.99254519360474
 20
68.33728103217186
 10
64.78984420593736
 20
69.47860165382119
 10
63.567407604091535
 20
70.59875842035245
 10
62.32560775409819
 20
71.69741012116334
 10
61.06482292022124
 20
72.7742220963029
 10
59.78543714973456
 20
73.82886633841224
 10
58.48784015593754
 20
74.8610215926386
 10
57.1724271994446
 20
75.87037345449282
 10
55.83959896778495
 20
76.85661446562001
 10
54.48976145334939
 20
77.81944420745423
 10
53.12332582972095
 20
78.75856939272896
 10
51.74070832642757
 20
79.67370395481528
 10
50.34233010215446
 20
80.56456913486046
 10
48.92861711645514
 20
81.43089356670068
 10
47.50000000000001
 20
82.27241335952166
 10
46.05691392340203
 20
83.0888721782426
 10
44.599798464659635
 20
83.88002132159805
 10
43.12909747525695
 20
84.64561979789494
 10
41.64525894496236
 20
85.38543439842087
 10
40.14873486536645
 20
86.09923976848174
 10
38.63998109220102
 20
86.78681847604709
 10
37.119457206481
 20
87.44796107798183
 10
35.587626374511636
 20
88.0824661838448
 10
34.044955206803536
 20
88.69014051723417
 10
32.491913615938536
 20
89.27079897466129
 10
30.92897467342989
 20
89.82426468193509
 10
29.35661446562001
 20
90.35036904803958
 10
27.775311948659994
 20
90.84895181648837
 10
26.18554880261492
 20
91.3198611141403
 10
24.58780928473947
 20
91.7629534974615
 10
22.98258008196843
 20
92.17809399621966
 10
21.37035016266717
 20
92.56515615459735
 10
19.75161062768715
 20
92.92402206971153
 10
18.12685456077177
 20
93.25458242752808
 10
16.49657687835839
 20
93.55673653615976
 10
14.861274178821938
 20
93.83039235653808
 10
13.22144459120622
 20
94.07546653044919
 10
11.577587623489011
 20
94.29188440592559
 10
9.930204010427078
 20
94.47958005998596
 10
8.279795561027523
 20
94.63849631871582
 10
6.626865005691897
 20
94.7685847746833
 10
4.971915843079676
 20
94.86980580168452
 10
3.315452186737603
 20
94.94212856681409
 10
1.657978611541942
 20
94.98553103985716
 10
5.8170722959499274e-15
 20
95.0
 10
-1.6579786115419304
 20
94.98553103985716
 10
-3.315452186737591
 20
94.94212856681409
 10
-4.971915843079665
 20
94.86980580168452
 10
-6.626865005691906
 20
94.7685847746833
 10
-8.279795561027532
 20
94.63849631871582
 10
-9.930204010427088
 20
94.47958005998596
 10
-11.577587623489
 20
94.2918844059256
 10
-13.22144459120621
 20
94.07546653044919
 10
-14.861274178821928
 20
93.83039235653808
 10
-16.49657687835838
 20
93.55673653615976
 10
-18.126854560771758
 20
93.25458242752808
 10
-19.75161062768714
 20
92.92402206971154
 10
-21.37035016266718
 20
92.56515615459735
 10
-22.98258008196844
 20
92.17809399621966
 10
-24.587809284739482
 20
91.7629534974615
 10
-26.18554880261491
 20
91.3198611141403
 10
-27.775311948659983
 20
90.84895181648838
 10
-29.356614465619998
 20
90.3503690480396
 10
-30.92897467342988
 20
89.8242646819351
 10
-32.49191361593853
 20
89.2707989746613
 10
-34.04495520680353
 20
88.69014051723417
 10
-35.58762637451164
 20
88.0824661838448
 10
-37.11945720648101
 20
87.44796107798183
 10
-38.639981092201026
 20
86.78681847604709
 10
-40.148734865366436
 20
86.09923976848175
 10
-41.645258944962364
 20
85.38543439842086
 10
-43.129097475256934
 20
84.64561979789495
 10
-44.599798464659635
 20
83.88002132159805
 10
-46.056913923402014
 20
83.08887217824261
 10
-47.49999999999998
 20
82.27241335952168
 10
-48.92861711645516
 20
81.43089356670068
 10
-50.342330102154456
 20
80.56456913486048
 10
-51.74070832642757
 20
79.67370395481528
 10
-53.12332582972093
 20
78.75856939272896
 10
-54.48976145334939
 20
77.81944420745421
 10
-55.83959896778494
 20
76.85661446562001
 10
-57.1724271994446
 20
75.8703734544928
 10
-58.48784015593754
 20
74.8610215926386
 10
-59.78543714973454
 20
73.82886633841224
 10
-61.06482292022124
 20
72.7742220963029
 10
-62.32560775409818
 20
71.69741012116336
 10
-63.567407604091535
 20
70.59875842035245
 10
-64.78984420593734
 20
69.4786016538212
 10
-65.99254519360476
 20
68.33728103217186
 10
-67.175144212722
 20
67.17514421272202
 10
-68.33728103217186
 20
65.99254519360473
 10
-69.47860165382119
 20
64.78984420593737
 10
-70.59875842035242
 20
63.56740760409154
 10
-71.69741012116334
 20
62.32560775409819
 10
-72.7742220963029
 20
61.06482292022125
 10
-73.82886633841224
 20
59.785437149734555
 10
-74.86102159263858
 20
58.48784015593755
 10
-75.87037345449284
 20
57.17242719944458
 10
-76.85661446562
 20
55.83959896778496
 10
-77.81944420745423
 20
54.48976145334937
 10
-78.75856939272896
 20
53.123325829720955
 10
-79.67370395481528
 20
51.740708326427594
 10
-80.56456913486046
 20
50.34233010215446
 10
-81.43089356670066
 20
48.928617116455165
 10
-82.27241335952168
 20
47.49999999999999
 10
-83.0888721782426
 20
46.05691392340203
 10
-83.88002132159806
 20
44.599798464659614
 10
-84.64561979789494
 20
43.12909747525695
 10
-85.38543439842087
 20
41.64525894496234
 10
-86.09923976848174
 20
40.14873486536645
 10
-86.78681847604707
 20
38.63998109220104
 10
-87.44796107798183
 20
37.11945720648101
 10
-88.0824661838448
 20
35.587626374511665
 10
-88.69014051723417
 20
34.04495520680352
 10
-89.27079897466129
 20
32.49191361593854
 10
-89.8242646819351
 20
30.928974673429877
 10
-90.35036904803958
 20
29.356614465620012
 10
-90.84895181648838
 20
27.775311948659976
 10
-91.3198611141403
 20
26.185548802614925
 10
-91.76295349746148
 20
24.587809284739496
 10
-92.17809399621966
 20
22.982580081968436
 10
-92.56515615459733
 20
21.370350162667194
 10
-92.92402206971154
 20
19.751610627687135
 10
-93.25458242752808
 20
18.126854560771772
 10
-93.55673653615976
 20
16.496576878358375
 10
-93.83039235653808
 20
14.861274178821944
 10
-94.07546653044919
 20
13.221444591206206
 10
-94.29188440592559
 20
11.577587623489016
 10
-94.47958005998596
 20
9.930204010427104
 10
-94.63849631871582
 20
8.279795561027528
 10
-94.7685847746833
 20
6.626865005691925
 10
-94.86980580168452
 20
4.971915843079661
 10
-94.94212856681409
 20
3.3154521867376086
 10
-94.98553103985716
 20
1.6579786115419266
 10
-95.0
 20
1.1634144591899855e-14
 10
-94.98553103985716
 20
-1.6579786115419455
 10
-94.94212856681409
 20
-3.3154521867375855
 10
-94.86980580168452
 20
-4.971915843079638
 10
-94.7685847746833
 20
-6.626865005691901
 10
-94.63849631871582
 20
-8.279795561027505
 10
-94.47958005998596
 20
-9.930204010427083
 10
-94.2918844059256
 20
-11.577587623488995
 10
-94.07546653044918
 20
-13.221444591206225
 10
-93.83039235653808
 20
-14.861274178821919
 10
-93.55673653615976
 20
-16.496576878358393
 10
-93.25458242752808
 20
-18.126854560771747
 10
-92.92402206971153
 20
-19.751610627687153
 10
-92.56515615459735
 20
-21.370350162667172
 10
-92.17809399621966
 20
-22.982580081968415
 10
-91.7629534974615
 20
-24.587809284739475
 10
-91.3198611141403
 20
-26.185548802614903
 10
-90.84895181648837
 20
-27.775311948659994
 10
-90.3503690480396
 20
-29.35661446561999
 10
-89.82426468193509
 20
-30.92897467342989
 10
-89.2707989746613
 20
-32.49191361593852
 10
-88.69014051723417
 20
-34.04495520680354
 10
-88.0824661838448
 20
-35.58762637451164
 10
-87.44796107798183
 20
-37.11945720648099
 10
-86.78681847604709
 20
-38.63998109220102
 10
-86.09923976848175
 20
-40.14873486536643
 10
-85.38543439842086
 20
-41.64525894496236
 10
-84.64561979789495
 20
-43.129097475256934
 10
-83.88002132159805
 20
-44.599798464659635
 10
-83.08887217824261
 20
-46.05691392340201
 10
-82.27241335952166
 20
-47.50000000000001
 10
-81.43089356670068
 20
-48.92861711645514
 10
-80.56456913486048
 20
-50.342330102154456
 10
-79.67370395481528
 20
-51.74070832642757
 10
-78.75856939272897
 20
-53.12332582972093
 10
-77.81944420745423
 20
-54.48976145334939
 10
-76.85661446562001
 20
-55.83959896778494
 10
-75.87037345449282
 20
-57.1724271994446
 10
-74.8610215926386
 20
-58.487840155937526
 10
-73.82886633841223
 20
-59.78543714973458
 10
-72.7742220963029
 20
-61.06482292022123
 10
-71.69741012116336
 20
-62.32560775409817
 10
-70.59875842035245
 20
-63.567407604091535
 10
-69.4786016538212
 20
-64.78984420593734
 10
-68.33728103217186
 20
-65.99254519360476
 10
-67.17514421272203
 20
-67.175144212722
 10
-65.99254519360474
 20
-68.33728103217186
 10
-64.78984420593737
 20
-69.47860165382119
 10
-63.56740760409152
 20
-70.59875842035247
 10
-62.32560775409819
 20
-71.69741012116334
 10
-61.06482292022125
 20
-72.7742220963029
 10
-59.78543714973459
 20
-73.8288663384122
 10
-58.48784015593752
 20
-74.86102159263861
 10
-57.172427199444584
 20
-75.87037345449282
 10
-55.83959896778496
 20
-76.85661446562
 10
-54.48976145334941
 20
-77.8194442074542
 10
-53.123325829720926
 20
-78.75856939272897
 10
-51.740708326427566
 20
-79.67370395481528
 10
-50.34233010215448
 20
-80.56456913486046
 10
-48.92861711645518
 20
-81.43089356670065
 10
-47.50000000000004
 20
-82.27241335952165
 10
-46.056913923402
 20
-83.08887217824261
 10
-44.59979846465962
 20
-83.88002132159806
 10
-43.129097475256955
 20
-84.64561979789494
 10
-41.645258944962386
 20
-85.38543439842084
 10
-40.14873486536642
 20
-86.09923976848175
 10
-38.63998109220101
 20
-86.78681847604709
 10
-37.119457206481016
 20
-87.44796107798183
 10
-35.587626374511665
 20
-88.0824661838448
 10
-34.044955206803564
 20
-88.69014051723416
 10
-32.491913615938515
 20
-89.2707989746613
 10
-30.92897467342988
 20
-89.8242646819351
 10
-29.35661446562002
 20
-90.35036904803958
 10
-27.775311948660026
 20
-90.84895181648835
 10
-26.185548802614893
 20
-91.31986111414031
 10
-24.58780928473946
 20
-91.7629534974615
 10
-22.98258008196844
 20
-92.17809399621966
 10
-21.3703501626672
 20
-92.56515615459733
 10
-19.751610627687178
 20
-92.92402206971153
 10
-18.126854560771736
 20
-93.25458242752808
 10
-16.496576878358383
 20
-93.55673653615976
 10
-14.86127417882195
 20
-93.83039235653808
 10
-13.221444591206254
 20
-94.07546653044918
 10
-11.57758762348898
 20
-94.2918844059256
 10
-9.930204010427069
 20
-94.47958005998598
 10
-8.279795561027534
 20
-94.63849631871582
 10
-6.62686500569193
 20
-94.7685847746833
 10
-4.971915843079709
 20
-94.86980580168452
 10
-3.315452186737572
 20
-94.94212856681409
 10
-1.6579786115419324
 20
-94.98553103985716
 10
-1.745121688784978e-14
 20
-95.0
 10
1.6579786115418973
 20
-94.98553103985716
 10
3.315452186737622
 20
-94.94212856681409
 10
4.971915843079675
 20
-94.86980580168452
 10
6.626865005691895
 20
-94.7685847746833
 10
8.2797955610275
 20
-94.63849631871582
 10
9.930204010427033
 20
-94.47958005998598
 10
11.57758762348903
 20
-94.29188440592559
 10
13.22144459120622
 20
-94.07546653044919
 10
14.861274178821914
 20
-93.83039235653808
 10
16.496576878358347
 20
-93.55673653615978
 10
18.126854560771786
 20
-93.25458242752806
 10
19.751610627687146
 20
-92.92402206971153
 10
21.37035016266717
 20
-92.56515615459735
 10
22.982580081968408
 20
-92.17809399621967
 10
24.58780928473943
 20
-91.7629534974615
 10
26.185548802614942
 20
-91.31986111414028
 10
27.775311948659986
 20
-90.84895181648837
 10
29.356614465619987
 20
-90.3503690480396
 10
30.92897467342985
 20
-89.8242646819351
 10
32.49191361593856
 20
-89.27079897466129
 10
34.044955206803536
 20
-88.69014051723417
 10
35.587626374511636
 20
-88.0824661838448
 10
37.11945720648098
 20
-87.44796107798184
 10
38.639981092200976
 20
-86.7868184760471
 10
40.148734865366464
 20
-86.09923976848174
 10
41.64525894496235
 20
-85.38543439842087
 10
43.129097475256934
 20
-84.64561979789497
 10
44.59979846465959
 20
-83.88002132159808
 10
46.05691392340204
 20
-83.08887217824258
 10
47.50000000000001
 20
-82.27241335952166
 10
48.92861711645514
 20
-81.43089356670068
 10
50.34233010215444
 20
-80.56456913486049
 10
51.74070832642753
 20
-79.67370395481531
 10
53.12332582972097
 20
-78.75856939272896
 10
54.489761453349374
 20
-77.81944420745423
 10
55.83959896778493
 20
-76.85661446562001
 10
57.172427199444556
 20
-75.87037345449284
 10
58.48784015593756
 20
-74.86102159263856
 10
59.78543714973456
 20
-73.82886633841223
 10
61.06482292022123
 20
-72.77422209630292
 10
62.32560775409817
 20
-71.69741012116336
 10
63.56740760409149
 20
-70.59875842035248
 10
64.78984420593737
 20
-69.47860165382119
 10
65.99254519360474
 20
-68.33728103217186
 10
67.175144212722
 20
-67.17514421272203
 10
68.33728103217183
 20
-65.99254519360477
 10
69.47860165382122
 20
-64.78984420593733
 10
70.59875842035245
 20
-63.56740760409152
 10
71.69741012116333
 20
-62.3256077540982
 10
72.77422209630289
 20
-61.06482292022126
 10
73.8288663384122
 20
-59.78543714973459
 10
74.8610215926386
 20
-58.487840155937526
 10
75.87037345449282
 20
-57.172427199444584
 10
76.85661446562
 20
-55.839598967784966
 10
77.8194442074542
 20
-54.489761453349416
 10
78.75856939272897
 20
-53.123325829720926
 10
79.67370395481528
 20
-51.740708326427566
 10
80.56456913486046
 20
-50.34233010215448
 10
81.43089356670065
 20
-48.92861711645518
 10
82.27241335952165
 20
-47.50000000000004
 10
83.08887217824261
 20
-46.05691392340201
 10
83.88002132159805
 20
-44.59979846465963
 10
84.64561979789494
 20
-43.12909747525696
 10
85.38543439842084
 20
-41.64525894496239
 10
86.09923976848175
 20
-40.14873486536643
 10
86.78681847604709
 20
-38.63998109220101
 10
87.44796107798183
 20
-37.119457206481016
 10
88.0824661838448
 20
-35.58762637451167
 10
88.69014051723414
 20
-34.04495520680357
 10
89.2707989746613
 20
-32.491913615938515
 10
89.8242646819351
 20
-30.928974673429888
 10
90.35036904803958
 20
-29.356614465620023
 10
90.84895181648835
 20
-27.77531194866003
 10
91.3198611141403
 20
-26.1855488026149
 10
91.7629534974615
 20
-24.587809284739464
 10
92.17809399621966
 20
-22.982580081968447
 10
92.56515615459733
 20
-21.370350162667208
 10
92.92402206971153
 20
-19.75161062768719
 10
93.25458242752808
 20
-18.126854560771744
 10
93.55673653615976
 20
-16.496576878358386
 10
93.83039235653808
 20
-14.861274178821956
 10
94.07546653044918
 20
-13.221444591206259
 10
94.2918844059256
 20
-11.577587623488986
 10
94.47958005998596
 20
-9.930204010427074
 10
94.63849631871582
 20
-8.27979556102754
 10
94.7685847746833
 20
-6.626865005691935
 10
94.86980580168452
 20
-4.9719158430797155
 10
94.94212856681409
 20
-3.3154521867375784
 10
94.98553103985716
 20
-1.6579786115419382
 10
95.0
 20
0.0
  0
ENDSEC
  0
SECTION
  2
OBJECTS
  0
DICTIONARY
  5
A
330
0
100
AcDbDictionary
281
1
  3
ACAD_COLOR
350
B
  3
ACAD_GROUP
350
C
  3
ACAD_LAYOUT
350
D
  3
ACAD_MATERIAL
350
E
  3
ACAD_MLEADERSTYLE
350
F
  3
ACAD_MLINESTYLE
350
10
  3
ACAD_PLOTSETTINGS
350
11
  3
ACAD_PLOTSTYLENAME
350
12
  3
ACAD_SCALELIST
350
14
  3
ACAD_TABLESTYLE
350
15
  3
ACAD_VISUALSTYLE
350
16
  3
EZDXF_META
350
2D
  0
DICTIONARY
  5
B
330
A
100
AcDbDictionary
281
1
  0
DICTIONARY
  5
C
330
A
100
AcDbDictionary
281
1
  0
DICTIONARY
  5
D
330
A
100
AcDbDictionary
281
1
  3
Model
350
1A
  3
Layout1
350
1E
  0
DICTIONARY
  5
E
330
A
100
AcDbDictionary
281
1
  3
ByBlock
350
1F
  3
ByLayer
350
20
  3
Global
350
21
  0
DICTIONARY
  5
F
330
A
100
AcDbDictionary
281
1
  3
Standard
350
2C
  0
DICTIONARY
  5
10
330
A
100
AcDbDictionary
281
1
  3
Standard
350
22
  0
DICTIONARY
  5
11
330
A
100
AcDbDictionary
281
1
  0
ACDBDICTIONARYWDFLT
  5
12
330
A
100
AcDbDictionary
281
1
  3
Normal
350
13
100
AcDbDictionaryWithDefault
340
13
  0
ACDBPLACEHOLDER
  5
13
330
12
  0
DICTIONARY
  5
14
330
A
100
AcDbDictionary
281
1
  0
DICTIONARY
  5
15
330
A
100
AcDbDictionary
281
1
  0
DICTIONARY
  5
16
330
A
100
AcDbDictionary
281
1
  0
LAYOUT
  5
1A
330
D
100
AcDbPlotSettings
  1

  4
A3
  6

 40
7.5
 41
20.0
 42
7.5
 43
20.0
 44
420.0
 45
297.0
 46
0.0
 47
0.0
 48
0.0
 49
0.0
140
0.0
141
0.0
142
1.0
143
1.0
 70
1024
 72
1
 73
0
 74
5
  7

 75
16
 76
0
 77
2
 78
300
147
1.0
148
0.0
149
0.0
100
AcDbLayout
  1
Model
 70
1
 71
0
 10
0.0
 20
0.0
 11
420.0
 21
297.0
 12
0.0
 22
0.0
 32
0.0
 14
1e+20
 24
1e+20
 34
1e+20
 15
-1e+20
 25
-1e+20
 35
-1e+20
146
0.0
 13
0.0
 23
0.0
 33
0.0
 16
1.0
 26
0.0
 36
0.0
 17
0.0
 27
1.0
 37
0.0
 76
1
330
17
  0
LAYOUT
  5
1E
330
D
100
AcDbPlotSettings
  1

  4
A3
  6

 40
7.5
 41
20.0
 42
7.5
 43
20.0
 44
420.0
 45
297.0
 46
0.0
 47
0.0
 48
0.0
 49
0.0
140
0.0
141
0.0
142
1.0
143
1.0
 70
0
 72
1
 73
0
 74
5
  7

 75
16
 76
0
 77
2
 78
300
147
1.0
148
0.0
149
0.0
100
AcDbLayout
  1
Layout1
 70
1
 71
1
 10
0.0
 20
0.0
 11
420.0
 21
297.0
 12
0.0
 22
0.0
 32
0.0
 14
1e+20
 24
1e+20
 34
1e+20
 15
-1e+20
 25
-1e+20
 35
-1e+20
146
0.0
 13
0.0
 23
0.0
 33
0.0
 16
1.0
 26
0.0
 36
0.0
 17
0.0
 27
1.0
 37
0.0
 76
1
330
1B
  0
MATERIAL
  5
1F
102
{ACAD_REACTORS
330
E
102
}
330
E
100
AcDbMaterial
  1
ByBlock
  2

 70
0
 40
1.0
 71
1
 41
1.0
 91
-1023410177
 42
1.0
 72
1
  3

 73
1
 74
1
 75
1
 44
0.5
 73
0
 45
1.0
 46
1.0
 77
1
  4

 78
1
 79
1
170
1
 48
1.0
171
1
  6

172
1
173
1
174
1
140
1.0
141
1.0
175
1
  7

176
1
177
1
178
1
143
1.0
179
1
  8

270
1
271
1
272
1
145
1.0
146
1.0
273
1
  9

274
1
275
1
276
1
 42
1.0
 72
1
  3

 73
1
 74
1
 75
1
 94
63
  0
MATERIAL
  5
20
102
{ACAD_REACTORS
330
E
102
}
330
E
100
AcDbMaterial
  1
ByLayer
  2

 70
0
 40
1.0
 71
1
 41
1.0
 91
-1023410177
 42
1.0
 72
1
  3

 73
1
 74
1
 75
1
 44
0.5
 73
0
 45
1.0
 46
1.0
 77
1
  4

 78
1
 79
1
170
1
 48
1.0
171
1
  6

172
1
173
1
174
1
140
1.0
141
1.0
175
1
  7

176
1
177
1
178
1
143
1.0
179
1
  8

270
1
271
1
272
1
145
1.0
146
1.0
273
1
  9

274
1
275
1
276
1
 42
1.0
 72
1
  3

 73
1
 74
1
 75
1
 94
63
  0
MATERIAL
  5
21
102
{ACAD_REACTORS
330
E
102
}
330
E
100
AcDbMaterial
  1
Global
  2

 70
0
 40
1.0
 71
1
 41
1.0
 91
-1023410177
 42
1.0
 72
1
  3

 73
1
 74
1
 75
1
 44
0.5
 73
0
 45
1.0
 46
1.0
 77
1
  4

 78
1
 79
1
170
1
 48
1.0
171
1
  6

172
1
173
1
174
1
140
1.0
141
1.0
175
1
  7

176
1
177
1
178
1
143
1.0
179
1
  8

270
1
271
1
272
1
145
1.0
146
1.0
273
1
  9

274
1
275
1
276
1
 42
1.0
 72
1
  3

 73
1
 74
1
 75
1
 94
63
  0
MLINESTYLE
  5
22
102
{ACAD_REACTORS
330
10
102
}
330
10
100
AcDbMlineStyle
  2
Standard
 70
0
  3

 62
256
 51
90.0
 52
90.0
 71
2
 49
0.5
 62
256
  6
BYLAYER
 49
-0.5
 62
256
  6
BYLAYER
  0
MLEADERSTYLE
  5
2C
102
{ACAD_REACTORS
330
F
102
}
330
F
100
AcDbMLeaderStyle
179
2
170
2
171
1
172
0
 90
2
 40
0.0
 41
0.0
173
1
 91
-1056964608
 92
-2
290
1
 42
2.0
291
1
 43
8.0
  3
Standard
 44
4.0
300

342
29
174
1
175
1
176
0
178
1
 93
-1056964608
 45
4.0
292
0
297
0
 46
4.0
 94
-1056964608
 47
1.0
 49
1.0
140
1.0
294
1
141
0.0
177
0
142
1.0
295
0
296
0
143
3.75
271
0
272
9
273
9
  0
DICTIONARY
  5
2D
330
A
100
AcDbDictionary
280
1
281
1
  3
CREATED_BY_EZDXF
350
2E
  3
WRITTEN_BY_EZDXF
350
32
  0
DICTIONARYVAR
  5
2E
330
2D
100
DictionaryVariables
280
0
  1
1.4.3 @ 2026-04-20T09:44:04.128559+00:00
  0
DICTIONARYVAR
  5
32
330
2D
100
DictionaryVariables
280
0
  1
1.4.3 @ 2026-04-20T09:44:04.157566+00:00
  0
ENDSEC
  0
EOF
