  0
SECTION
  2
HEADER
  9
$ACADVER
  1
AC1024
  9
$ACADMAINTVER
 70
6
  9
$DWGCODEPAGE
  3
ANSI_1252
  9
$LASTSAVEDBY
  1
ezdxf
  9
$INSBASE
 10
0.0
 20
0.0
 30
0.0
  9
$EXTMIN
 10
1e+20
 20
1e+20
 30
1e+20
  9
$EXTMAX
 10
-1e+20
 20
-1e+20
 30
-1e+20
  9
$LIMMIN
 10
0.0
 20
0.0
  9
$LIMMAX
 10
420.0
 20
297.0
  9
$ORTHOMODE
 70
0
  9
$REGENMODE
 70
1
  9
$FILLMODE
 70
1
  9
$QTEXTMODE
 70
0
  9
$MIRRTEXT
 70
1
  9
$LTSCALE
 40
1.0
  9
$ATTMODE
 70
1
  9
$TEXTSIZE
 40
2.5
  9
$TRACEWID
 40
1.0
  9
$TEXTSTYLE
  7
Standard
  9
$CLAYER
  8
0
  9
$CELTYPE
  6
ByLayer
  9
$CECOLOR
 62
256
  9
$CELTSCALE
 40
1.0
  9
$DISPSILH
 70
0
  9
$DIMSCALE
 40
1.0
  9
$DIMASZ
 40
2.5
  9
$DIMEXO
 40
0.625
  9
$DIMDLI
 40
3.75
  9
$DIMRND
 40
0.0
  9
$DIMDLE
 40
0.0
  9
$DIMEXE
 40
1.25
  9
$DIMTP
 40
0.0
  9
$DIMTM
 40
0.0
  9
$DIMTXT
 40
2.5
  9
$DIMCEN
 40
2.5
  9
$DIMTSZ
 40
0.0
  9
$DIMTOL
 70
0
  9
$DIMLIM
 70
0
  9
$DIMTIH
 70
0
  9
$DIMTOH
 70
0
  9
$DIMSE1
 70
0
  9
$DIMSE2
 70
0
  9
$DIMTAD
 70
1
  9
$DIMZIN
 70
8
  9
$DIMBLK
  1

  9
$DIMASO
 70
1
  9
$DIMSHO
 70
1
  9
$DIMPOST
  1

  9
$DIMAPOST
  1

  9
$DIMALT
 70
0
  9
$DIMALTD
 70
3
  9
$DIMALTF
 40
0.03937007874
  9
$DIMLFAC
 40
1.0
  9
$DIMTOFL
 70
1
  9
$DIMTVP
 40
0.0
  9
$DIMTIX
 70
0
  9
$DIMSOXD
 70
0
  9
$DIMSAH
 70
0
  9
$DIMBLK1
  1

  9
$DIMBLK2
  1

  9
$DIMSTYLE
  2
ISO-25
  9
$DIMCLRD
 70
0
  9
$DIMCLRE
 70
0
  9
$DIMCLRT
 70
0
  9
$DIMTFAC
 40
1.0
  9
$DIMGAP
 40
0.625
  9
$DIMJUST
 70
0
  9
$DIMSD1
 70
0
  9
$DIMSD2
 70
0
  9
$DIMTOLJ
 70
0
  9
$DIMTZIN
 70
8
  9
$DIMALTZ
 70
0
  9
$DIMALTTZ
 70
0
  9
$DIMUPT
 70
0
  9
$DIMDEC
 70
2
  9
$DIMTDEC
 70
2
  9
$DIMALTU
 70
2
  9
$DIMALTTD
 70
3
  9
$DIMTXSTY
  7
Standard
  9
$DIMAUNIT
 70
0
  9
$DIMADEC
 70
0
  9
$DIMALTRND
 40
0.0
  9
$DIMAZIN
 70
0
  9
$DIMDSEP
 70
44
  9
$DIMATFIT
 70
3
  9
$DIMFRAC
 70
0
  9
$DIMLDRBLK
  1

  9
$DIMLUNIT
 70
2
  9
$DIMLWD
 70
-2
  9
$DIMLWE
 70
-2
  9
$DIMTMOVE
 70
0
  9
$DIMFXL
 40
1.0
  9
$DIMFXLON
 70
0
  9
$DIMJOGANG
 40
0.785398163397
  9
$DIMTFILL
 70
0
  9
$DIMTFILLCLR
 70
0
  9
$DIMARCSYM
 70
0
  9
$DIMLTYPE
  6

  9
$DIMLTEX1
  6

  9
$DIMLTEX2
  6

  9
$DIMTXTDIRECTION
 70
0
  9
$LUNITS
 70
2
  9
$LUPREC
 70
4
  9
$SKETCHINC
 40
1.0
  9
$FILLETRAD
 40
10.0
  9
$AUNITS
 70
0
  9
$AUPREC
 70
2
  9
$MENU
  1
.
  9
$ELEVATION
 40
0.0
  9
$PELEVATION
 40
0.0
  9
$THICKNESS
 40
0.0
  9
$LIMCHECK
 70
0
  9
$CHAMFERA
 40
0.0
  9
$CHAMFERB
 40
0.0
  9
$CHAMFERC
 40
0.0
  9
$CHAMFERD
 40
0.0
  9
$SKPOLY
 70
0
  9
$TDCREATE
 40
2461151.4133796296
  9
$TDUCREATE
 40
2458532.153996898
  9
$TDUPDATE
 40
2461151.4133796296
  9
$TDUUPDATE
 40
2458532.1544311
  9
$TDINDWG
 40
0.0
  9
$TDUSRTIMER
 40
0.0
  9
$USRTIMER
 70
1
  9
$ANGBASE
 50
0.0
  9
$ANGDIR
 70
0
  9
$PDMODE
 70
0
  9
$PDSIZE
 40
0.0
  9
$PLINEWID
 40
0.0
  9
$SPLFRAME
 70
0
  9
$SPLINETYPE
 70
6
  9
$SPLINESEGS
 70
8
  9
$HANDSEED
  5
33
  9
$SURFTAB1
 70
6
  9
$SURFTAB2
 70
6
  9
$SURFTYPE
 70
6
  9
$SURFU
 70
6
  9
$SURFV
 70
6
  9
$UCSBASE
  2

  9
$UCSNAME
  2

  9
$UCSORG
 10
0.0
 20
0.0
 30
0.0
  9
$UCSXDIR
 10
1.0
 20
0.0
 30
0.0
  9
$UCSYDIR
 10
0.0
 20
1.0
 30
0.0
  9
$UCSORTHOREF
  2

  9
$UCSORTHOVIEW
 70
0
  9
$UCSORGTOP
 10
0.0
 20
0.0
 30
0.0
  9
$UCSORGBOTTOM
 10
0.0
 20
0.0
 30
0.0
  9
$UCSORGLEFT
 10
0.0
 20
0.0
 30
0.0
  9
$UCSORGRIGHT
 10
0.0
 20
0.0
 30
0.0
  9
$UCSORGFRONT
 10
0.0
 20
0.0
 30
0.0
  9
$UCSORGBACK
 10
0.0
 20
0.0
 30
0.0
  9
$PUCSBASE
  2

  9
$PUCSNAME
  2

  9
$PUCSORG
 10
0.0
 20
0.0
 30
0.0
  9
$PUCSXDIR
 10
1.0
 20
0.0
 30
0.0
  9
$PUCSYDIR
 10
0.0
 20
1.0
 30
0.0
  9
$PUCSORTHOREF
  2

  9
$PUCSORTHOVIEW
 70
0
  9
$PUCSORGTOP
 10
0.0
 20
0.0
 30
0.0
  9
$PUCSORGBOTTOM
 10
0.0
 20
0.0
 30
0.0
  9
$PUCSORGLEFT
 10
0.0
 20
0.0
 30
0.0
  9
$PUCSORGRIGHT
 10
0.0
 20
0.0
 30
0.0
  9
$PUCSORGFRONT
 10
0.0
 20
0.0
 30
0.0
  9
$PUCSORGBACK
 10
0.0
 20
0.0
 30
0.0
  9
$USERI1
 70
0
  9
$USERI2
 70
0
  9
$USERI3
 70
0
  9
$USERI4
 70
0
  9
$USERI5
 70
0
  9
$USERR1
 40
0.0
  9
$USERR2
 40
0.0
  9
$USERR3
 40
0.0
  9
$USERR4
 40
0.0
  9
$USERR5
 40
0.0
  9
$WORLDVIEW
 70
1
  9
$SHADEDGE
 70
3
  9
$SHADEDIF
 70
70
  9
$TILEMODE
 70
1
  9
$MAXACTVP
 70
64
  9
$PINSBASE
 10
0.0
 20
0.0
 30
0.0
  9
$PLIMCHECK
 70
0
  9
$PEXTMIN
 10
1e+20
 20
1e+20
 30
1e+20
  9
$PEXTMAX
 10
-1e+20
 20
-1e+20
 30
-1e+20
  9
$PLIMMIN
 10
0.0
 20
0.0
  9
$PLIMMAX
 10
420.0
 20
297.0
  9
$UNITMODE
 70
0
  9
$VISRETAIN
 70
1
  9
$PLINEGEN
 70
0
  9
$PSLTSCALE
 70
1
  9
$TREEDEPTH
 70
3020
  9
$CMLSTYLE
  2
Standard
  9
$CMLJUST
 70
0
  9
$CMLSCALE
 40
20.0
  9
$PROXYGRAPHICS
 70
1
  9
$MEASUREMENT
 70
1
  9
$CELWEIGHT
370
-1
  9
$ENDCAPS
280
0
  9
$JOINSTYLE
280
0
  9
$LWDISPLAY
290
0
  9
$INSUNITS
 70
6
  9
$HYPERLINKBASE
  1

  9
$STYLESHEET
  1

  9
$XEDIT
290
1
  9
$CEPSNTYPE
380
0
  9
$PSTYLEMODE
290
1
  9
$FINGERPRINTGUID
  2
{C001A4B1-B195-4327-AAAC-58D0FCDCFAD6}
  9
$VERSIONGUID
  2
{993820A4-B0F4-4BCF-B7D7-0D56FCCAB217}
  9
$EXTNAMES
290
1
  9
$PSVPSCALE
 40
0.0
  9
$OLESTARTUP
290
0
  9
$SORTENTS
280
127
  9
$INDEXCTL
280
0
  9
$HIDETEXT
280
1
  9
$XCLIPFRAME
280
1
  9
$HALOGAP
280
0
  9
$OBSCOLOR
 70
257
  9
$OBSLTYPE
280
0
  9
$INTERSECTIONDISPLAY
280
0
  9
$INTERSECTIONCOLOR
 70
257
  9
$DIMASSOC
280
2
  9
$PROJECTNAME
  1

  9
$CAMERADISPLAY
290
0
  9
$LENSLENGTH
 40
50.0
  9
$CAMERAHEIGHT
 40
0.0
  9
$STEPSPERSEC
 40
24.0
  9
$STEPSIZE
 40
100.0
  9
$3DDWFPREC
 40
2.0
  9
$PSOLWIDTH
 40
0.005
  9
$PSOLHEIGHT
 40
0.08
  9
$LOFTANG1
 40
1.570796326795
  9
$LOFTANG2
 40
1.570796326795
  9
$LOFTMAG1
 40
0.0
  9
$LOFTMAG2
 40
0.0
  9
$LOFTPARAM
 70
7
  9
$LOFTNORMALS
280
1
  9
$LATITUDE
 40
37.795
  9
$LONGITUDE
 40
-122.394
  9
$NORTHDIRECTION
 40
0.0
  9
$TIMEZONE
 70
-8000
  9
$LIGHTGLYPHDISPLAY
280
1
  9
$TILEMODELIGHTSYNCH
280
1
  9
$CMATERIAL
347
20
  9
$SOLIDHIST
280
0
  9
$SHOWHIST
280
1
  9
$DWFFRAME
280
2
  9
$DGNFRAME
280
2
  9
$REALWORLDSCALE
290
1
  9
$INTERFERECOLOR
 62
256
  9
$CSHADOW
280
0
  9
$SHADOWPLANELOCATION
 40
0.0
  0
ENDSEC
  0
SECTION
  2
CLASSES
  0
CLASS
  1
ACDBDICTIONARYWDFLT
  2
AcDbDictionaryWithDefault
  3
ObjectDBX Classes
 90
0
 91
0
280
0
281
0
  0
CLASS
  1
SUN
  2
AcDbSun
  3
SCENEOE
 90
1153
 91
0
280
0
281
0
  0
CLASS
  1
VISUALSTYLE
  2
AcDbVisualStyle
  3
ObjectDBX Classes
 90
4095
 91
0
280
0
281
0
  0
CLASS
  1
MATERIAL
  2
AcDbMaterial
  3
ObjectDBX Classes
 90
1153
 91
0
280
0
281
0
  0
CLASS
  1
SCALE
  2
AcDbScale
  3
ObjectDBX Classes
 90
1153
 91
0
280
0
281
0
  0
CLASS
  1
TABLESTYLE
  2
AcDbTableStyle
  3
ObjectDBX Classes
 90
4095
 91
0
280
0
281
0
  0
CLASS
  1
MLEADERSTYLE
  2
AcDbMLeaderStyle
  3
ACDB_MLEADERSTYLE_CLASS
 90
4095
 91
0
280
0
281
0
  0
CLASS
  1
DICTIONARYVAR
  2
AcDbDictionaryVar
  3
ObjectDBX Classes
 90
0
 91
0
280
0
281
0
  0
CLASS
  1
CELLSTYLEMAP
  2
AcDbCellStyleMap
  3
ObjectDBX Classes
 90
1152
 91
0
280
0
281
0
  0
CLASS
  1
MENTALRAYRENDERSETTINGS
  2
AcDbMentalRayRenderSettings
  3
SCENEOE
 90
1024
 91
0
280
0
281
0
  0
CLASS
  1
ACDBDETAILVIEWSTYLE
  2
AcDbDetailViewStyle
  3
ObjectDBX Classes
 90
1025
 91
0
280
0
281
0
  0
CLASS
  1
ACDBSECTIONVIEWSTYLE
  2
AcDbSectionViewStyle
  3
ObjectDBX Classes
 90
1025
 91
0
280
0
281
0
  0
CLASS
  1
RASTERVARIABLES
  2
AcDbRasterVariables
  3
ISM
 90
0
 91
0
280
0
281
0
  0
CLASS
  1
LAYOUT
  2
AcDbLayout
  3
ObjectDBX Classes
 90
0
 91
0
280
0
281
0
  0
CLASS
  1
ACDBPLACEHOLDER
  2
AcDbPlaceHolder
  3
ObjectDBX Classes
 90
0
 91
0
280
0
281
0
  0
ENDSEC
  0
SECTION
  2
TABLES
  0
TABLE
  2
VPORT
  5
8
330
0
100
AcDbSymbolTable
 70
1
  0
VPORT
  5
23
330
8
100
AcDbSymbolTableRecord
100
AcDbViewportTableRecord
  2
*Active
 70
0
 10
0.0
 20
0.0
 11
1.0
 21
1.0
 12
0.0
 22
0.0
 13
0.0
 23
0.0
 14
0.5
 24
0.5
 15
0.5
 25
0.5
 16
0.0
 26
0.0
 36
1.0
 17
0.0
 27
0.0
 37
0.0
 40
1000.0
 41
1.34
 42
50.0
 43
0.0
 44
0.0
 50
0.0
 51
0.0
 71
0
 72
1000
 73
1
 74
3
 75
0
 76
0
 77
0
 78
0
281
0
 65
0
146
0.0
  0
ENDTAB
  0
TABLE
  2
LTYPE
  5
2
330
0
100
AcDbSymbolTable
 70
3
  0
LTYPE
  5
24
330
2
100
AcDbSymbolTableRecord
100
AcDbLinetypeTableRecord
  2
ByBlock
 70
0
  3

 72
65
 73
0
 40
0.0
  0
LTYPE
  5
25
330
2
100
AcDbSymbolTableRecord
100
AcDbLinetypeTableRecord
  2
ByLayer
 70
0
  3

 72
65
 73
0
 40
0.0
  0
LTYPE
  5
26
330
2
100
AcDbSymbolTableRecord
100
AcDbLinetypeTableRecord
  2
Continuous
 70
0
  3

 72
65
 73
0
 40
0.0
  0
ENDTAB
  0
TABLE
  2
LAYER
  5
1
330
0
100
AcDbSymbolTable
 70
2
  0
LAYER
  5
27
330
1
100
AcDbSymbolTableRecord
100
AcDbLayerTableRecord
  2
0
 70
0
 62
7
  6
Continuous
370
-3
390
13
347
21
  0
LAYER
  5
28
330
1
100
AcDbSymbolTableRecord
100
AcDbLayerTableRecord
  2
Defpoints
 70
0
 62
7
  6
Continuous
290
0
370
-3
390
13
347
21
  0
ENDTAB
  0
TABLE
  2
STYLE
  5
5
330
0
100
AcDbSymbolTable
 70
1
  0
STYLE
  5
29
330
5
100
AcDbSymbolTableRecord
100
AcDbTextStyleTableRecord
  2
Standard
 70
0
 40
0.0
 41
1.0
 50
0.0
 71
0
 42
2.5
  3
txt
  4

  0
ENDTAB
  0
TABLE
  2
VIEW
  5
7
330
0
100
AcDbSymbolTable
 70
0
  0
ENDTAB
  0
TABLE
  2
UCS
  5
6
330
0
100
AcDbSymbolTable
 70
0
  0
ENDTAB
  0
TABLE
  2
APPID
  5
3
330
0
100
AcDbSymbolTable
 70
3
  0
APPID
  5
2A
330
3
100
AcDbSymbolTableRecord
100
AcDbRegAppTableRecord
  2
ACAD
 70
0
  0
APPID
  5
30
330
3
100
AcDbSymbolTableRecord
100
AcDbRegAppTableRecord
  2
HATCHBACKGROUNDCOLOR
 70
0
  0
APPID
  5
31
330
3
100
AcDbSymbolTableRecord
100
AcDbRegAppTableRecord
  2
EZDXF
 70
0
  0
ENDTAB
  0
TABLE
  2
DIMSTYLE
  5
4
330
0
100
AcDbSymbolTable
 70
1
100
AcDbDimStyleTable
  0
DIMSTYLE
105
2B
330
4
100
AcDbSymbolTableRecord
100
AcDbDimStyleTableRecord
  2
Standard
 70
0
 40
1.0
 41
2.5
 42
0.625
 43
3.75
 44
1.25
 45
0.0
 46
0.0
 47
0.0
 48
0.0
 49
2.5
140
2.5
141
2.5
142
0.0
143
0.03937007874
144
1.0
145
0.0
146
1.0
147
0.625
148
0.0
 69
0
 70
0
 71
0
 72
0
 73
0
 74
0
 75
0
 76
0
 77
1
 78
8
 79
3
170
0
171
3
172
1
173
0
174
0
175
0
176
0
177
0
178
0
179
2
271
2
272
2
273
2
274
3
275
0
276
0
277
2
278
44
279
0
280
0
281
0
282
0
283
0
284
8
285
0
286
0
288
0
289
3
290
0
371
-2
372
-2
  0
ENDTAB
  0
TABLE
  2
BLOCK_RECORD
  5
9
330
0
100
AcDbSymbolTable
 70
2
  0
BLOCK_RECORD
  5
17
330
9
100
AcDbSymbolTableRecord
100
AcDbBlockTableRecord
  2
*Model_Space
340
1A
 70
0
280
1
281
0
  0
BLOCK_RECORD
  5
1B
330
9
100
AcDbSymbolTableRecord
100
AcDbBlockTableRecord
  2
*Paper_Space
340
1E
 70
0
280
1
281
0
  0
ENDTAB
  0
ENDSEC
  0
SECTION
  2
BLOCKS
  0
BLOCK
  5
18
330
17
100
AcDbEntity
  8
0
100
AcDbBlockBegin
  2
*Model_Space
 70
0
 10
0.0
 20
0.0
 30
0.0
  3
*Model_Space
  1

  0
ENDBLK
  5
19
330
17
100
AcDbEntity
  8
0
100
AcDbBlockEnd
  0
BLOCK
  5
1C
330
1B
100
AcDbEntity
  8
0
100
AcDbBlockBegin
  2
*Paper_Space
 70
0
 10
0.0
 20
0.0
 30
0.0
  3
*Paper_Space
  1

  0
ENDBLK
  5
1D
330
1B
100
AcDbEntity
  8
0
100
AcDbBlockEnd
  0
ENDSEC
  0
SECTION
  2
ENTITIES
  0
LWPOLYLINE
  5
2F
330
17
100
AcDbEntity
  8
PERFIL
 62
1
100
AcDbPolyline
 90
361
 70
0
 10
45.0
 20
0.0
 10
44.99314628203761
 20
0.785358289677758
 10
44.972587215859306
 20
1.5704773516125436
 10
44.93832906395582
 20
2.3551180309324726
 10
44.89038226169209
 20
3.1390413184856385
 10
44.82876141412855
 20
3.9220084236446175
 10
44.7534852915723
 20
4.703780847044406
 10
44.66457682385949
 20
5.484120453231636
 10
44.56206309337067
 20
6.262789543202945
 10
44.4459753267812
 20
7.0395509268103895
 10
44.31634888554936
 20
7.814167995011865
 10
44.173223255144876
 20
8.586404791944517
 10
44.016642033021256
 20
9.35602608679917
 10
43.84665291533559
 20
10.122797445473925
 10
43.66330768241984
 20
10.886485301985047
 10
43.466662183008076
 20
11.646857029613432
 10
43.25677631722435
 20
12.403681011764963
 10
43.033714018336596
 20
13.156726712523154
 10
42.79754323328191
 20
13.905764746872633
 10
42.54833590196926
 20
14.65056695057205
 10
42.28616793536588
 20
15.390906449655093
 10
42.01111919237408
 20
16.12655772953851
 10
41.723273455505435
 20
16.85729670371604
 10
41.42271840535982
 20
17.58290078201732
 10
41.10954559391704
 20
18.30314893841101
 10
40.783850416649244
 20
19.017821778331474
 10
40.44573208346252
 20
19.726701605508485
 10
40.09529358847656
 20
20.429572488279604
 10
39.73264167865172
 20
21.126220325365086
 10
39.35788682127281
 20
21.81643291108517
 10
38.97114317029974
 20
22.499999999999996
 10
38.572528531595054
 20
23.176713370952438
 10
38.16216432703917
 20
23.84636689049422
 10
37.740175557544084
 20
24.50875657567622
 10
37.30669076497687
 20
25.16368065618361
 10
36.86184199300463
 20
25.810939635797073
 10
36.405764746872634
 20
26.45033635316129
 10
35.93859795212818
 20
27.081676041842172
 10
35.460483912302486
 20
27.704766389654623
 10
34.97156826556369
 20
28.319417597242683
 10
34.47199994035401
 20
28.925442435894265
 10
33.96193111002474
 20
29.522656304572827
 10
33.44151714648274
 20
30.11087728614862
 10
32.91091657286267
 20
30.68992620281243
 10
32.3702910152393
 20
31.259626670654875
 10
31.81980515339464
 20
31.819805153394636
 10
31.259626670654875
 20
32.370291015239296
 10
30.68992620281243
 20
32.91091657286267
 10
30.11087728614862
 20
33.44151714648274
 10
29.522656304572827
 20
33.96193111002474
 10
28.925442435894272
 20
34.47199994035401
 10
28.319417597242687
 20
34.97156826556369
 10
27.704766389654623
 20
35.46048391230249
 10
27.081676041842176
 20
35.93859795212818
 10
26.45033635316129
 20
36.405764746872634
 10
25.810939635797077
 20
36.86184199300463
 10
25.163680656183605
 20
37.30669076497688
 10
24.50875657567622
 20
37.740175557544084
 10
23.84636689049422
 20
38.16216432703917
 10
23.176713370952438
 20
38.572528531595054
 10
22.500000000000004
 20
38.97114317029974
 10
21.81643291108517
 20
39.35788682127281
 10
21.12622032536509
 20
39.73264167865171
 10
20.429572488279607
 20
40.09529358847655
 10
19.726701605508485
 20
40.44573208346252
 10
19.017821778331474
 20
40.783850416649244
 10
18.30314893841101
 20
41.10954559391704
 10
17.58290078201732
 20
41.42271840535982
 10
16.857296703716038
 20
41.723273455505435
 10
16.12655772953852
 20
42.01111919237408
 10
15.390906449655096
 20
42.286167935365874
 10
14.650566950572054
 20
42.54833590196925
 10
13.905764746872634
 20
42.79754323328191
 10
13.156726712523154
 20
43.033714018336596
 10
12.403681011764963
 20
43.25677631722435
 10
11.646857029613432
 20
43.466662183008076
 10
10.886485301985045
 20
43.66330768241984
 10
10.122797445473921
 20
43.84665291533559
 10
9.356026086799176
 20
44.01664203302125
 10
8.58640479194452
 20
44.173223255144876
 10
7.814167995011869
 20
44.31634888554936
 10
7.039550926810391
 20
44.4459753267812
 10
6.262789543202946
 20
44.56206309337067
 10
5.484120453231637
 20
44.66457682385949
 10
4.703780847044405
 20
44.7534852915723
 10
3.922008423644616
 20
44.82876141412855
 10
3.1390413184856354
 20
44.89038226169209
 10
2.3551180309324784
 20
44.93832906395582
 10
1.5704773516125485
 20
44.972587215859306
 10
0.7853582896777619
 20
44.99314628203761
 10
2.7554552980815448e-15
 20
45.0
 10
-0.7853582896777564
 20
44.99314628203761
 10
-1.570477351612543
 20
44.972587215859306
 10
-2.355118030932473
 20
44.93832906395582
 10
-3.13904131848564
 20
44.89038226169209
 10
-3.9220084236446207
 20
44.82876141412855
 10
-4.70378084704441
 20
44.7534852915723
 10
-5.484120453231632
 20
44.66457682385949
 10
-6.262789543202941
 20
44.56206309337067
 10
-7.039550926810387
 20
44.4459753267812
 10
-7.814167995011863
 20
44.31634888554936
 10
-8.586404791944517
 20
44.173223255144876
 10
-9.35602608679917
 20
44.016642033021256
 10
-10.122797445473926
 20
43.84665291533559
 10
-10.88648530198505
 20
43.66330768241984
 10
-11.646857029613438
 20
43.466662183008076
 10
-12.403681011764958
 20
43.25677631722435
 10
-13.156726712523149
 20
43.033714018336596
 10
-13.90576474687263
 20
42.797543233281914
 10
-14.650566950572049
 20
42.54833590196926
 10
-15.390906449655093
 20
42.28616793536588
 10
-16.12655772953851
 20
42.01111919237408
 10
-16.85729670371604
 20
41.723273455505435
 10
-17.58290078201732
 20
41.42271840535981
 10
-18.303148938411013
 20
41.10954559391704
 10
-19.01782177833147
 20
40.78385041664925
 10
-19.726701605508488
 20
40.44573208346251
 10
-20.4295724882796
 20
40.09529358847656
 10
-21.12622032536509
 20
39.73264167865171
 10
-21.816432911085165
 20
39.357886821272814
 10
-22.49999999999999
 20
38.97114317029974
 10
-23.17671337095244
 20
38.572528531595054
 10
-23.846366890494217
 20
38.16216432703917
 10
-24.50875657567622
 20
37.74017555754408
 10
-25.1636806561836
 20
37.30669076497688
 10
-25.810939635797077
 20
36.861841993004624
 10
-26.450336353161287
 20
36.405764746872634
 10
-27.081676041842176
 20
35.93859795212817
 10
-27.704766389654623
 20
35.46048391230249
 10
-28.319417597242676
 20
34.9715682655637
 10
-28.925442435894272
 20
34.47199994035401
 10
-29.522656304572823
 20
33.96193111002474
 10
-30.11087728614862
 20
33.44151714648274
 10
-30.689926202812426
 20
32.910916572862675
 10
-31.25962667065488
 20
32.370291015239296
 10
-31.819805153394636
 20
31.81980515339464
 10
-32.3702910152393
 20
31.25962667065487
 10
-32.91091657286267
 20
30.689926202812437
 10
-33.44151714648273
 20
30.110877286148625
 10
-33.96193111002474
 20
29.522656304572827
 10
-34.471999940354
 20
28.925442435894276
 10
-34.97156826556369
 20
28.319417597242683
 10
-35.460483912302486
 20
27.70476638965463
 10
-35.938597952128184
 20
27.08167604184217
 10
-36.40576474687263
 20
26.450336353161298
 10
-36.86184199300464
 20
25.810939635797066
 10
-37.30669076497687
 20
25.16368065618361
 10
-37.74017555754408
 20
24.50875657567623
 10
-38.16216432703917
 20
23.84636689049422
 10
-38.57252853159505
 20
23.17671337095245
 10
-38.97114317029974
 20
22.499999999999996
 10
-39.35788682127281
 20
21.816432911085172
 10
-39.73264167865172
 20
21.126220325365082
 10
-40.09529358847655
 20
20.429572488279607
 10
-40.44573208346252
 20
19.726701605508477
 10
-40.783850416649244
 20
19.017821778331477
 10
-41.109545593917034
 20
18.30314893841102
 10
-41.42271840535982
 20
17.58290078201732
 10
-41.72327345550543
 20
16.857296703716052
 10
-42.01111919237408
 20
16.126557729538508
 10
-42.286167935365874
 20
15.3909064496551
 10
-42.54833590196926
 20
14.650566950572047
 10
-42.79754323328191
 20
13.905764746872638
 10
-43.033714018336596
 20
13.156726712523147
 10
-43.25677631722435
 20
12.403681011764965
 10
-43.46666218300807
 20
11.646857029613447
 10
-43.66330768241984
 20
10.886485301985047
 10
-43.84665291533558
 20
10.122797445473934
 10
-44.016642033021256
 20
9.356026086799169
 10
-44.173223255144876
 20
8.586404791944524
 10
-44.31634888554936
 20
7.8141679950118625
 10
-44.445975326781195
 20
7.039550926810394
 10
-44.56206309337067
 20
6.26278954320294
 10
-44.66457682385949
 20
5.48412045323164
 10
-44.7534852915723
 20
4.703780847044418
 10
-44.82876141412855
 20
3.922008423644619
 10
-44.89038226169209
 20
3.1390413184856487
 10
-44.93832906395582
 20
2.3551180309324713
 10
-44.972587215859306
 20
1.5704773516125514
 10
-44.99314628203761
 20
0.7853582896777548
 10
-45.0
 20
5.5109105961630896e-15
 10
-44.99314628203761
 20
-0.7853582896777637
 10
-44.972587215859306
 20
-1.5704773516125405
 10
-44.93832906395582
 20
-2.35511803093246
 10
-44.89038226169209
 20
-3.139041318485637
 10
-44.82876141412855
 20
-3.9220084236446073
 10
-44.7534852915723
 20
-4.703780847044407
 10
-44.66457682385949
 20
-5.484120453231629
 10
-44.56206309337066
 20
-6.262789543202948
 10
-44.4459753267812
 20
-7.039550926810383
 10
-44.31634888554936
 20
-7.814167995011871
 10
-44.173223255144876
 20
-8.586404791944512
 10
-44.01664203302125
 20
-9.356026086799178
 10
-43.84665291533559
 20
-10.122797445473925
 10
-43.66330768241984
 20
-10.886485301985038
 10
-43.466662183008076
 20
-11.646857029613436
 10
-43.25677631722435
 20
-12.403681011764954
 10
-43.033714018336596
 20
-13.156726712523154
 10
-42.797543233281914
 20
-13.905764746872627
 10
-42.54833590196925
 20
-14.650566950572054
 10
-42.28616793536588
 20
-15.39090644965509
 10
-42.01111919237408
 20
-16.12655772953852
 10
-41.723273455505435
 20
-16.85729670371604
 10
-41.42271840535982
 20
-17.582900782017308
 10
-41.10954559391704
 20
-18.30314893841101
 10
-40.78385041664925
 20
-19.017821778331466
 10
-40.44573208346251
 20
-19.726701605508485
 10
-40.09529358847656
 20
-20.4295724882796
 10
-39.73264167865171
 20
-21.12622032536509
 10
-39.357886821272814
 20
-21.816432911085162
 10
-38.97114317029974
 20
-22.500000000000004
 10
-38.572528531595054
 20
-23.176713370952438
 10
-38.16216432703917
 20
-23.846366890494217
 10
-37.740175557544084
 20
-24.50875657567622
 10
-37.306690764976885
 20
-25.1636806561836
 10
-36.86184199300463
 20
-25.810939635797077
 10
-36.40576474687264
 20
-26.450336353161287
 10
-35.93859795212818
 20
-27.081676041842176
 10
-35.46048391230249
 20
-27.70476638965462
 10
-34.97156826556368
 20
-28.319417597242694
 10
-34.47199994035401
 20
-28.925442435894265
 10
-33.96193111002474
 20
-29.522656304572816
 10
-33.44151714648274
 20
-30.11087728614862
 10
-32.910916572862675
 20
-30.689926202812426
 10
-32.370291015239296
 20
-31.25962667065488
 10
-31.819805153394647
 20
-31.819805153394636
 10
-31.259626670654875
 20
-32.3702910152393
 10
-30.689926202812437
 20
-32.91091657286267
 10
-30.110877286148614
 20
-33.441517146482745
 10
-29.522656304572827
 20
-33.96193111002474
 10
-28.925442435894276
 20
-34.471999940354
 10
-28.3194175972427
 20
-34.971568265563675
 10
-27.704766389654612
 20
-35.46048391230249
 10
-27.081676041842172
 20
-35.93859795212818
 10
-26.450336353161298
 20
-36.40576474687263
 10
-25.810939635797087
 20
-36.861841993004624
 10
-25.163680656183594
 20
-37.306690764976885
 10
-24.508756575676212
 20
-37.740175557544084
 10
-23.846366890494224
 20
-38.16216432703917
 10
-23.176713370952452
 20
-38.57252853159505
 10
-22.50000000000002
 20
-38.971143170299726
 10
-21.81643291108516
 20
-39.35788682127282
 10
-21.126220325365082
 20
-39.73264167865172
 10
-20.42957248827961
 20
-40.09529358847655
 10
-19.7267016055085
 20
-40.44573208346251
 10
-19.017821778331463
 20
-40.78385041664925
 10
-18.303148938411006
 20
-41.10954559391704
 10
-17.582900782017322
 20
-41.42271840535981
 10
-16.857296703716052
 20
-41.72327345550543
 10
-16.126557729538533
 20
-42.011119192374075
 10
-15.390906449655084
 20
-42.28616793536588
 10
-14.650566950572049
 20
-42.54833590196926
 10
-13.90576474687264
 20
-42.79754323328191
 10
-13.15672671252317
 20
-43.03371401833659
 10
-12.40368101176495
 20
-43.25677631722436
 10
-11.646857029613429
 20
-43.466662183008076
 10
-10.88648530198505
 20
-43.66330768241984
 10
-10.122797445473937
 20
-43.84665291533558
 10
-9.35602608679919
 20
-44.01664203302125
 10
-8.586404791944508
 20
-44.173223255144876
 10
-7.814167995011865
 20
-44.31634888554936
 10
-7.039550926810397
 20
-44.445975326781195
 10
-6.262789543202962
 20
-44.56206309337066
 10
-5.484120453231623
 20
-44.66457682385949
 10
-4.703780847044401
 20
-44.753485291572304
 10
-3.922008423644621
 20
-44.82876141412855
 10
-3.139041318485651
 20
-44.89038226169209
 10
-2.355118030932494
 20
-44.93832906395582
 10
-1.5704773516125343
 20
-44.972587215859306
 10
-0.7853582896777574
 20
-44.99314628203761
 10
-8.266365894244634e-15
 20
-45.0
 10
0.7853582896777409
 20
-44.99314628203761
 10
1.5704773516125576
 20
-44.972587215859306
 10
2.3551180309324775
 20
-44.93832906395582
 10
3.139041318485635
 20
-44.890382261692096
 10
3.922008423644605
 20
-44.82876141412855
 10
4.703780847044384
 20
-44.753485291572304
 10
5.484120453231646
 20
-44.66457682385949
 10
6.262789543202946
 20
-44.56206309337067
 10
7.039550926810381
 20
-44.4459753267812
 10
7.814167995011848
 20
-44.31634888554937
 10
8.58640479194453
 20
-44.173223255144876
 10
9.356026086799174
 20
-44.01664203302125
 10
10.122797445473921
 20
-43.84665291533559
 10
10.886485301985035
 20
-43.66330768241985
 10
11.646857029613413
 20
-43.466662183008076
 10
12.403681011764972
 20
-43.25677631722434
 10
13.156726712523152
 20
-43.033714018336596
 10
13.905764746872626
 20
-42.797543233281914
 10
14.650566950572035
 20
-42.54833590196926
 10
15.390906449655105
 20
-42.286167935365874
 10
16.12655772953852
 20
-42.01111919237408
 10
16.857296703716038
 20
-41.723273455505435
 10
17.582900782017308
 20
-41.422718405359824
 10
18.303148938410988
 20
-41.10954559391705
 10
19.01782177833148
 20
-40.783850416649244
 10
19.726701605508485
 20
-40.44573208346252
 10
20.4295724882796
 20
-40.09529358847656
 10
21.126220325365068
 20
-39.73264167865172
 10
21.816432911085176
 20
-39.35788682127281
 10
22.500000000000004
 20
-38.97114317029974
 10
23.176713370952438
 20
-38.572528531595054
 10
23.84636689049421
 20
-38.16216432703918
 10
24.5087565756762
 20
-37.74017555754409
 10
25.163680656183615
 20
-37.30669076497687
 10
25.810939635797073
 20
-36.86184199300463
 10
26.45033635316128
 20
-36.40576474687264
 10
27.081676041842158
 20
-35.938597952128184
 10
27.704766389654633
 20
-35.46048391230248
 10
28.319417597242687
 20
-34.97156826556368
 10
28.925442435894265
 20
-34.47199994035402
 10
29.522656304572816
 20
-33.96193111002475
 10
30.1108772861486
 20
-33.44151714648276
 10
30.689926202812437
 20
-32.91091657286267
 10
31.259626670654875
 20
-32.3702910152393
 10
31.81980515339463
 20
-31.819805153394647
 10
32.37029101523929
 20
-31.259626670654892
 10
32.91091657286268
 20
-30.689926202812423
 10
33.44151714648274
 20
-30.110877286148614
 10
33.961931110024736
 20
-29.522656304572834
 10
34.471999940354
 20
-28.925442435894283
 10
34.971568265563675
 20
-28.3194175972427
 10
35.46048391230249
 20
-27.70476638965462
 10
35.93859795212818
 20
-27.081676041842172
 10
36.40576474687263
 20
-26.4503363531613
 10
36.861841993004624
 20
-25.81093963579709
 10
37.306690764976885
 20
-25.163680656183594
 10
37.740175557544084
 20
-24.508756575676212
 10
38.16216432703917
 20
-23.846366890494224
 10
38.57252853159505
 20
-23.176713370952452
 10
38.971143170299726
 20
-22.50000000000002
 10
39.357886821272814
 20
-21.816432911085162
 10
39.73264167865171
 20
-21.126220325365086
 10
40.09529358847655
 20
-20.429572488279614
 10
40.44573208346251
 20
-19.726701605508502
 10
40.78385041664925
 20
-19.017821778331466
 10
41.10954559391704
 20
-18.303148938411006
 10
41.42271840535981
 20
-17.582900782017326
 10
41.72327345550543
 20
-16.857296703716056
 10
42.01111919237407
 20
-16.126557729538536
 10
42.28616793536588
 20
-15.390906449655088
 10
42.54833590196926
 20
-14.65056695057205
 10
42.79754323328191
 20
-13.905764746872643
 10
43.03371401833659
 20
-13.156726712523172
 10
43.25677631722435
 20
-12.403681011764952
 10
43.466662183008076
 20
-11.64685702961343
 10
43.66330768241984
 20
-10.886485301985054
 10
43.84665291533558
 20
-10.12279744547394
 10
44.01664203302125
 20
-9.356026086799194
 10
44.173223255144876
 20
-8.58640479194451
 10
44.31634888554936
 20
-7.814167995011867
 10
44.445975326781195
 20
-7.0395509268104
 10
44.56206309337066
 20
-6.262789543202965
 10
44.66457682385949
 20
-5.4841204532316254
 10
44.7534852915723
 20
-4.703780847044404
 10
44.82876141412855
 20
-3.922008423644624
 10
44.89038226169209
 20
-3.1390413184856536
 10
44.93832906395582
 20
-2.3551180309324966
 10
44.972587215859306
 20
-1.570477351612537
 10
44.99314628203761
 20
-0.7853582896777602
 10
45.0
 20
0.0
  0
ENDSEC
  0
SECTION
  2
OBJECTS
  0
DICTIONARY
  5
A
330
0
100
AcDbDictionary
281
1
  3
ACAD_COLOR
350
B
  3
ACAD_GROUP
350
C
  3
ACAD_LAYOUT
350
D
  3
ACAD_MATERIAL
350
E
  3
ACAD_MLEADERSTYLE
350
F
  3
ACAD_MLINESTYLE
350
10
  3
ACAD_PLOTSETTINGS
350
11
  3
ACAD_PLOTSTYLENAME
350
12
  3
ACAD_SCALELIST
350
14
  3
ACAD_TABLESTYLE
350
15
  3
ACAD_VISUALSTYLE
350
16
  3
EZDXF_META
350
2D
  0
DICTIONARY
  5
B
330
A
100
AcDbDictionary
281
1
  0
DICTIONARY
  5
C
330
A
100
AcDbDictionary
281
1
  0
DICTIONARY
  5
D
330
A
100
AcDbDictionary
281
1
  3
Model
350
1A
  3
Layout1
350
1E
  0
DICTIONARY
  5
E
330
A
100
AcDbDictionary
281
1
  3
ByBlock
350
1F
  3
ByLayer
350
20
  3
Global
350
21
  0
DICTIONARY
  5
F
330
A
100
AcDbDictionary
281
1
  3
Standard
350
2C
  0
DICTIONARY
  5
10
330
A
100
AcDbDictionary
281
1
  3
Standard
350
22
  0
DICTIONARY
  5
11
330
A
100
AcDbDictionary
281
1
  0
ACDBDICTIONARYWDFLT
  5
12
330
A
100
AcDbDictionary
281
1
  3
Normal
350
13
100
AcDbDictionaryWithDefault
340
13
  0
ACDBPLACEHOLDER
  5
13
330
12
  0
DICTIONARY
  5
14
330
A
100
AcDbDictionary
281
1
  0
DICTIONARY
  5
15
330
A
100
AcDbDictionary
281
1
  0
DICTIONARY
  5
16
330
A
100
AcDbDictionary
281
1
  0
LAYOUT
  5
1A
330
D
100
AcDbPlotSettings
  1

  4
A3
  6

 40
7.5
 41
20.0
 42
7.5
 43
20.0
 44
420.0
 45
297.0
 46
0.0
 47
0.0
 48
0.0
 49
0.0
140
0.0
141
0.0
142
1.0
143
1.0
 70
1024
 72
1
 73
0
 74
5
  7

 75
16
 76
0
 77
2
 78
300
147
1.0
148
0.0
149
0.0
100
AcDbLayout
  1
Model
 70
1
 71
0
 10
0.0
 20
0.0
 11
420.0
 21
297.0
 12
0.0
 22
0.0
 32
0.0
 14
1e+20
 24
1e+20
 34
1e+20
 15
-1e+20
 25
-1e+20
 35
-1e+20
146
0.0
 13
0.0
 23
0.0
 33
0.0
 16
1.0
 26
0.0
 36
0.0
 17
0.0
 27
1.0
 37
0.0
 76
1
330
17
  0
LAYOUT
  5
1E
330
D
100
AcDbPlotSettings
  1

  4
A3
  6

 40
7.5
 41
20.0
 42
7.5
 43
20.0
 44
420.0
 45
297.0
 46
0.0
 47
0.0
 48
0.0
 49
0.0
140
0.0
141
0.0
142
1.0
143
1.0
 70
0
 72
1
 73
0
 74
5
  7

 75
16
 76
0
 77
2
 78
300
147
1.0
148
0.0
149
0.0
100
AcDbLayout
  1
Layout1
 70
1
 71
1
 10
0.0
 20
0.0
 11
420.0
 21
297.0
 12
0.0
 22
0.0
 32
0.0
 14
1e+20
 24
1e+20
 34
1e+20
 15
-1e+20
 25
-1e+20
 35
-1e+20
146
0.0
 13
0.0
 23
0.0
 33
0.0
 16
1.0
 26
0.0
 36
0.0
 17
0.0
 27
1.0
 37
0.0
 76
1
330
1B
  0
MATERIAL
  5
1F
102
{ACAD_REACTORS
330
E
102
}
330
E
100
AcDbMaterial
  1
ByBlock
  2

 70
0
 40
1.0
 71
1
 41
1.0
 91
-1023410177
 42
1.0
 72
1
  3

 73
1
 74
1
 75
1
 44
0.5
 73
0
 45
1.0
 46
1.0
 77
1
  4

 78
1
 79
1
170
1
 48
1.0
171
1
  6

172
1
173
1
174
1
140
1.0
141
1.0
175
1
  7

176
1
177
1
178
1
143
1.0
179
1
  8

270
1
271
1
272
1
145
1.0
146
1.0
273
1
  9

274
1
275
1
276
1
 42
1.0
 72
1
  3

 73
1
 74
1
 75
1
 94
63
  0
MATERIAL
  5
20
102
{ACAD_REACTORS
330
E
102
}
330
E
100
AcDbMaterial
  1
ByLayer
  2

 70
0
 40
1.0
 71
1
 41
1.0
 91
-1023410177
 42
1.0
 72
1
  3

 73
1
 74
1
 75
1
 44
0.5
 73
0
 45
1.0
 46
1.0
 77
1
  4

 78
1
 79
1
170
1
 48
1.0
171
1
  6

172
1
173
1
174
1
140
1.0
141
1.0
175
1
  7

176
1
177
1
178
1
143
1.0
179
1
  8

270
1
271
1
272
1
145
1.0
146
1.0
273
1
  9

274
1
275
1
276
1
 42
1.0
 72
1
  3

 73
1
 74
1
 75
1
 94
63
  0
MATERIAL
  5
21
102
{ACAD_REACTORS
330
E
102
}
330
E
100
AcDbMaterial
  1
Global
  2

 70
0
 40
1.0
 71
1
 41
1.0
 91
-1023410177
 42
1.0
 72
1
  3

 73
1
 74
1
 75
1
 44
0.5
 73
0
 45
1.0
 46
1.0
 77
1
  4

 78
1
 79
1
170
1
 48
1.0
171
1
  6

172
1
173
1
174
1
140
1.0
141
1.0
175
1
  7

176
1
177
1
178
1
143
1.0
179
1
  8

270
1
271
1
272
1
145
1.0
146
1.0
273
1
  9

274
1
275
1
276
1
 42
1.0
 72
1
  3

 73
1
 74
1
 75
1
 94
63
  0
MLINESTYLE
  5
22
102
{ACAD_REACTORS
330
10
102
}
330
10
100
AcDbMlineStyle
  2
Standard
 70
0
  3

 62
256
 51
90.0
 52
90.0
 71
2
 49
0.5
 62
256
  6
BYLAYER
 49
-0.5
 62
256
  6
BYLAYER
  0
MLEADERSTYLE
  5
2C
102
{ACAD_REACTORS
330
F
102
}
330
F
100
AcDbMLeaderStyle
179
2
170
2
171
1
172
0
 90
2
 40
0.0
 41
0.0
173
1
 91
-1056964608
 92
-2
290
1
 42
2.0
291
1
 43
8.0
  3
Standard
 44
4.0
300

342
29
174
1
175
1
176
0
178
1
 93
-1056964608
 45
4.0
292
0
297
0
 46
4.0
 94
-1056964608
 47
1.0
 49
1.0
140
1.0
294
1
141
0.0
177
0
142
1.0
295
0
296
0
143
3.75
271
0
272
9
273
9
  0
DICTIONARY
  5
2D
330
A
100
AcDbDictionary
280
1
281
1
  3
CREATED_BY_EZDXF
350
2E
  3
WRITTEN_BY_EZDXF
350
32
  0
DICTIONARYVAR
  5
2E
330
2D
100
DictionaryVariables
280
0
  1
1.4.3 @ 2026-04-20T09:55:16.180991+00:00
  0
DICTIONARYVAR
  5
32
330
2D
100
DictionaryVariables
280
0
  1
1.4.3 @ 2026-04-20T09:55:16.208804+00:00
  0
ENDSEC
  0
EOF
