  0
SECTION
  2
HEADER
  9
$ACADVER
  1
AC1024
  9
$ACADMAINTVER
 70
6
  9
$DWGCODEPAGE
  3
ANSI_1252
  9
$LASTSAVEDBY
  1
ezdxf
  9
$INSBASE
 10
0.0
 20
0.0
 30
0.0
  9
$EXTMIN
 10
1e+20
 20
1e+20
 30
1e+20
  9
$EXTMAX
 10
-1e+20
 20
-1e+20
 30
-1e+20
  9
$LIMMIN
 10
0.0
 20
0.0
  9
$LIMMAX
 10
420.0
 20
297.0
  9
$ORTHOMODE
 70
0
  9
$REGENMODE
 70
1
  9
$FILLMODE
 70
1
  9
$QTEXTMODE
 70
0
  9
$MIRRTEXT
 70
1
  9
$LTSCALE
 40
1.0
  9
$ATTMODE
 70
1
  9
$TEXTSIZE
 40
2.5
  9
$TRACEWID
 40
1.0
  9
$TEXTSTYLE
  7
Standard
  9
$CLAYER
  8
0
  9
$CELTYPE
  6
ByLayer
  9
$CECOLOR
 62
256
  9
$CELTSCALE
 40
1.0
  9
$DISPSILH
 70
0
  9
$DIMSCALE
 40
1.0
  9
$DIMASZ
 40
2.5
  9
$DIMEXO
 40
0.625
  9
$DIMDLI
 40
3.75
  9
$DIMRND
 40
0.0
  9
$DIMDLE
 40
0.0
  9
$DIMEXE
 40
1.25
  9
$DIMTP
 40
0.0
  9
$DIMTM
 40
0.0
  9
$DIMTXT
 40
2.5
  9
$DIMCEN
 40
2.5
  9
$DIMTSZ
 40
0.0
  9
$DIMTOL
 70
0
  9
$DIMLIM
 70
0
  9
$DIMTIH
 70
0
  9
$DIMTOH
 70
0
  9
$DIMSE1
 70
0
  9
$DIMSE2
 70
0
  9
$DIMTAD
 70
1
  9
$DIMZIN
 70
8
  9
$DIMBLK
  1

  9
$DIMASO
 70
1
  9
$DIMSHO
 70
1
  9
$DIMPOST
  1

  9
$DIMAPOST
  1

  9
$DIMALT
 70
0
  9
$DIMALTD
 70
3
  9
$DIMALTF
 40
0.03937007874
  9
$DIMLFAC
 40
1.0
  9
$DIMTOFL
 70
1
  9
$DIMTVP
 40
0.0
  9
$DIMTIX
 70
0
  9
$DIMSOXD
 70
0
  9
$DIMSAH
 70
0
  9
$DIMBLK1
  1

  9
$DIMBLK2
  1

  9
$DIMSTYLE
  2
ISO-25
  9
$DIMCLRD
 70
0
  9
$DIMCLRE
 70
0
  9
$DIMCLRT
 70
0
  9
$DIMTFAC
 40
1.0
  9
$DIMGAP
 40
0.625
  9
$DIMJUST
 70
0
  9
$DIMSD1
 70
0
  9
$DIMSD2
 70
0
  9
$DIMTOLJ
 70
0
  9
$DIMTZIN
 70
8
  9
$DIMALTZ
 70
0
  9
$DIMALTTZ
 70
0
  9
$DIMUPT
 70
0
  9
$DIMDEC
 70
2
  9
$DIMTDEC
 70
2
  9
$DIMALTU
 70
2
  9
$DIMALTTD
 70
3
  9
$DIMTXSTY
  7
Standard
  9
$DIMAUNIT
 70
0
  9
$DIMADEC
 70
0
  9
$DIMALTRND
 40
0.0
  9
$DIMAZIN
 70
0
  9
$DIMDSEP
 70
44
  9
$DIMATFIT
 70
3
  9
$DIMFRAC
 70
0
  9
$DIMLDRBLK
  1

  9
$DIMLUNIT
 70
2
  9
$DIMLWD
 70
-2
  9
$DIMLWE
 70
-2
  9
$DIMTMOVE
 70
0
  9
$DIMFXL
 40
1.0
  9
$DIMFXLON
 70
0
  9
$DIMJOGANG
 40
0.785398163397
  9
$DIMTFILL
 70
0
  9
$DIMTFILLCLR
 70
0
  9
$DIMARCSYM
 70
0
  9
$DIMLTYPE
  6

  9
$DIMLTEX1
  6

  9
$DIMLTEX2
  6

  9
$DIMTXTDIRECTION
 70
0
  9
$LUNITS
 70
2
  9
$LUPREC
 70
4
  9
$SKETCHINC
 40
1.0
  9
$FILLETRAD
 40
10.0
  9
$AUNITS
 70
0
  9
$AUPREC
 70
2
  9
$MENU
  1
.
  9
$ELEVATION
 40
0.0
  9
$PELEVATION
 40
0.0
  9
$THICKNESS
 40
0.0
  9
$LIMCHECK
 70
0
  9
$CHAMFERA
 40
0.0
  9
$CHAMFERB
 40
0.0
  9
$CHAMFERC
 40
0.0
  9
$CHAMFERD
 40
0.0
  9
$SKPOLY
 70
0
  9
$TDCREATE
 40
2461151.3730671294
  9
$TDUCREATE
 40
2458532.153996898
  9
$TDUPDATE
 40
2461151.3730671294
  9
$TDUUPDATE
 40
2458532.1544311
  9
$TDINDWG
 40
0.0
  9
$TDUSRTIMER
 40
0.0
  9
$USRTIMER
 70
1
  9
$ANGBASE
 50
0.0
  9
$ANGDIR
 70
0
  9
$PDMODE
 70
0
  9
$PDSIZE
 40
0.0
  9
$PLINEWID
 40
0.0
  9
$SPLFRAME
 70
0
  9
$SPLINETYPE
 70
6
  9
$SPLINESEGS
 70
8
  9
$HANDSEED
  5
33
  9
$SURFTAB1
 70
6
  9
$SURFTAB2
 70
6
  9
$SURFTYPE
 70
6
  9
$SURFU
 70
6
  9
$SURFV
 70
6
  9
$UCSBASE
  2

  9
$UCSNAME
  2

  9
$UCSORG
 10
0.0
 20
0.0
 30
0.0
  9
$UCSXDIR
 10
1.0
 20
0.0
 30
0.0
  9
$UCSYDIR
 10
0.0
 20
1.0
 30
0.0
  9
$UCSORTHOREF
  2

  9
$UCSORTHOVIEW
 70
0
  9
$UCSORGTOP
 10
0.0
 20
0.0
 30
0.0
  9
$UCSORGBOTTOM
 10
0.0
 20
0.0
 30
0.0
  9
$UCSORGLEFT
 10
0.0
 20
0.0
 30
0.0
  9
$UCSORGRIGHT
 10
0.0
 20
0.0
 30
0.0
  9
$UCSORGFRONT
 10
0.0
 20
0.0
 30
0.0
  9
$UCSORGBACK
 10
0.0
 20
0.0
 30
0.0
  9
$PUCSBASE
  2

  9
$PUCSNAME
  2

  9
$PUCSORG
 10
0.0
 20
0.0
 30
0.0
  9
$PUCSXDIR
 10
1.0
 20
0.0
 30
0.0
  9
$PUCSYDIR
 10
0.0
 20
1.0
 30
0.0
  9
$PUCSORTHOREF
  2

  9
$PUCSORTHOVIEW
 70
0
  9
$PUCSORGTOP
 10
0.0
 20
0.0
 30
0.0
  9
$PUCSORGBOTTOM
 10
0.0
 20
0.0
 30
0.0
  9
$PUCSORGLEFT
 10
0.0
 20
0.0
 30
0.0
  9
$PUCSORGRIGHT
 10
0.0
 20
0.0
 30
0.0
  9
$PUCSORGFRONT
 10
0.0
 20
0.0
 30
0.0
  9
$PUCSORGBACK
 10
0.0
 20
0.0
 30
0.0
  9
$USERI1
 70
0
  9
$USERI2
 70
0
  9
$USERI3
 70
0
  9
$USERI4
 70
0
  9
$USERI5
 70
0
  9
$USERR1
 40
0.0
  9
$USERR2
 40
0.0
  9
$USERR3
 40
0.0
  9
$USERR4
 40
0.0
  9
$USERR5
 40
0.0
  9
$WORLDVIEW
 70
1
  9
$SHADEDGE
 70
3
  9
$SHADEDIF
 70
70
  9
$TILEMODE
 70
1
  9
$MAXACTVP
 70
64
  9
$PINSBASE
 10
0.0
 20
0.0
 30
0.0
  9
$PLIMCHECK
 70
0
  9
$PEXTMIN
 10
1e+20
 20
1e+20
 30
1e+20
  9
$PEXTMAX
 10
-1e+20
 20
-1e+20
 30
-1e+20
  9
$PLIMMIN
 10
0.0
 20
0.0
  9
$PLIMMAX
 10
420.0
 20
297.0
  9
$UNITMODE
 70
0
  9
$VISRETAIN
 70
1
  9
$PLINEGEN
 70
0
  9
$PSLTSCALE
 70
1
  9
$TREEDEPTH
 70
3020
  9
$CMLSTYLE
  2
Standard
  9
$CMLJUST
 70
0
  9
$CMLSCALE
 40
20.0
  9
$PROXYGRAPHICS
 70
1
  9
$MEASUREMENT
 70
1
  9
$CELWEIGHT
370
-1
  9
$ENDCAPS
280
0
  9
$JOINSTYLE
280
0
  9
$LWDISPLAY
290
0
  9
$INSUNITS
 70
6
  9
$HYPERLINKBASE
  1

  9
$STYLESHEET
  1

  9
$XEDIT
290
1
  9
$CEPSNTYPE
380
0
  9
$PSTYLEMODE
290
1
  9
$FINGERPRINTGUID
  2
{C933470B-8E0F-4EDF-A407-17BF00182CC4}
  9
$VERSIONGUID
  2
{8AC8DB02-A59D-4859-8746-716E19396013}
  9
$EXTNAMES
290
1
  9
$PSVPSCALE
 40
0.0
  9
$OLESTARTUP
290
0
  9
$SORTENTS
280
127
  9
$INDEXCTL
280
0
  9
$HIDETEXT
280
1
  9
$XCLIPFRAME
280
1
  9
$HALOGAP
280
0
  9
$OBSCOLOR
 70
257
  9
$OBSLTYPE
280
0
  9
$INTERSECTIONDISPLAY
280
0
  9
$INTERSECTIONCOLOR
 70
257
  9
$DIMASSOC
280
2
  9
$PROJECTNAME
  1

  9
$CAMERADISPLAY
290
0
  9
$LENSLENGTH
 40
50.0
  9
$CAMERAHEIGHT
 40
0.0
  9
$STEPSPERSEC
 40
24.0
  9
$STEPSIZE
 40
100.0
  9
$3DDWFPREC
 40
2.0
  9
$PSOLWIDTH
 40
0.005
  9
$PSOLHEIGHT
 40
0.08
  9
$LOFTANG1
 40
1.570796326795
  9
$LOFTANG2
 40
1.570796326795
  9
$LOFTMAG1
 40
0.0
  9
$LOFTMAG2
 40
0.0
  9
$LOFTPARAM
 70
7
  9
$LOFTNORMALS
280
1
  9
$LATITUDE
 40
37.795
  9
$LONGITUDE
 40
-122.394
  9
$NORTHDIRECTION
 40
0.0
  9
$TIMEZONE
 70
-8000
  9
$LIGHTGLYPHDISPLAY
280
1
  9
$TILEMODELIGHTSYNCH
280
1
  9
$CMATERIAL
347
20
  9
$SOLIDHIST
280
0
  9
$SHOWHIST
280
1
  9
$DWFFRAME
280
2
  9
$DGNFRAME
280
2
  9
$REALWORLDSCALE
290
1
  9
$INTERFERECOLOR
 62
256
  9
$CSHADOW
280
0
  9
$SHADOWPLANELOCATION
 40
0.0
  0
ENDSEC
  0
SECTION
  2
CLASSES
  0
CLASS
  1
ACDBDICTIONARYWDFLT
  2
AcDbDictionaryWithDefault
  3
ObjectDBX Classes
 90
0
 91
0
280
0
281
0
  0
CLASS
  1
SUN
  2
AcDbSun
  3
SCENEOE
 90
1153
 91
0
280
0
281
0
  0
CLASS
  1
VISUALSTYLE
  2
AcDbVisualStyle
  3
ObjectDBX Classes
 90
4095
 91
0
280
0
281
0
  0
CLASS
  1
MATERIAL
  2
AcDbMaterial
  3
ObjectDBX Classes
 90
1153
 91
0
280
0
281
0
  0
CLASS
  1
SCALE
  2
AcDbScale
  3
ObjectDBX Classes
 90
1153
 91
0
280
0
281
0
  0
CLASS
  1
TABLESTYLE
  2
AcDbTableStyle
  3
ObjectDBX Classes
 90
4095
 91
0
280
0
281
0
  0
CLASS
  1
MLEADERSTYLE
  2
AcDbMLeaderStyle
  3
ACDB_MLEADERSTYLE_CLASS
 90
4095
 91
0
280
0
281
0
  0
CLASS
  1
DICTIONARYVAR
  2
AcDbDictionaryVar
  3
ObjectDBX Classes
 90
0
 91
0
280
0
281
0
  0
CLASS
  1
CELLSTYLEMAP
  2
AcDbCellStyleMap
  3
ObjectDBX Classes
 90
1152
 91
0
280
0
281
0
  0
CLASS
  1
MENTALRAYRENDERSETTINGS
  2
AcDbMentalRayRenderSettings
  3
SCENEOE
 90
1024
 91
0
280
0
281
0
  0
CLASS
  1
ACDBDETAILVIEWSTYLE
  2
AcDbDetailViewStyle
  3
ObjectDBX Classes
 90
1025
 91
0
280
0
281
0
  0
CLASS
  1
ACDBSECTIONVIEWSTYLE
  2
AcDbSectionViewStyle
  3
ObjectDBX Classes
 90
1025
 91
0
280
0
281
0
  0
CLASS
  1
RASTERVARIABLES
  2
AcDbRasterVariables
  3
ISM
 90
0
 91
0
280
0
281
0
  0
CLASS
  1
LAYOUT
  2
AcDbLayout
  3
ObjectDBX Classes
 90
0
 91
0
280
0
281
0
  0
CLASS
  1
ACDBPLACEHOLDER
  2
AcDbPlaceHolder
  3
ObjectDBX Classes
 90
0
 91
0
280
0
281
0
  0
ENDSEC
  0
SECTION
  2
TABLES
  0
TABLE
  2
VPORT
  5
8
330
0
100
AcDbSymbolTable
 70
1
  0
VPORT
  5
23
330
8
100
AcDbSymbolTableRecord
100
AcDbViewportTableRecord
  2
*Active
 70
0
 10
0.0
 20
0.0
 11
1.0
 21
1.0
 12
0.0
 22
0.0
 13
0.0
 23
0.0
 14
0.5
 24
0.5
 15
0.5
 25
0.5
 16
0.0
 26
0.0
 36
1.0
 17
0.0
 27
0.0
 37
0.0
 40
1000.0
 41
1.34
 42
50.0
 43
0.0
 44
0.0
 50
0.0
 51
0.0
 71
0
 72
1000
 73
1
 74
3
 75
0
 76
0
 77
0
 78
0
281
0
 65
0
146
0.0
  0
ENDTAB
  0
TABLE
  2
LTYPE
  5
2
330
0
100
AcDbSymbolTable
 70
3
  0
LTYPE
  5
24
330
2
100
AcDbSymbolTableRecord
100
AcDbLinetypeTableRecord
  2
ByBlock
 70
0
  3

 72
65
 73
0
 40
0.0
  0
LTYPE
  5
25
330
2
100
AcDbSymbolTableRecord
100
AcDbLinetypeTableRecord
  2
ByLayer
 70
0
  3

 72
65
 73
0
 40
0.0
  0
LTYPE
  5
26
330
2
100
AcDbSymbolTableRecord
100
AcDbLinetypeTableRecord
  2
Continuous
 70
0
  3

 72
65
 73
0
 40
0.0
  0
ENDTAB
  0
TABLE
  2
LAYER
  5
1
330
0
100
AcDbSymbolTable
 70
2
  0
LAYER
  5
27
330
1
100
AcDbSymbolTableRecord
100
AcDbLayerTableRecord
  2
0
 70
0
 62
7
  6
Continuous
370
-3
390
13
347
21
  0
LAYER
  5
28
330
1
100
AcDbSymbolTableRecord
100
AcDbLayerTableRecord
  2
Defpoints
 70
0
 62
7
  6
Continuous
290
0
370
-3
390
13
347
21
  0
ENDTAB
  0
TABLE
  2
STYLE
  5
5
330
0
100
AcDbSymbolTable
 70
1
  0
STYLE
  5
29
330
5
100
AcDbSymbolTableRecord
100
AcDbTextStyleTableRecord
  2
Standard
 70
0
 40
0.0
 41
1.0
 50
0.0
 71
0
 42
2.5
  3
txt
  4

  0
ENDTAB
  0
TABLE
  2
VIEW
  5
7
330
0
100
AcDbSymbolTable
 70
0
  0
ENDTAB
  0
TABLE
  2
UCS
  5
6
330
0
100
AcDbSymbolTable
 70
0
  0
ENDTAB
  0
TABLE
  2
APPID
  5
3
330
0
100
AcDbSymbolTable
 70
3
  0
APPID
  5
2A
330
3
100
AcDbSymbolTableRecord
100
AcDbRegAppTableRecord
  2
ACAD
 70
0
  0
APPID
  5
30
330
3
100
AcDbSymbolTableRecord
100
AcDbRegAppTableRecord
  2
HATCHBACKGROUNDCOLOR
 70
0
  0
APPID
  5
31
330
3
100
AcDbSymbolTableRecord
100
AcDbRegAppTableRecord
  2
EZDXF
 70
0
  0
ENDTAB
  0
TABLE
  2
DIMSTYLE
  5
4
330
0
100
AcDbSymbolTable
 70
1
100
AcDbDimStyleTable
  0
DIMSTYLE
105
2B
330
4
100
AcDbSymbolTableRecord
100
AcDbDimStyleTableRecord
  2
Standard
 70
0
 40
1.0
 41
2.5
 42
0.625
 43
3.75
 44
1.25
 45
0.0
 46
0.0
 47
0.0
 48
0.0
 49
2.5
140
2.5
141
2.5
142
0.0
143
0.03937007874
144
1.0
145
0.0
146
1.0
147
0.625
148
0.0
 69
0
 70
0
 71
0
 72
0
 73
0
 74
0
 75
0
 76
0
 77
1
 78
8
 79
3
170
0
171
3
172
1
173
0
174
0
175
0
176
0
177
0
178
0
179
2
271
2
272
2
273
2
274
3
275
0
276
0
277
2
278
44
279
0
280
0
281
0
282
0
283
0
284
8
285
0
286
0
288
0
289
3
290
0
371
-2
372
-2
  0
ENDTAB
  0
TABLE
  2
BLOCK_RECORD
  5
9
330
0
100
AcDbSymbolTable
 70
2
  0
BLOCK_RECORD
  5
17
330
9
100
AcDbSymbolTableRecord
100
AcDbBlockTableRecord
  2
*Model_Space
340
1A
 70
0
280
1
281
0
  0
BLOCK_RECORD
  5
1B
330
9
100
AcDbSymbolTableRecord
100
AcDbBlockTableRecord
  2
*Paper_Space
340
1E
 70
0
280
1
281
0
  0
ENDTAB
  0
ENDSEC
  0
SECTION
  2
BLOCKS
  0
BLOCK
  5
18
330
17
100
AcDbEntity
  8
0
100
AcDbBlockBegin
  2
*Model_Space
 70
0
 10
0.0
 20
0.0
 30
0.0
  3
*Model_Space
  1

  0
ENDBLK
  5
19
330
17
100
AcDbEntity
  8
0
100
AcDbBlockEnd
  0
BLOCK
  5
1C
330
1B
100
AcDbEntity
  8
0
100
AcDbBlockBegin
  2
*Paper_Space
 70
0
 10
0.0
 20
0.0
 30
0.0
  3
*Paper_Space
  1

  0
ENDBLK
  5
1D
330
1B
100
AcDbEntity
  8
0
100
AcDbBlockEnd
  0
ENDSEC
  0
SECTION
  2
ENTITIES
  0
LWPOLYLINE
  5
2F
330
17
100
AcDbEntity
  8
PERFIL
 62
1
100
AcDbPolyline
 90
361
 70
0
 10
339.0
 20
0.0
 10
338.94836865801665
 20
5.916365782239111
 10
338.7934903594735
 20
11.83092938214783
 10
338.5354122818005
 20
17.74188916635796
 10
338.1742130380804
 20
23.647444599258478
 10
337.71000265310175
 20
29.54579679145612
 10
337.14292252984467
 20
35.43514904773453
 10
336.47314540640815
 20
41.313707414345
 10
335.70087530339237
 20
47.17968122546218
 10
334.8263474617517
 20
53.031283648638265
 10
333.8498282711385
 20
58.86673222908938
 10
332.77161518875806
 20
64.68424943264868
 10
331.59203664876014
 20
70.48206318722042
 10
330.3114519621947
 20
76.25840742257023
 10
328.9302512075628
 20
82.01152260828736
 10
327.44885511199413
 20
87.73965628975454
 10
325.8677149230901
 20
93.44106362196271
 10
324.187312271469
 20
99.11400790100777
 10
322.40815902405706
 20
104.75676109310717
 10
320.5307971281684
 20
110.36760436097612
 10
318.55579844642295
 20
115.94482858740169
 10
316.4837645825514
 20
121.48673489585678
 10
314.31532669814095
 20
126.99163516799418
 10
312.05114532037726
 20
132.45785255786382
 10
309.6919101408417
 20
137.88372200269626
 10
307.23833980542435
 20
143.2675907300971
 10
304.69118169541764
 20
148.60781876149724
 10
302.0512116998567
 20
153.90277941170635
 10
299.31923397917626
 20
159.15085978441698
 10
296.4960807202552
 20
164.35046126350827
 10
293.5826118829247
 20
169.49999999999997
 10
290.5797149380161
 20
174.59790739450835
 10
287.4883045970284
 20
179.64263057505647
 10
284.30932253349874
 20
184.63263287009417
 10
281.04373709615913
 20
189.5663942765832
 10
277.69254301396825
 20
194.4424119230046
 10
274.2567610931072
 20
199.25920052714838
 10
270.73743790603226
 20
204.01529284854436
 10
267.13564547267873
 20
208.70924013539815
 10
263.45248093391314
 20
213.33961256589487
 10
259.68906621733356
 20
217.9049996837368
 10
255.84654769551972
 20
222.40401082778197
 10
251.92609583683665
 20
226.83527555565294
 10
247.92890484889878
 20
231.19744406118699
 10
243.85619231480274
 20
235.48918758560006
 10
239.7091988222396
 20
239.70919882223959
 10
235.48918758560006
 20
243.8561923148027
 10
231.19744406118699
 20
247.92890484889878
 10
226.83527555565294
 20
251.92609583683665
 10
222.40401082778197
 20
255.84654769551972
 10
217.90499968373683
 20
259.68906621733356
 10
213.33961256589492
 20
263.45248093391314
 10
208.70924013539815
 20
267.1356454726788
 10
204.0152928485444
 20
270.73743790603226
 10
199.25920052714838
 20
274.2567610931072
 10
194.44241192300464
 20
277.69254301396825
 10
189.56639427658317
 20
281.04373709615913
 10
184.63263287009417
 20
284.30932253349874
 10
179.64263057505647
 20
287.4883045970284
 10
174.59790739450835
 20
290.5797149380161
 10
169.50000000000003
 20
293.5826118829247
 10
164.3504612635083
 20
296.4960807202552
 10
159.150859784417
 20
299.3192339791762
 10
153.90277941170638
 20
302.0512116998567
 10
148.60781876149727
 20
304.69118169541764
 10
143.2675907300971
 20
307.23833980542435
 10
137.88372200269626
 20
309.6919101408417
 10
132.4578525578638
 20
312.05114532037726
 10
126.99163516799416
 20
314.31532669814095
 10
121.48673489585683
 20
316.4837645825514
 10
115.94482858740173
 20
318.5557984464229
 10
110.36760436097615
 20
320.5307971281684
 10
104.75676109310719
 20
322.40815902405706
 10
99.11400790100777
 20
324.187312271469
 10
93.44106362196271
 20
325.8677149230901
 10
87.73965628975454
 20
327.44885511199413
 10
82.01152260828734
 20
328.9302512075628
 10
76.2584074225702
 20
330.3114519621947
 10
70.48206318722046
 20
331.5920366487601
 10
64.68424943264873
 20
332.77161518875806
 10
58.86673222908941
 20
333.8498282711385
 10
53.031283648638286
 20
334.8263474617517
 10
47.17968122546219
 20
335.70087530339237
 10
41.313707414345
 20
336.47314540640815
 10
35.43514904773452
 20
337.14292252984467
 10
29.54579679145611
 20
337.71000265310175
 10
23.647444599258453
 20
338.1742130380804
 10
17.741889166358003
 20
338.5354122818005
 10
11.830929382147866
 20
338.7934903594735
 10
5.91636578223914
 20
338.94836865801665
 10
2.0757763245547636e-14
 20
339.0
 10
-5.916365782239098
 20
338.94836865801665
 10
-11.830929382147824
 20
338.7934903594735
 10
-17.74188916635796
 20
338.5354122818005
 10
-23.64744459925849
 20
338.1742130380804
 10
-29.54579679145614
 20
337.71000265310175
 10
-35.435149047734555
 20
337.14292252984467
 10
-41.313707414344954
 20
336.4731454064082
 10
-47.179681225462154
 20
335.70087530339237
 10
-53.031283648638244
 20
334.8263474617517
 10
-58.86673222908937
 20
333.8498282711385
 10
-64.68424943264868
 20
332.77161518875806
 10
-70.48206318722042
 20
331.59203664876014
 10
-76.25840742257024
 20
330.3114519621947
 10
-82.01152260828738
 20
328.9302512075628
 10
-87.73965628975456
 20
327.44885511199413
 10
-93.44106362196268
 20
325.8677149230901
 10
-99.11400790100772
 20
324.18731227146907
 10
-104.75676109310714
 20
322.4081590240571
 10
-110.3676043609761
 20
320.5307971281684
 10
-115.94482858740169
 20
318.55579844642295
 10
-121.48673489585678
 20
316.4837645825514
 10
-126.99163516799419
 20
314.31532669814095
 10
-132.45785255786382
 20
312.05114532037726
 10
-137.8837220026963
 20
309.6919101408417
 10
-143.26759073009708
 20
307.23833980542435
 10
-148.60781876149727
 20
304.6911816954176
 10
-153.90277941170632
 20
302.0512116998567
 10
-159.150859784417
 20
299.3192339791762
 10
-164.35046126350824
 20
296.4960807202552
 10
-169.49999999999991
 20
293.5826118829247
 10
-174.59790739450838
 20
290.5797149380161
 10
-179.64263057505642
 20
287.48830459702845
 10
-184.63263287009417
 20
284.30932253349874
 10
-189.56639427658314
 20
281.04373709615913
 10
-194.44241192300464
 20
277.6925430139682
 10
-199.25920052714835
 20
274.2567610931072
 10
-204.0152928485444
 20
270.73743790603226
 10
-208.70924013539815
 20
267.1356454726788
 10
-213.33961256589484
 20
263.4524809339132
 10
-217.90499968373683
 20
259.68906621733356
 10
-222.40401082778192
 20
255.84654769551975
 10
-226.83527555565294
 20
251.92609583683665
 10
-231.19744406118696
 20
247.9289048488988
 10
-235.48918758560012
 20
243.8561923148027
 10
-239.70919882223959
 20
239.7091988222396
 10
-243.85619231480274
 20
235.48918758560004
 10
-247.92890484889878
 20
231.197444061187
 10
-251.92609583683657
 20
226.83527555565297
 10
-255.84654769551972
 20
222.40401082778197
 10
-259.6890662173335
 20
217.9049996837369
 10
-263.45248093391314
 20
213.33961256589487
 10
-267.13564547267873
 20
208.7092401353982
 10
-270.7374379060323
 20
204.01529284854433
 10
-274.2567610931072
 20
199.25920052714844
 10
-277.69254301396825
 20
194.44241192300458
 10
-281.04373709615913
 20
189.5663942765832
 10
-284.30932253349874
 20
184.63263287009426
 10
-287.4883045970284
 20
179.64263057505647
 10
-290.579714938016
 20
174.59790739450844
 10
-293.5826118829247
 20
169.49999999999997
 10
-296.4960807202552
 20
164.3504612635083
 10
-299.31923397917626
 20
159.15085978441695
 10
-302.0512116998567
 20
153.90277941170638
 10
-304.69118169541764
 20
148.6078187614972
 10
-307.23833980542435
 20
143.26759073009714
 10
-309.6919101408416
 20
137.88372200269635
 10
-312.05114532037726
 20
132.45785255786382
 10
-314.3153266981409
 20
126.99163516799425
 10
-316.4837645825514
 20
121.48673489585677
 10
-318.5557984464229
 20
115.94482858740174
 10
-320.5307971281684
 20
110.36760436097609
 10
-322.40815902405706
 20
104.7567610931072
 10
-324.18731227146907
 20
99.11400790100771
 10
-325.8677149230901
 20
93.44106362196274
 10
-327.44885511199413
 20
87.73965628975462
 10
-328.9302512075628
 20
82.01152260828736
 10
-330.3114519621947
 20
76.2584074225703
 10
-331.59203664876014
 20
70.4820631872204
 10
-332.77161518875806
 20
64.68424943264874
 10
-333.8498282711385
 20
58.866732229089365
 10
-334.82634746175165
 20
53.0312836486383
 10
-335.70087530339237
 20
47.17968122546215
 10
-336.47314540640815
 20
41.31370741434502
 10
-337.14292252984467
 20
35.43514904773462
 10
-337.71000265310175
 20
29.545796791456127
 10
-338.1742130380804
 20
23.647444599258552
 10
-338.5354122818005
 20
17.74188916635795
 10
-338.7934903594735
 20
11.830929382147888
 10
-338.94836865801665
 20
5.916365782239086
 10
-339.0
 20
4.151552649109527e-14
 10
-338.94836865801665
 20
-5.916365782239152
 10
-338.7934903594735
 20
-11.830929382147804
 10
-338.5354122818005
 20
-17.74188916635787
 10
-338.1742130380804
 20
-23.647444599258467
 10
-337.71000265310175
 20
-29.54579679145604
 10
-337.14292252984467
 20
-35.435149047734534
 10
-336.4731454064082
 20
-41.31370741434494
 10
-335.7008753033923
 20
-47.17968122546221
 10
-334.8263474617517
 20
-53.031283648638215
 10
-333.8498282711385
 20
-58.86673222908943
 10
-332.77161518875806
 20
-64.68424943264866
 10
-331.5920366487601
 20
-70.48206318722048
 10
-330.3114519621947
 20
-76.25840742257023
 10
-328.9302512075628
 20
-82.01152260828728
 10
-327.44885511199413
 20
-87.73965628975455
 10
-325.8677149230901
 20
-93.44106362196266
 10
-324.187312271469
 20
-99.11400790100777
 10
-322.4081590240571
 20
-104.75676109310713
 10
-320.5307971281684
 20
-110.36760436097615
 10
-318.55579844642295
 20
-115.94482858740167
 10
-316.4837645825514
 20
-121.48673489585684
 10
-314.31532669814095
 20
-126.99163516799418
 10
-312.05114532037726
 20
-132.45785255786373
 10
-309.6919101408417
 20
-137.88372200269626
 10
-307.23833980542435
 20
-143.26759073009706
 10
-304.6911816954176
 20
-148.60781876149727
 10
-302.0512116998567
 20
-153.90277941170632
 10
-299.3192339791762
 20
-159.150859784417
 10
-296.4960807202552
 20
-164.35046126350824
 10
-293.5826118829247
 20
-169.50000000000003
 10
-290.5797149380161
 20
-174.59790739450835
 10
-287.48830459702845
 20
-179.64263057505642
 10
-284.30932253349874
 20
-184.63263287009417
 10
-281.0437370961592
 20
-189.56639427658314
 10
-277.69254301396825
 20
-194.44241192300464
 10
-274.25676109310723
 20
-199.25920052714835
 10
-270.73743790603226
 20
-204.0152928485444
 10
-267.1356454726788
 20
-208.70924013539812
 10
-263.4524809339131
 20
-213.33961256589495
 10
-259.68906621733356
 20
-217.9049996837368
 10
-255.84654769551975
 20
-222.4040108277819
 10
-251.92609583683665
 20
-226.83527555565294
 10
-247.9289048488988
 20
-231.19744406118696
 10
-243.8561923148027
 20
-235.48918758560012
 10
-239.70919882223967
 20
-239.70919882223959
 10
-235.48918758560006
 20
-243.85619231480274
 10
-231.197444061187
 20
-247.92890484889878
 10
-226.8352755556529
 20
-251.92609583683668
 10
-222.40401082778197
 20
-255.84654769551972
 10
-217.9049996837369
 20
-259.6890662173335
 10
-213.33961256589504
 20
-263.452480933913
 10
-208.7092401353981
 20
-267.1356454726788
 10
-204.01529284854436
 20
-270.73743790603226
 10
-199.25920052714844
 20
-274.2567610931072
 10
-194.44241192300473
 20
-277.69254301396813
 10
-189.56639427658308
 20
-281.0437370961592
 10
-184.63263287009414
 20
-284.30932253349874
 10
-179.6426305750565
 20
-287.4883045970284
 10
-174.59790739450847
 20
-290.579714938016
 10
-169.50000000000014
 20
-293.5826118829246
 10
-164.35046126350818
 20
-296.49608072025524
 10
-159.15085978441695
 20
-299.31923397917626
 10
-153.9027794117064
 20
-302.0512116998567
 10
-148.60781876149736
 20
-304.6911816954175
 10
-143.26759073009703
 20
-307.23833980542435
 10
-137.88372200269623
 20
-309.69191014084174
 10
-132.45785255786382
 20
-312.05114532037726
 10
-126.99163516799426
 20
-314.3153266981409
 10
-121.48673489585694
 20
-316.4837645825514
 10
-115.94482858740163
 20
-318.55579844642295
 10
-110.3676043609761
 20
-320.5307971281684
 10
-104.75676109310723
 20
-322.40815902405706
 10
-99.11400790100788
 20
-324.18731227146895
 10
-93.44106362196263
 20
-325.86771492309015
 10
-87.73965628975449
 20
-327.44885511199413
 10
-82.01152260828738
 20
-328.9302512075628
 10
-76.25840742257031
 20
-330.3114519621947
 10
-70.48206318722056
 20
-331.5920366487601
 10
-64.68424943264863
 20
-332.77161518875806
 10
-58.86673222908938
 20
-333.8498282711385
 10
-53.03128364863832
 20
-334.82634746175165
 10
-47.17968122546232
 20
-335.7008753033923
 10
-41.31370741434489
 20
-336.4731454064082
 10
-35.43514904773449
 20
-337.14292252984467
 10
-29.545796791456148
 20
-337.71000265310175
 10
-23.64744459925857
 20
-338.1742130380804
 10
-17.74188916635812
 20
-338.5354122818005
 10
-11.830929382147758
 20
-338.7934903594735
 10
-5.916365782239105
 20
-338.94836865801665
 10
-6.227328973664291e-14
 20
-339.0
 10
5.916365782238981
 20
-338.94836865801665
 10
11.830929382147934
 20
-338.7934903594735
 10
17.741889166357996
 20
-338.5354122818005
 10
23.64744459925845
 20
-338.17421303808044
 10
29.545796791456024
 20
-337.71000265310175
 10
35.43514904773436
 20
-337.14292252984467
 10
41.31370741434507
 20
-336.47314540640815
 10
47.17968122546219
 20
-335.70087530339237
 10
53.0312836486382
 20
-334.8263474617517
 10
58.86673222908926
 20
-333.84982827113856
 10
64.6842494326488
 20
-332.77161518875806
 10
70.48206318722045
 20
-331.5920366487601
 10
76.2584074225702
 20
-330.3114519621947
 10
82.01152260828727
 20
-328.93025120756283
 10
87.73965628975438
 20
-327.4488551119942
 10
93.4410636219628
 20
-325.8677149230901
 10
99.11400790100775
 20
-324.187312271469
 10
104.75676109310712
 20
-322.4081590240571
 10
110.36760436097599
 20
-320.53079712816844
 10
115.94482858740179
 20
-318.5557984464229
 10
121.48673489585683
 20
-316.4837645825514
 10
126.99163516799416
 20
-314.31532669814095
 10
132.4578525578637
 20
-312.0511453203773
 10
137.88372200269612
 20
-309.69191014084174
 10
143.26759073009717
 20
-307.23833980542435
 10
148.60781876149724
 20
-304.69118169541764
 10
153.90277941170632
 20
-302.05121169985676
 10
159.15085978441684
 20
-299.31923397917626
 10
164.35046126350835
 20
-296.4960807202551
 10
169.50000000000003
 20
-293.5826118829247
 10
174.59790739450835
 20
-290.5797149380161
 10
179.6426305750564
 20
-287.4883045970285
 10
184.63263287009403
 20
-284.3093225334988
 10
189.56639427658322
 20
-281.04373709615913
 10
194.4424119230046
 20
-277.69254301396825
 10
199.25920052714832
 20
-274.25676109310723
 10
204.01529284854425
 20
-270.73743790603237
 10
208.70924013539823
 20
-267.1356454726787
 10
213.33961256589492
 20
-263.4524809339131
 10
217.9049996837368
 20
-259.68906621733356
 10
222.4040108277819
 20
-255.84654769551977
 10
226.8352755556528
 20
-251.92609583683677
 10
231.197444061187
 20
-247.92890484889875
 10
235.48918758560006
 20
-243.85619231480274
 10
239.70919882223956
 20
-239.70919882223967
 10
243.85619231480266
 20
-235.48918758560018
 10
247.92890484889887
 20
-231.1974440611869
 10
251.92609583683665
 20
-226.8352755556529
 10
255.8465476955197
 20
-222.404010827782
 10
259.68906621733345
 20
-217.90499968373692
 10
263.452480933913
 20
-213.33961256589504
 10
267.1356454726788
 20
-208.70924013539812
 10
270.73743790603226
 20
-204.01529284854436
 10
274.2567610931072
 20
-199.25920052714847
 10
277.69254301396813
 20
-194.44241192300476
 10
281.0437370961592
 20
-189.56639427658308
 10
284.30932253349874
 20
-184.63263287009414
 10
287.4883045970284
 20
-179.6426305750565
 10
290.579714938016
 20
-174.59790739450847
 10
293.5826118829246
 20
-169.50000000000014
 10
296.4960807202552
 20
-164.3504612635082
 10
299.3192339791762
 20
-159.15085978441698
 10
302.0512116998567
 20
-153.90277941170643
 10
304.6911816954175
 20
-148.60781876149738
 10
307.23833980542435
 20
-143.26759073009703
 10
309.69191014084174
 20
-137.88372200269626
 10
312.05114532037726
 20
-132.45785255786384
 10
314.3153266981409
 20
-126.99163516799429
 10
316.4837645825513
 20
-121.48673489585696
 10
318.55579844642295
 20
-115.94482858740166
 10
320.5307971281684
 20
-110.36760436097612
 10
322.40815902405706
 20
-104.75676109310724
 10
324.18731227146895
 20
-99.1140079010079
 10
325.8677149230901
 20
-93.44106362196264
 10
327.44885511199413
 20
-87.7396562897545
 10
328.9302512075628
 20
-82.01152260828741
 10
330.3114519621947
 20
-76.25840742257034
 10
331.5920366487601
 20
-70.48206318722059
 10
332.77161518875806
 20
-64.68424943264864
 10
333.8498282711385
 20
-58.8667322290894
 10
334.82634746175165
 20
-53.03128364863835
 10
335.7008753033923
 20
-47.17968122546233
 10
336.4731454064082
 20
-41.31370741434491
 10
337.14292252984467
 20
-35.435149047734505
 10
337.71000265310175
 20
-29.54579679145617
 10
338.1742130380804
 20
-23.64744459925859
 10
338.5354122818005
 20
-17.741889166358142
 10
338.7934903594735
 20
-11.83092938214778
 10
338.94836865801665
 20
-5.916365782239127
 10
339.0
 20
0.0
  0
ENDSEC
  0
SECTION
  2
OBJECTS
  0
DICTIONARY
  5
A
330
0
100
AcDbDictionary
281
1
  3
ACAD_COLOR
350
B
  3
ACAD_GROUP
350
C
  3
ACAD_LAYOUT
350
D
  3
ACAD_MATERIAL
350
E
  3
ACAD_MLEADERSTYLE
350
F
  3
ACAD_MLINESTYLE
350
10
  3
ACAD_PLOTSETTINGS
350
11
  3
ACAD_PLOTSTYLENAME
350
12
  3
ACAD_SCALELIST
350
14
  3
ACAD_TABLESTYLE
350
15
  3
ACAD_VISUALSTYLE
350
16
  3
EZDXF_META
350
2D
  0
DICTIONARY
  5
B
330
A
100
AcDbDictionary
281
1
  0
DICTIONARY
  5
C
330
A
100
AcDbDictionary
281
1
  0
DICTIONARY
  5
D
330
A
100
AcDbDictionary
281
1
  3
Model
350
1A
  3
Layout1
350
1E
  0
DICTIONARY
  5
E
330
A
100
AcDbDictionary
281
1
  3
ByBlock
350
1F
  3
ByLayer
350
20
  3
Global
350
21
  0
DICTIONARY
  5
F
330
A
100
AcDbDictionary
281
1
  3
Standard
350
2C
  0
DICTIONARY
  5
10
330
A
100
AcDbDictionary
281
1
  3
Standard
350
22
  0
DICTIONARY
  5
11
330
A
100
AcDbDictionary
281
1
  0
ACDBDICTIONARYWDFLT
  5
12
330
A
100
AcDbDictionary
281
1
  3
Normal
350
13
100
AcDbDictionaryWithDefault
340
13
  0
ACDBPLACEHOLDER
  5
13
330
12
  0
DICTIONARY
  5
14
330
A
100
AcDbDictionary
281
1
  0
DICTIONARY
  5
15
330
A
100
AcDbDictionary
281
1
  0
DICTIONARY
  5
16
330
A
100
AcDbDictionary
281
1
  0
LAYOUT
  5
1A
330
D
100
AcDbPlotSettings
  1

  4
A3
  6

 40
7.5
 41
20.0
 42
7.5
 43
20.0
 44
420.0
 45
297.0
 46
0.0
 47
0.0
 48
0.0
 49
0.0
140
0.0
141
0.0
142
1.0
143
1.0
 70
1024
 72
1
 73
0
 74
5
  7

 75
16
 76
0
 77
2
 78
300
147
1.0
148
0.0
149
0.0
100
AcDbLayout
  1
Model
 70
1
 71
0
 10
0.0
 20
0.0
 11
420.0
 21
297.0
 12
0.0
 22
0.0
 32
0.0
 14
1e+20
 24
1e+20
 34
1e+20
 15
-1e+20
 25
-1e+20
 35
-1e+20
146
0.0
 13
0.0
 23
0.0
 33
0.0
 16
1.0
 26
0.0
 36
0.0
 17
0.0
 27
1.0
 37
0.0
 76
1
330
17
  0
LAYOUT
  5
1E
330
D
100
AcDbPlotSettings
  1

  4
A3
  6

 40
7.5
 41
20.0
 42
7.5
 43
20.0
 44
420.0
 45
297.0
 46
0.0
 47
0.0
 48
0.0
 49
0.0
140
0.0
141
0.0
142
1.0
143
1.0
 70
0
 72
1
 73
0
 74
5
  7

 75
16
 76
0
 77
2
 78
300
147
1.0
148
0.0
149
0.0
100
AcDbLayout
  1
Layout1
 70
1
 71
1
 10
0.0
 20
0.0
 11
420.0
 21
297.0
 12
0.0
 22
0.0
 32
0.0
 14
1e+20
 24
1e+20
 34
1e+20
 15
-1e+20
 25
-1e+20
 35
-1e+20
146
0.0
 13
0.0
 23
0.0
 33
0.0
 16
1.0
 26
0.0
 36
0.0
 17
0.0
 27
1.0
 37
0.0
 76
1
330
1B
  0
MATERIAL
  5
1F
102
{ACAD_REACTORS
330
E
102
}
330
E
100
AcDbMaterial
  1
ByBlock
  2

 70
0
 40
1.0
 71
1
 41
1.0
 91
-1023410177
 42
1.0
 72
1
  3

 73
1
 74
1
 75
1
 44
0.5
 73
0
 45
1.0
 46
1.0
 77
1
  4

 78
1
 79
1
170
1
 48
1.0
171
1
  6

172
1
173
1
174
1
140
1.0
141
1.0
175
1
  7

176
1
177
1
178
1
143
1.0
179
1
  8

270
1
271
1
272
1
145
1.0
146
1.0
273
1
  9

274
1
275
1
276
1
 42
1.0
 72
1
  3

 73
1
 74
1
 75
1
 94
63
  0
MATERIAL
  5
20
102
{ACAD_REACTORS
330
E
102
}
330
E
100
AcDbMaterial
  1
ByLayer
  2

 70
0
 40
1.0
 71
1
 41
1.0
 91
-1023410177
 42
1.0
 72
1
  3

 73
1
 74
1
 75
1
 44
0.5
 73
0
 45
1.0
 46
1.0
 77
1
  4

 78
1
 79
1
170
1
 48
1.0
171
1
  6

172
1
173
1
174
1
140
1.0
141
1.0
175
1
  7

176
1
177
1
178
1
143
1.0
179
1
  8

270
1
271
1
272
1
145
1.0
146
1.0
273
1
  9

274
1
275
1
276
1
 42
1.0
 72
1
  3

 73
1
 74
1
 75
1
 94
63
  0
MATERIAL
  5
21
102
{ACAD_REACTORS
330
E
102
}
330
E
100
AcDbMaterial
  1
Global
  2

 70
0
 40
1.0
 71
1
 41
1.0
 91
-1023410177
 42
1.0
 72
1
  3

 73
1
 74
1
 75
1
 44
0.5
 73
0
 45
1.0
 46
1.0
 77
1
  4

 78
1
 79
1
170
1
 48
1.0
171
1
  6

172
1
173
1
174
1
140
1.0
141
1.0
175
1
  7

176
1
177
1
178
1
143
1.0
179
1
  8

270
1
271
1
272
1
145
1.0
146
1.0
273
1
  9

274
1
275
1
276
1
 42
1.0
 72
1
  3

 73
1
 74
1
 75
1
 94
63
  0
MLINESTYLE
  5
22
102
{ACAD_REACTORS
330
10
102
}
330
10
100
AcDbMlineStyle
  2
Standard
 70
0
  3

 62
256
 51
90.0
 52
90.0
 71
2
 49
0.5
 62
256
  6
BYLAYER
 49
-0.5
 62
256
  6
BYLAYER
  0
MLEADERSTYLE
  5
2C
102
{ACAD_REACTORS
330
F
102
}
330
F
100
AcDbMLeaderStyle
179
2
170
2
171
1
172
0
 90
2
 40
0.0
 41
0.0
173
1
 91
-1056964608
 92
-2
290
1
 42
2.0
291
1
 43
8.0
  3
Standard
 44
4.0
300

342
29
174
1
175
1
176
0
178
1
 93
-1056964608
 45
4.0
292
0
297
0
 46
4.0
 94
-1056964608
 47
1.0
 49
1.0
140
1.0
294
1
141
0.0
177
0
142
1.0
295
0
296
0
143
3.75
271
0
272
9
273
9
  0
DICTIONARY
  5
2D
330
A
100
AcDbDictionary
280
1
281
1
  3
CREATED_BY_EZDXF
350
2E
  3
WRITTEN_BY_EZDXF
350
32
  0
DICTIONARYVAR
  5
2E
330
2D
100
DictionaryVariables
280
0
  1
1.4.3 @ 2026-04-20T08:57:13.132696+00:00
  0
DICTIONARYVAR
  5
32
330
2D
100
DictionaryVariables
280
0
  1
1.4.3 @ 2026-04-20T08:57:13.244815+00:00
  0
ENDSEC
  0
EOF
