  0
SECTION
  2
HEADER
  9
$ACADVER
  1
AC1024
  9
$ACADMAINTVER
 70
6
  9
$DWGCODEPAGE
  3
ANSI_1252
  9
$LASTSAVEDBY
  1
ezdxf
  9
$INSBASE
 10
0.0
 20
0.0
 30
0.0
  9
$EXTMIN
 10
1e+20
 20
1e+20
 30
1e+20
  9
$EXTMAX
 10
-1e+20
 20
-1e+20
 30
-1e+20
  9
$LIMMIN
 10
0.0
 20
0.0
  9
$LIMMAX
 10
420.0
 20
297.0
  9
$ORTHOMODE
 70
0
  9
$REGENMODE
 70
1
  9
$FILLMODE
 70
1
  9
$QTEXTMODE
 70
0
  9
$MIRRTEXT
 70
1
  9
$LTSCALE
 40
1.0
  9
$ATTMODE
 70
1
  9
$TEXTSIZE
 40
2.5
  9
$TRACEWID
 40
1.0
  9
$TEXTSTYLE
  7
Standard
  9
$CLAYER
  8
0
  9
$CELTYPE
  6
ByLayer
  9
$CECOLOR
 62
256
  9
$CELTSCALE
 40
1.0
  9
$DISPSILH
 70
0
  9
$DIMSCALE
 40
1.0
  9
$DIMASZ
 40
2.5
  9
$DIMEXO
 40
0.625
  9
$DIMDLI
 40
3.75
  9
$DIMRND
 40
0.0
  9
$DIMDLE
 40
0.0
  9
$DIMEXE
 40
1.25
  9
$DIMTP
 40
0.0
  9
$DIMTM
 40
0.0
  9
$DIMTXT
 40
2.5
  9
$DIMCEN
 40
2.5
  9
$DIMTSZ
 40
0.0
  9
$DIMTOL
 70
0
  9
$DIMLIM
 70
0
  9
$DIMTIH
 70
0
  9
$DIMTOH
 70
0
  9
$DIMSE1
 70
0
  9
$DIMSE2
 70
0
  9
$DIMTAD
 70
1
  9
$DIMZIN
 70
8
  9
$DIMBLK
  1

  9
$DIMASO
 70
1
  9
$DIMSHO
 70
1
  9
$DIMPOST
  1

  9
$DIMAPOST
  1

  9
$DIMALT
 70
0
  9
$DIMALTD
 70
3
  9
$DIMALTF
 40
0.03937007874
  9
$DIMLFAC
 40
1.0
  9
$DIMTOFL
 70
1
  9
$DIMTVP
 40
0.0
  9
$DIMTIX
 70
0
  9
$DIMSOXD
 70
0
  9
$DIMSAH
 70
0
  9
$DIMBLK1
  1

  9
$DIMBLK2
  1

  9
$DIMSTYLE
  2
ISO-25
  9
$DIMCLRD
 70
0
  9
$DIMCLRE
 70
0
  9
$DIMCLRT
 70
0
  9
$DIMTFAC
 40
1.0
  9
$DIMGAP
 40
0.625
  9
$DIMJUST
 70
0
  9
$DIMSD1
 70
0
  9
$DIMSD2
 70
0
  9
$DIMTOLJ
 70
0
  9
$DIMTZIN
 70
8
  9
$DIMALTZ
 70
0
  9
$DIMALTTZ
 70
0
  9
$DIMUPT
 70
0
  9
$DIMDEC
 70
2
  9
$DIMTDEC
 70
2
  9
$DIMALTU
 70
2
  9
$DIMALTTD
 70
3
  9
$DIMTXSTY
  7
Standard
  9
$DIMAUNIT
 70
0
  9
$DIMADEC
 70
0
  9
$DIMALTRND
 40
0.0
  9
$DIMAZIN
 70
0
  9
$DIMDSEP
 70
44
  9
$DIMATFIT
 70
3
  9
$DIMFRAC
 70
0
  9
$DIMLDRBLK
  1

  9
$DIMLUNIT
 70
2
  9
$DIMLWD
 70
-2
  9
$DIMLWE
 70
-2
  9
$DIMTMOVE
 70
0
  9
$DIMFXL
 40
1.0
  9
$DIMFXLON
 70
0
  9
$DIMJOGANG
 40
0.785398163397
  9
$DIMTFILL
 70
0
  9
$DIMTFILLCLR
 70
0
  9
$DIMARCSYM
 70
0
  9
$DIMLTYPE
  6

  9
$DIMLTEX1
  6

  9
$DIMLTEX2
  6

  9
$DIMTXTDIRECTION
 70
0
  9
$LUNITS
 70
2
  9
$LUPREC
 70
4
  9
$SKETCHINC
 40
1.0
  9
$FILLETRAD
 40
10.0
  9
$AUNITS
 70
0
  9
$AUPREC
 70
2
  9
$MENU
  1
.
  9
$ELEVATION
 40
0.0
  9
$PELEVATION
 40
0.0
  9
$THICKNESS
 40
0.0
  9
$LIMCHECK
 70
0
  9
$CHAMFERA
 40
0.0
  9
$CHAMFERB
 40
0.0
  9
$CHAMFERC
 40
0.0
  9
$CHAMFERD
 40
0.0
  9
$SKPOLY
 70
0
  9
$TDCREATE
 40
2461151.355358796
  9
$TDUCREATE
 40
2458532.153996898
  9
$TDUPDATE
 40
2461151.355358796
  9
$TDUUPDATE
 40
2458532.1544311
  9
$TDINDWG
 40
0.0
  9
$TDUSRTIMER
 40
0.0
  9
$USRTIMER
 70
1
  9
$ANGBASE
 50
0.0
  9
$ANGDIR
 70
0
  9
$PDMODE
 70
0
  9
$PDSIZE
 40
0.0
  9
$PLINEWID
 40
0.0
  9
$SPLFRAME
 70
0
  9
$SPLINETYPE
 70
6
  9
$SPLINESEGS
 70
8
  9
$HANDSEED
  5
33
  9
$SURFTAB1
 70
6
  9
$SURFTAB2
 70
6
  9
$SURFTYPE
 70
6
  9
$SURFU
 70
6
  9
$SURFV
 70
6
  9
$UCSBASE
  2

  9
$UCSNAME
  2

  9
$UCSORG
 10
0.0
 20
0.0
 30
0.0
  9
$UCSXDIR
 10
1.0
 20
0.0
 30
0.0
  9
$UCSYDIR
 10
0.0
 20
1.0
 30
0.0
  9
$UCSORTHOREF
  2

  9
$UCSORTHOVIEW
 70
0
  9
$UCSORGTOP
 10
0.0
 20
0.0
 30
0.0
  9
$UCSORGBOTTOM
 10
0.0
 20
0.0
 30
0.0
  9
$UCSORGLEFT
 10
0.0
 20
0.0
 30
0.0
  9
$UCSORGRIGHT
 10
0.0
 20
0.0
 30
0.0
  9
$UCSORGFRONT
 10
0.0
 20
0.0
 30
0.0
  9
$UCSORGBACK
 10
0.0
 20
0.0
 30
0.0
  9
$PUCSBASE
  2

  9
$PUCSNAME
  2

  9
$PUCSORG
 10
0.0
 20
0.0
 30
0.0
  9
$PUCSXDIR
 10
1.0
 20
0.0
 30
0.0
  9
$PUCSYDIR
 10
0.0
 20
1.0
 30
0.0
  9
$PUCSORTHOREF
  2

  9
$PUCSORTHOVIEW
 70
0
  9
$PUCSORGTOP
 10
0.0
 20
0.0
 30
0.0
  9
$PUCSORGBOTTOM
 10
0.0
 20
0.0
 30
0.0
  9
$PUCSORGLEFT
 10
0.0
 20
0.0
 30
0.0
  9
$PUCSORGRIGHT
 10
0.0
 20
0.0
 30
0.0
  9
$PUCSORGFRONT
 10
0.0
 20
0.0
 30
0.0
  9
$PUCSORGBACK
 10
0.0
 20
0.0
 30
0.0
  9
$USERI1
 70
0
  9
$USERI2
 70
0
  9
$USERI3
 70
0
  9
$USERI4
 70
0
  9
$USERI5
 70
0
  9
$USERR1
 40
0.0
  9
$USERR2
 40
0.0
  9
$USERR3
 40
0.0
  9
$USERR4
 40
0.0
  9
$USERR5
 40
0.0
  9
$WORLDVIEW
 70
1
  9
$SHADEDGE
 70
3
  9
$SHADEDIF
 70
70
  9
$TILEMODE
 70
1
  9
$MAXACTVP
 70
64
  9
$PINSBASE
 10
0.0
 20
0.0
 30
0.0
  9
$PLIMCHECK
 70
0
  9
$PEXTMIN
 10
1e+20
 20
1e+20
 30
1e+20
  9
$PEXTMAX
 10
-1e+20
 20
-1e+20
 30
-1e+20
  9
$PLIMMIN
 10
0.0
 20
0.0
  9
$PLIMMAX
 10
420.0
 20
297.0
  9
$UNITMODE
 70
0
  9
$VISRETAIN
 70
1
  9
$PLINEGEN
 70
0
  9
$PSLTSCALE
 70
1
  9
$TREEDEPTH
 70
3020
  9
$CMLSTYLE
  2
Standard
  9
$CMLJUST
 70
0
  9
$CMLSCALE
 40
20.0
  9
$PROXYGRAPHICS
 70
1
  9
$MEASUREMENT
 70
1
  9
$CELWEIGHT
370
-1
  9
$ENDCAPS
280
0
  9
$JOINSTYLE
280
0
  9
$LWDISPLAY
290
0
  9
$INSUNITS
 70
6
  9
$HYPERLINKBASE
  1

  9
$STYLESHEET
  1

  9
$XEDIT
290
1
  9
$CEPSNTYPE
380
0
  9
$PSTYLEMODE
290
1
  9
$FINGERPRINTGUID
  2
{163DDCCD-B006-4418-932C-1A278C1F8731}
  9
$VERSIONGUID
  2
{B2060EF1-65ED-45DE-A16F-548CE7B08D35}
  9
$EXTNAMES
290
1
  9
$PSVPSCALE
 40
0.0
  9
$OLESTARTUP
290
0
  9
$SORTENTS
280
127
  9
$INDEXCTL
280
0
  9
$HIDETEXT
280
1
  9
$XCLIPFRAME
280
1
  9
$HALOGAP
280
0
  9
$OBSCOLOR
 70
257
  9
$OBSLTYPE
280
0
  9
$INTERSECTIONDISPLAY
280
0
  9
$INTERSECTIONCOLOR
 70
257
  9
$DIMASSOC
280
2
  9
$PROJECTNAME
  1

  9
$CAMERADISPLAY
290
0
  9
$LENSLENGTH
 40
50.0
  9
$CAMERAHEIGHT
 40
0.0
  9
$STEPSPERSEC
 40
24.0
  9
$STEPSIZE
 40
100.0
  9
$3DDWFPREC
 40
2.0
  9
$PSOLWIDTH
 40
0.005
  9
$PSOLHEIGHT
 40
0.08
  9
$LOFTANG1
 40
1.570796326795
  9
$LOFTANG2
 40
1.570796326795
  9
$LOFTMAG1
 40
0.0
  9
$LOFTMAG2
 40
0.0
  9
$LOFTPARAM
 70
7
  9
$LOFTNORMALS
280
1
  9
$LATITUDE
 40
37.795
  9
$LONGITUDE
 40
-122.394
  9
$NORTHDIRECTION
 40
0.0
  9
$TIMEZONE
 70
-8000
  9
$LIGHTGLYPHDISPLAY
280
1
  9
$TILEMODELIGHTSYNCH
280
1
  9
$CMATERIAL
347
20
  9
$SOLIDHIST
280
0
  9
$SHOWHIST
280
1
  9
$DWFFRAME
280
2
  9
$DGNFRAME
280
2
  9
$REALWORLDSCALE
290
1
  9
$INTERFERECOLOR
 62
256
  9
$CSHADOW
280
0
  9
$SHADOWPLANELOCATION
 40
0.0
  0
ENDSEC
  0
SECTION
  2
CLASSES
  0
CLASS
  1
ACDBDICTIONARYWDFLT
  2
AcDbDictionaryWithDefault
  3
ObjectDBX Classes
 90
0
 91
0
280
0
281
0
  0
CLASS
  1
SUN
  2
AcDbSun
  3
SCENEOE
 90
1153
 91
0
280
0
281
0
  0
CLASS
  1
VISUALSTYLE
  2
AcDbVisualStyle
  3
ObjectDBX Classes
 90
4095
 91
0
280
0
281
0
  0
CLASS
  1
MATERIAL
  2
AcDbMaterial
  3
ObjectDBX Classes
 90
1153
 91
0
280
0
281
0
  0
CLASS
  1
SCALE
  2
AcDbScale
  3
ObjectDBX Classes
 90
1153
 91
0
280
0
281
0
  0
CLASS
  1
TABLESTYLE
  2
AcDbTableStyle
  3
ObjectDBX Classes
 90
4095
 91
0
280
0
281
0
  0
CLASS
  1
MLEADERSTYLE
  2
AcDbMLeaderStyle
  3
ACDB_MLEADERSTYLE_CLASS
 90
4095
 91
0
280
0
281
0
  0
CLASS
  1
DICTIONARYVAR
  2
AcDbDictionaryVar
  3
ObjectDBX Classes
 90
0
 91
0
280
0
281
0
  0
CLASS
  1
CELLSTYLEMAP
  2
AcDbCellStyleMap
  3
ObjectDBX Classes
 90
1152
 91
0
280
0
281
0
  0
CLASS
  1
MENTALRAYRENDERSETTINGS
  2
AcDbMentalRayRenderSettings
  3
SCENEOE
 90
1024
 91
0
280
0
281
0
  0
CLASS
  1
ACDBDETAILVIEWSTYLE
  2
AcDbDetailViewStyle
  3
ObjectDBX Classes
 90
1025
 91
0
280
0
281
0
  0
CLASS
  1
ACDBSECTIONVIEWSTYLE
  2
AcDbSectionViewStyle
  3
ObjectDBX Classes
 90
1025
 91
0
280
0
281
0
  0
CLASS
  1
RASTERVARIABLES
  2
AcDbRasterVariables
  3
ISM
 90
0
 91
0
280
0
281
0
  0
CLASS
  1
ACDBPLACEHOLDER
  2
AcDbPlaceHolder
  3
ObjectDBX Classes
 90
0
 91
0
280
0
281
0
  0
CLASS
  1
LAYOUT
  2
AcDbLayout
  3
ObjectDBX Classes
 90
0
 91
0
280
0
281
0
  0
ENDSEC
  0
SECTION
  2
TABLES
  0
TABLE
  2
VPORT
  5
8
330
0
100
AcDbSymbolTable
 70
1
  0
VPORT
  5
23
330
8
100
AcDbSymbolTableRecord
100
AcDbViewportTableRecord
  2
*Active
 70
0
 10
0.0
 20
0.0
 11
1.0
 21
1.0
 12
0.0
 22
0.0
 13
0.0
 23
0.0
 14
0.5
 24
0.5
 15
0.5
 25
0.5
 16
0.0
 26
0.0
 36
1.0
 17
0.0
 27
0.0
 37
0.0
 40
1000.0
 41
1.34
 42
50.0
 43
0.0
 44
0.0
 50
0.0
 51
0.0
 71
0
 72
1000
 73
1
 74
3
 75
0
 76
0
 77
0
 78
0
281
0
 65
0
146
0.0
  0
ENDTAB
  0
TABLE
  2
LTYPE
  5
2
330
0
100
AcDbSymbolTable
 70
3
  0
LTYPE
  5
24
330
2
100
AcDbSymbolTableRecord
100
AcDbLinetypeTableRecord
  2
ByBlock
 70
0
  3

 72
65
 73
0
 40
0.0
  0
LTYPE
  5
25
330
2
100
AcDbSymbolTableRecord
100
AcDbLinetypeTableRecord
  2
ByLayer
 70
0
  3

 72
65
 73
0
 40
0.0
  0
LTYPE
  5
26
330
2
100
AcDbSymbolTableRecord
100
AcDbLinetypeTableRecord
  2
Continuous
 70
0
  3

 72
65
 73
0
 40
0.0
  0
ENDTAB
  0
TABLE
  2
LAYER
  5
1
330
0
100
AcDbSymbolTable
 70
2
  0
LAYER
  5
27
330
1
100
AcDbSymbolTableRecord
100
AcDbLayerTableRecord
  2
0
 70
0
 62
7
  6
Continuous
370
-3
390
13
347
21
  0
LAYER
  5
28
330
1
100
AcDbSymbolTableRecord
100
AcDbLayerTableRecord
  2
Defpoints
 70
0
 62
7
  6
Continuous
290
0
370
-3
390
13
347
21
  0
ENDTAB
  0
TABLE
  2
STYLE
  5
5
330
0
100
AcDbSymbolTable
 70
1
  0
STYLE
  5
29
330
5
100
AcDbSymbolTableRecord
100
AcDbTextStyleTableRecord
  2
Standard
 70
0
 40
0.0
 41
1.0
 50
0.0
 71
0
 42
2.5
  3
txt
  4

  0
ENDTAB
  0
TABLE
  2
VIEW
  5
7
330
0
100
AcDbSymbolTable
 70
0
  0
ENDTAB
  0
TABLE
  2
UCS
  5
6
330
0
100
AcDbSymbolTable
 70
0
  0
ENDTAB
  0
TABLE
  2
APPID
  5
3
330
0
100
AcDbSymbolTable
 70
3
  0
APPID
  5
2A
330
3
100
AcDbSymbolTableRecord
100
AcDbRegAppTableRecord
  2
ACAD
 70
0
  0
APPID
  5
30
330
3
100
AcDbSymbolTableRecord
100
AcDbRegAppTableRecord
  2
HATCHBACKGROUNDCOLOR
 70
0
  0
APPID
  5
31
330
3
100
AcDbSymbolTableRecord
100
AcDbRegAppTableRecord
  2
EZDXF
 70
0
  0
ENDTAB
  0
TABLE
  2
DIMSTYLE
  5
4
330
0
100
AcDbSymbolTable
 70
1
100
AcDbDimStyleTable
  0
DIMSTYLE
105
2B
330
4
100
AcDbSymbolTableRecord
100
AcDbDimStyleTableRecord
  2
Standard
 70
0
 40
1.0
 41
2.5
 42
0.625
 43
3.75
 44
1.25
 45
0.0
 46
0.0
 47
0.0
 48
0.0
 49
2.5
140
2.5
141
2.5
142
0.0
143
0.03937007874
144
1.0
145
0.0
146
1.0
147
0.625
148
0.0
 69
0
 70
0
 71
0
 72
0
 73
0
 74
0
 75
0
 76
0
 77
1
 78
8
 79
3
170
0
171
3
172
1
173
0
174
0
175
0
176
0
177
0
178
0
179
2
271
2
272
2
273
2
274
3
275
0
276
0
277
2
278
44
279
0
280
0
281
0
282
0
283
0
284
8
285
0
286
0
288
0
289
3
290
0
371
-2
372
-2
  0
ENDTAB
  0
TABLE
  2
BLOCK_RECORD
  5
9
330
0
100
AcDbSymbolTable
 70
2
  0
BLOCK_RECORD
  5
17
330
9
100
AcDbSymbolTableRecord
100
AcDbBlockTableRecord
  2
*Model_Space
340
1A
 70
0
280
1
281
0
  0
BLOCK_RECORD
  5
1B
330
9
100
AcDbSymbolTableRecord
100
AcDbBlockTableRecord
  2
*Paper_Space
340
1E
 70
0
280
1
281
0
  0
ENDTAB
  0
ENDSEC
  0
SECTION
  2
BLOCKS
  0
BLOCK
  5
18
330
17
100
AcDbEntity
  8
0
100
AcDbBlockBegin
  2
*Model_Space
 70
0
 10
0.0
 20
0.0
 30
0.0
  3
*Model_Space
  1

  0
ENDBLK
  5
19
330
17
100
AcDbEntity
  8
0
100
AcDbBlockEnd
  0
BLOCK
  5
1C
330
1B
100
AcDbEntity
  8
0
100
AcDbBlockBegin
  2
*Paper_Space
 70
0
 10
0.0
 20
0.0
 30
0.0
  3
*Paper_Space
  1

  0
ENDBLK
  5
1D
330
1B
100
AcDbEntity
  8
0
100
AcDbBlockEnd
  0
ENDSEC
  0
SECTION
  2
ENTITIES
  0
LWPOLYLINE
  5
2F
330
17
100
AcDbEntity
  8
PERFIL
 62
1
100
AcDbPolyline
 90
361
 70
0
 10
888.0
 20
0.0
 10
887.8647532988755
 20
15.497736916307758
 10
887.459054392957
 20
30.990753071820862
 10
886.7830268620615
 20
46.474329143734124
 10
885.8368766307239
 20
61.943748684783266
 10
884.62089190547
 20
77.39429955992046
 10
883.1354430870267
 20
92.82127538167629
 10
881.380982657494
 20
108.21997694377096
 10
879.3580450425145
 20
123.5857136525381
 10
877.0672464484824
 20
138.913804955725
 10
874.5092846748407
 20
154.19958176823414
 10
871.6849389015256
 20
169.4383878943718
 10
868.5950694516195
 20
184.6255814461703
 10
865.2406175292889
 20
199.7565362573521
 10
861.6226049330849
 20
214.82664329250494
 10
857.7421337446926
 20
229.83131205103842
 10
853.6003859932272
 20
244.76597196549525
 10
849.1986232951755
 20
259.6260737937902
 10
844.5381864700963
 20
274.4070910049533
 10
839.6204951321934
 20
289.10452115795516
 10
834.4470472578867
 20
303.7138872731938
 10
829.0194187295151
 20
318.23073919622664
 10
823.3392628553072
 20
332.6506549533299
 10
817.408309865767
 20
346.9692420984751
 10
811.2283663866295
 20
361.18213905131057
 10
804.8013148885451
 20
375.2850164257411
 10
798.1291131136603
 20
389.2735783487007
 10
791.2137934792707
 20
403.1435637687175
 10
784.0574624587272
 20
416.89074775387104
 10
776.6622999397835
 20
430.51094277874734
 10
769.0305585605815
 20
443.99999999999994
 10
761.1645630234758
 20
457.3538105201281
 10
753.0667093869063
 20
470.56830663908596
 10
744.7394643355366
 20
483.63946309334403
 10
736.1853644288769
 20
496.56329828202325
 10
727.4070153286248
 20
509.3358754797289
 10
718.4070910049534
 20
521.9533040357162
 10
709.188332921996
 20
534.4117405590189
 10
699.753549202769
 20
546.7073900891845
 10
690.1056137737902
 20
558.8365072522556
 10
680.2474654896524
 20
570.7953974016468
 10
670.1821072378216
 20
582.5804177435705
 10
659.9126050239261
 20
594.1879784466661
 10
649.4420870378234
 20
605.6145437354986
 10
638.7737427007222
 20
616.8566329675896
 10
627.9108216936543
 20
627.9108216936542
 10
616.8566329675896
 20
638.7737427007222
 10
605.6145437354986
 20
649.4420870378234
 10
594.1879784466661
 20
659.9126050239261
 10
582.5804177435705
 20
670.1821072378216
 10
570.7953974016469
 20
680.2474654896524
 10
558.8365072522557
 20
690.1056137737902
 10
546.7073900891845
 20
699.7535492027691
 10
534.411740559019
 20
709.188332921996
 10
521.9533040357162
 20
718.4070910049534
 10
509.335875479729
 20
727.4070153286248
 10
496.56329828202314
 20
736.185364428877
 10
483.63946309334403
 20
744.7394643355366
 10
470.56830663908596
 20
753.0667093869063
 10
457.3538105201281
 20
761.1645630234758
 10
444.0000000000001
 20
769.0305585605814
 10
430.51094277874734
 20
776.6622999397835
 10
416.8907477538711
 20
784.0574624587271
 10
403.14356376871757
 20
791.2137934792706
 10
389.27357834870077
 20
798.1291131136603
 10
375.2850164257411
 20
804.8013148885451
 10
361.18213905131057
 20
811.2283663866295
 10
346.96924209847504
 20
817.408309865767
 10
332.6506549533298
 20
823.3392628553072
 10
318.23073919622675
 20
829.0194187295151
 10
303.7138872731939
 20
834.4470472578865
 10
289.1045211579552
 20
839.6204951321932
 10
274.4070910049533
 20
844.5381864700963
 10
259.6260737937902
 20
849.1986232951755
 10
244.76597196549525
 20
853.6003859932272
 10
229.83131205103842
 20
857.7421337446926
 10
214.82664329250488
 20
861.6226049330849
 10
199.75653625735205
 20
865.2406175292889
 10
184.6255814461704
 20
868.5950694516193
 10
169.43838789437189
 20
871.6849389015256
 10
154.1995817682342
 20
874.5092846748407
 10
138.91380495572506
 20
877.0672464484824
 10
123.58571365253813
 20
879.3580450425145
 10
108.21997694377097
 20
881.380982657494
 10
92.82127538167627
 20
883.1354430870267
 10
77.39429955992043
 20
884.62089190547
 10
61.94374868478321
 20
885.8368766307239
 10
46.474329143734245
 20
886.7830268620615
 10
30.990753071820958
 20
887.459054392957
 10
15.497736916307835
 20
887.8647532988755
 10
5.437431788214248e-14
 20
888.0
 10
-15.497736916307728
 20
887.8647532988755
 10
-30.990753071820848
 20
887.459054392957
 10
-46.47432914373413
 20
886.7830268620615
 10
-61.943748684783294
 20
885.8368766307239
 10
-77.39429955992051
 20
884.62089190547
 10
-92.82127538167636
 20
883.1354430870267
 10
-108.21997694377086
 20
881.380982657494
 10
-123.58571365253803
 20
879.3580450425145
 10
-138.91380495572497
 20
877.0672464484824
 10
-154.1995817682341
 20
874.5092846748407
 10
-169.4383878943718
 20
871.6849389015256
 10
-184.6255814461703
 20
868.5950694516195
 10
-199.75653625735214
 20
865.2406175292889
 10
-214.826643292505
 20
861.6226049330849
 10
-229.8313120510385
 20
857.7421337446926
 10
-244.76597196549517
 20
853.6003859932272
 10
-259.62607379379017
 20
849.1986232951756
 10
-274.40709100495326
 20
844.5381864700964
 10
-289.1045211579551
 20
839.6204951321934
 10
-303.7138872731938
 20
834.4470472578867
 10
-318.23073919622664
 20
829.0194187295151
 10
-332.65065495332993
 20
823.3392628553072
 10
-346.9692420984751
 20
817.4083098657669
 10
-361.1821390513106
 20
811.2283663866295
 10
-375.285016425741
 20
804.8013148885452
 10
-389.2735783487008
 20
798.1291131136602
 10
-403.14356376871746
 20
791.2137934792707
 10
-416.89074775387115
 20
784.0574624587271
 10
-430.5109427787473
 20
776.6622999397836
 10
-443.99999999999983
 20
769.0305585605815
 10
-457.3538105201282
 20
761.1645630234758
 10
-470.56830663908585
 20
753.0667093869064
 10
-483.63946309334403
 20
744.7394643355365
 10
-496.563298282023
 20
736.185364428877
 10
-509.335875479729
 20
727.4070153286247
 10
-521.9533040357161
 20
718.4070910049534
 10
-534.411740559019
 20
709.1883329219959
 10
-546.7073900891845
 20
699.7535492027691
 10
-558.8365072522555
 20
690.1056137737903
 10
-570.7953974016469
 20
680.2474654896524
 10
-582.5804177435704
 20
670.1821072378217
 10
-594.1879784466661
 20
659.9126050239261
 10
-605.6145437354985
 20
649.4420870378235
 10
-616.8566329675897
 20
638.7737427007222
 10
-627.9108216936542
 20
627.9108216936543
 10
-638.7737427007222
 20
616.8566329675895
 10
-649.4420870378234
 20
605.6145437354987
 10
-659.9126050239258
 20
594.1879784466662
 10
-670.1821072378216
 20
582.5804177435705
 10
-680.2474654896524
 20
570.795397401647
 10
-690.1056137737902
 20
558.8365072522556
 10
-699.753549202769
 20
546.7073900891846
 10
-709.1883329219961
 20
534.4117405590188
 10
-718.4070910049533
 20
521.9533040357162
 10
-727.4070153286248
 20
509.33587547972877
 10
-736.1853644288769
 20
496.56329828202325
 10
-744.7394643355365
 20
483.63946309334426
 10
-753.0667093869063
 20
470.56830663908596
 10
-761.1645630234757
 20
457.35381052012826
 10
-769.0305585605815
 20
443.99999999999994
 10
-776.6622999397835
 20
430.5109427787474
 10
-784.0574624587272
 20
416.8907477538709
 10
-791.2137934792706
 20
403.1435637687176
 10
-798.1291131136603
 20
389.27357834870065
 10
-804.8013148885451
 20
375.28501642574116
 10
-811.2283663866294
 20
361.1821390513108
 10
-817.408309865767
 20
346.9692420984751
 10
-823.3392628553071
 20
332.65065495333005
 10
-829.0194187295151
 20
318.2307391962266
 10
-834.4470472578865
 20
303.71388727319396
 10
-839.6204951321934
 20
289.10452115795505
 10
-844.5381864700963
 20
274.4070910049534
 10
-849.1986232951756
 20
259.6260737937901
 10
-853.6003859932272
 20
244.7659719654953
 10
-857.7421337446925
 20
229.83131205103865
 10
-861.6226049330849
 20
214.82664329250494
 10
-865.2406175292888
 20
199.7565362573523
 10
-868.5950694516195
 20
184.62558144617026
 10
-871.6849389015256
 20
169.43838789437194
 10
-874.5092846748407
 20
154.19958176823408
 10
-877.0672464484823
 20
138.9138049557251
 10
-879.3580450425145
 20
123.585713652538
 10
-881.380982657494
 20
108.21997694377102
 10
-883.1354430870267
 20
92.82127538167651
 10
-884.62089190547
 20
77.39429955992047
 10
-885.8368766307239
 20
61.943748684783465
 10
-886.7830268620615
 20
46.4743291437341
 10
-887.459054392957
 20
30.990753071821015
 10
-887.8647532988755
 20
15.497736916307694
 10
-888.0
 20
1.0874863576428496e-13
 10
-887.8647532988755
 20
-15.497736916307868
 10
-887.459054392957
 20
-30.990753071820798
 10
-886.7830268620615
 20
-46.47432914373388
 10
-885.8368766307239
 20
-61.943748684783245
 10
-884.62089190547
 20
-77.39429955992026
 10
-883.1354430870267
 20
-92.8212753816763
 10
-881.380982657494
 20
-108.21997694377082
 10
-879.3580450425144
 20
-123.58571365253819
 10
-877.0672464484824
 20
-138.91380495572488
 10
-874.5092846748407
 20
-154.19958176823425
 10
-871.6849389015256
 20
-169.43838789437171
 10
-868.5950694516193
 20
-184.62558144617046
 10
-865.2406175292889
 20
-199.7565362573521
 10
-861.6226049330849
 20
-214.82664329250474
 10
-857.7421337446926
 20
-229.83131205103845
 10
-853.6003859932272
 20
-244.7659719654951
 10
-849.1986232951755
 20
-259.6260737937902
 10
-844.5381864700964
 20
-274.4070910049532
 10
-839.6204951321932
 20
-289.1045211579552
 10
-834.4470472578867
 20
-303.7138872731938
 10
-829.0194187295151
 20
-318.2307391962268
 10
-823.3392628553072
 20
-332.6506549533299
 10
-817.408309865767
 20
-346.9692420984749
 10
-811.2283663866295
 20
-361.18213905131057
 10
-804.8013148885452
 20
-375.28501642574093
 10
-798.1291131136602
 20
-389.27357834870077
 10
-791.2137934792707
 20
-403.14356376871746
 10
-784.0574624587271
 20
-416.8907477538711
 10
-776.6622999397836
 20
-430.5109427787472
 10
-769.0305585605814
 20
-444.0000000000001
 10
-761.1645630234758
 20
-457.3538105201281
 10
-753.0667093869064
 20
-470.56830663908585
 10
-744.7394643355366
 20
-483.63946309334403
 10
-736.1853644288772
 20
-496.563298282023
 10
-727.4070153286248
 20
-509.335875479729
 10
-718.4070910049535
 20
-521.9533040357161
 10
-709.188332921996
 20
-534.411740559019
 10
-699.7535492027691
 20
-546.7073900891845
 10
-690.1056137737901
 20
-558.8365072522558
 10
-680.2474654896524
 20
-570.7953974016468
 10
-670.1821072378217
 20
-582.5804177435703
 10
-659.9126050239261
 20
-594.1879784466661
 10
-649.4420870378235
 20
-605.6145437354985
 10
-638.7737427007222
 20
-616.8566329675897
 10
-627.9108216936544
 20
-627.9108216936542
 10
-616.8566329675896
 20
-638.7737427007222
 10
-605.6145437354987
 20
-649.4420870378234
 10
-594.187978446666
 20
-659.9126050239262
 10
-582.5804177435705
 20
-670.1821072378216
 10
-570.795397401647
 20
-680.2474654896524
 10
-558.836507252256
 20
-690.1056137737899
 10
-546.7073900891844
 20
-699.7535492027692
 10
-534.4117405590189
 20
-709.188332921996
 10
-521.9533040357162
 20
-718.4070910049533
 10
-509.33587547972917
 20
-727.4070153286245
 10
-496.56329828202297
 20
-736.1853644288772
 10
-483.639463093344
 20
-744.7394643355366
 10
-470.5683066390861
 20
-753.0667093869063
 10
-457.3538105201284
 20
-761.1645630234756
 10
-444.0000000000004
 20
-769.0305585605813
 10
-430.5109427787471
 20
-776.6622999397836
 10
-416.890747753871
 20
-784.0574624587272
 10
-403.1435637687177
 20
-791.2137934792706
 10
-389.27357834870105
 20
-798.1291131136601
 10
-375.2850164257409
 20
-804.8013148885452
 10
-361.1821390513105
 20
-811.2283663866297
 10
-346.96924209847515
 20
-817.4083098657669
 10
-332.6506549533301
 20
-823.3392628553071
 10
-318.23073919622703
 20
-829.019418729515
 10
-303.7138872731937
 20
-834.4470472578867
 10
-289.1045211579551
 20
-839.6204951321934
 10
-274.40709100495343
 20
-844.5381864700963
 10
-259.62607379379057
 20
-849.1986232951754
 10
-244.765971965495
 20
-853.6003859932273
 10
-229.8313120510383
 20
-857.7421337446926
 10
-214.826643292505
 20
-861.6226049330849
 10
-199.75653625735234
 20
-865.2406175292888
 10
-184.62558144617068
 20
-868.5950694516193
 10
-169.4383878943716
 20
-871.6849389015256
 10
-154.19958176823414
 20
-874.5092846748407
 10
-138.91380495572517
 20
-877.0672464484823
 10
-123.58571365253846
 20
-879.3580450425144
 10
-108.21997694377069
 20
-881.380982657494
 10
-92.82127538167619
 20
-883.1354430870268
 10
-77.39429955992053
 20
-884.62089190547
 10
-61.943748684783515
 20
-885.8368766307239
 10
-46.47432914373454
 20
-886.7830268620615
 10
-30.990753071820677
 20
-887.459054392957
 10
-15.497736916307746
 20
-887.8647532988755
 10
-1.6312295364642744e-13
 20
-888.0
 10
15.497736916307419
 20
-887.8647532988755
 10
30.99075307182114
 20
-887.459054392957
 10
46.474329143734224
 20
-886.7830268620615
 10
61.943748684783195
 20
-885.836876630724
 10
77.3942995599202
 20
-884.62089190547
 10
92.82127538167585
 20
-883.1354430870268
 10
108.21997694377114
 20
-881.380982657494
 10
123.58571365253813
 20
-879.3580450425145
 10
138.91380495572483
 20
-877.0672464484824
 10
154.19958176823383
 20
-874.5092846748408
 10
169.43838789437206
 20
-871.6849389015255
 10
184.62558144617037
 20
-868.5950694516193
 10
199.75653625735205
 20
-865.2406175292889
 10
214.82664329250468
 20
-861.622604933085
 10
229.83131205103803
 20
-857.7421337446928
 10
244.76597196549545
 20
-853.6003859932271
 10
259.6260737937902
 20
-849.1986232951755
 10
274.40709100495314
 20
-844.5381864700964
 10
289.1045211579548
 20
-839.6204951321935
 10
303.7138872731941
 20
-834.4470472578865
 10
318.23073919622675
 20
-829.0194187295151
 10
332.6506549533298
 20
-823.3392628553072
 10
346.96924209847487
 20
-817.4083098657671
 10
361.1821390513102
 20
-811.2283663866298
 10
375.2850164257413
 20
-804.8013148885451
 10
389.2735783487007
 20
-798.1291131136603
 10
403.1435637687174
 20
-791.2137934792707
 10
416.8907477538707
 20
-784.0574624587273
 10
430.5109427787475
 20
-776.6622999397833
 10
444.0000000000001
 20
-769.0305585605814
 10
457.3538105201281
 20
-761.1645630234758
 10
470.56830663908573
 20
-753.0667093869065
 10
483.63946309334364
 20
-744.7394643355368
 10
496.56329828202337
 20
-736.1853644288769
 10
509.3358754797289
 20
-727.4070153286248
 10
521.953304035716
 20
-718.4070910049535
 10
534.4117405590185
 20
-709.1883329219962
 10
546.7073900891847
 20
-699.7535492027689
 10
558.8365072522557
 20
-690.1056137737901
 10
570.7953974016468
 20
-680.2474654896525
 10
582.5804177435703
 20
-670.1821072378217
 10
594.1879784466657
 20
-659.9126050239264
 10
605.6145437354987
 20
-649.4420870378233
 10
616.8566329675896
 20
-638.7737427007222
 10
627.910821693654
 20
-627.9108216936544
 10
638.773742700722
 20
-616.8566329675898
 10
649.4420870378235
 20
-605.6145437354985
 10
659.9126050239261
 20
-594.187978446666
 10
670.1821072378215
 20
-582.5804177435706
 10
680.2474654896523
 20
-570.7953974016472
 10
690.1056137737899
 20
-558.836507252256
 10
699.7535492027691
 20
-546.7073900891845
 10
709.188332921996
 20
-534.4117405590189
 10
718.4070910049533
 20
-521.9533040357163
 10
727.4070153286245
 20
-509.3358754797293
 10
736.1853644288772
 20
-496.56329828202297
 10
744.7394643355366
 20
-483.639463093344
 10
753.0667093869063
 20
-470.5683066390861
 10
761.1645630234756
 20
-457.3538105201284
 10
769.0305585605813
 20
-444.0000000000004
 10
776.6622999397836
 20
-430.51094277874716
 10
784.0574624587271
 20
-416.89074775387104
 10
791.2137934792706
 20
-403.1435637687177
 10
798.1291131136601
 20
-389.2735783487011
 10
804.8013148885452
 20
-375.28501642574093
 10
811.2283663866297
 20
-361.1821390513105
 10
817.4083098657669
 20
-346.9692420984752
 10
823.3392628553071
 20
-332.65065495333016
 10
829.019418729515
 20
-318.2307391962271
 10
834.4470472578867
 20
-303.71388727319373
 10
839.6204951321934
 20
-289.10452115795516
 10
844.5381864700963
 20
-274.4070910049535
 10
849.1986232951754
 20
-259.6260737937906
 10
853.6003859932272
 20
-244.76597196549505
 10
857.7421337446926
 20
-229.83131205103837
 10
861.6226049330849
 20
-214.82664329250505
 10
865.2406175292888
 20
-199.75653625735242
 10
868.5950694516193
 20
-184.62558144617077
 10
871.6849389015256
 20
-169.43838789437166
 10
874.5092846748407
 20
-154.1995817682342
 10
877.0672464484823
 20
-138.91380495572523
 10
879.3580450425144
 20
-123.5857136525385
 10
881.380982657494
 20
-108.21997694377073
 10
883.1354430870267
 20
-92.82127538167623
 10
884.62089190547
 20
-77.39429955992058
 10
885.8368766307239
 20
-61.943748684783564
 10
886.7830268620615
 20
-46.4743291437346
 10
887.459054392957
 20
-30.99075307182073
 10
887.8647532988755
 20
-15.497736916307801
 10
888.0
 20
0.0
  0
ENDSEC
  0
SECTION
  2
OBJECTS
  0
DICTIONARY
  5
A
330
0
100
AcDbDictionary
281
1
  3
ACAD_COLOR
350
B
  3
ACAD_GROUP
350
C
  3
ACAD_LAYOUT
350
D
  3
ACAD_MATERIAL
350
E
  3
ACAD_MLEADERSTYLE
350
F
  3
ACAD_MLINESTYLE
350
10
  3
ACAD_PLOTSETTINGS
350
11
  3
ACAD_PLOTSTYLENAME
350
12
  3
ACAD_SCALELIST
350
14
  3
ACAD_TABLESTYLE
350
15
  3
ACAD_VISUALSTYLE
350
16
  3
EZDXF_META
350
2D
  0
DICTIONARY
  5
B
330
A
100
AcDbDictionary
281
1
  0
DICTIONARY
  5
C
330
A
100
AcDbDictionary
281
1
  0
DICTIONARY
  5
D
330
A
100
AcDbDictionary
281
1
  3
Model
350
1A
  3
Layout1
350
1E
  0
DICTIONARY
  5
E
330
A
100
AcDbDictionary
281
1
  3
ByBlock
350
1F
  3
ByLayer
350
20
  3
Global
350
21
  0
DICTIONARY
  5
F
330
A
100
AcDbDictionary
281
1
  3
Standard
350
2C
  0
DICTIONARY
  5
10
330
A
100
AcDbDictionary
281
1
  3
Standard
350
22
  0
DICTIONARY
  5
11
330
A
100
AcDbDictionary
281
1
  0
ACDBDICTIONARYWDFLT
  5
12
330
A
100
AcDbDictionary
281
1
  3
Normal
350
13
100
AcDbDictionaryWithDefault
340
13
  0
ACDBPLACEHOLDER
  5
13
330
12
  0
DICTIONARY
  5
14
330
A
100
AcDbDictionary
281
1
  0
DICTIONARY
  5
15
330
A
100
AcDbDictionary
281
1
  0
DICTIONARY
  5
16
330
A
100
AcDbDictionary
281
1
  0
LAYOUT
  5
1A
330
D
100
AcDbPlotSettings
  1

  4
A3
  6

 40
7.5
 41
20.0
 42
7.5
 43
20.0
 44
420.0
 45
297.0
 46
0.0
 47
0.0
 48
0.0
 49
0.0
140
0.0
141
0.0
142
1.0
143
1.0
 70
1024
 72
1
 73
0
 74
5
  7

 75
16
 76
0
 77
2
 78
300
147
1.0
148
0.0
149
0.0
100
AcDbLayout
  1
Model
 70
1
 71
0
 10
0.0
 20
0.0
 11
420.0
 21
297.0
 12
0.0
 22
0.0
 32
0.0
 14
1e+20
 24
1e+20
 34
1e+20
 15
-1e+20
 25
-1e+20
 35
-1e+20
146
0.0
 13
0.0
 23
0.0
 33
0.0
 16
1.0
 26
0.0
 36
0.0
 17
0.0
 27
1.0
 37
0.0
 76
1
330
17
  0
LAYOUT
  5
1E
330
D
100
AcDbPlotSettings
  1

  4
A3
  6

 40
7.5
 41
20.0
 42
7.5
 43
20.0
 44
420.0
 45
297.0
 46
0.0
 47
0.0
 48
0.0
 49
0.0
140
0.0
141
0.0
142
1.0
143
1.0
 70
0
 72
1
 73
0
 74
5
  7

 75
16
 76
0
 77
2
 78
300
147
1.0
148
0.0
149
0.0
100
AcDbLayout
  1
Layout1
 70
1
 71
1
 10
0.0
 20
0.0
 11
420.0
 21
297.0
 12
0.0
 22
0.0
 32
0.0
 14
1e+20
 24
1e+20
 34
1e+20
 15
-1e+20
 25
-1e+20
 35
-1e+20
146
0.0
 13
0.0
 23
0.0
 33
0.0
 16
1.0
 26
0.0
 36
0.0
 17
0.0
 27
1.0
 37
0.0
 76
1
330
1B
  0
MATERIAL
  5
1F
102
{ACAD_REACTORS
330
E
102
}
330
E
100
AcDbMaterial
  1
ByBlock
  2

 70
0
 40
1.0
 71
1
 41
1.0
 91
-1023410177
 42
1.0
 72
1
  3

 73
1
 74
1
 75
1
 44
0.5
 73
0
 45
1.0
 46
1.0
 77
1
  4

 78
1
 79
1
170
1
 48
1.0
171
1
  6

172
1
173
1
174
1
140
1.0
141
1.0
175
1
  7

176
1
177
1
178
1
143
1.0
179
1
  8

270
1
271
1
272
1
145
1.0
146
1.0
273
1
  9

274
1
275
1
276
1
 42
1.0
 72
1
  3

 73
1
 74
1
 75
1
 94
63
  0
MATERIAL
  5
20
102
{ACAD_REACTORS
330
E
102
}
330
E
100
AcDbMaterial
  1
ByLayer
  2

 70
0
 40
1.0
 71
1
 41
1.0
 91
-1023410177
 42
1.0
 72
1
  3

 73
1
 74
1
 75
1
 44
0.5
 73
0
 45
1.0
 46
1.0
 77
1
  4

 78
1
 79
1
170
1
 48
1.0
171
1
  6

172
1
173
1
174
1
140
1.0
141
1.0
175
1
  7

176
1
177
1
178
1
143
1.0
179
1
  8

270
1
271
1
272
1
145
1.0
146
1.0
273
1
  9

274
1
275
1
276
1
 42
1.0
 72
1
  3

 73
1
 74
1
 75
1
 94
63
  0
MATERIAL
  5
21
102
{ACAD_REACTORS
330
E
102
}
330
E
100
AcDbMaterial
  1
Global
  2

 70
0
 40
1.0
 71
1
 41
1.0
 91
-1023410177
 42
1.0
 72
1
  3

 73
1
 74
1
 75
1
 44
0.5
 73
0
 45
1.0
 46
1.0
 77
1
  4

 78
1
 79
1
170
1
 48
1.0
171
1
  6

172
1
173
1
174
1
140
1.0
141
1.0
175
1
  7

176
1
177
1
178
1
143
1.0
179
1
  8

270
1
271
1
272
1
145
1.0
146
1.0
273
1
  9

274
1
275
1
276
1
 42
1.0
 72
1
  3

 73
1
 74
1
 75
1
 94
63
  0
MLINESTYLE
  5
22
102
{ACAD_REACTORS
330
10
102
}
330
10
100
AcDbMlineStyle
  2
Standard
 70
0
  3

 62
256
 51
90.0
 52
90.0
 71
2
 49
0.5
 62
256
  6
BYLAYER
 49
-0.5
 62
256
  6
BYLAYER
  0
MLEADERSTYLE
  5
2C
102
{ACAD_REACTORS
330
F
102
}
330
F
100
AcDbMLeaderStyle
179
2
170
2
171
1
172
0
 90
2
 40
0.0
 41
0.0
173
1
 91
-1056964608
 92
-2
290
1
 42
2.0
291
1
 43
8.0
  3
Standard
 44
4.0
300

342
29
174
1
175
1
176
0
178
1
 93
-1056964608
 45
4.0
292
0
297
0
 46
4.0
 94
-1056964608
 47
1.0
 49
1.0
140
1.0
294
1
141
0.0
177
0
142
1.0
295
0
296
0
143
3.75
271
0
272
9
273
9
  0
DICTIONARY
  5
2D
330
A
100
AcDbDictionary
280
1
281
1
  3
CREATED_BY_EZDXF
350
2E
  3
WRITTEN_BY_EZDXF
350
32
  0
DICTIONARYVAR
  5
2E
330
2D
100
DictionaryVariables
280
0
  1
1.4.3 @ 2026-04-20T08:31:43.303965+00:00
  0
DICTIONARYVAR
  5
32
330
2D
100
DictionaryVariables
280
0
  1
1.4.3 @ 2026-04-20T08:31:43.437840+00:00
  0
ENDSEC
  0
EOF
